<svg width="287" height="152" viewBox="0 0 287 152" fill="none" xmlns="http://www.w3.org/2000/svg">
<g clip-path="url(#clip0_1315_4840)">
<path opacity="0.1" d="M130.5 152.026C202.573 152.026 261 150.166 261 147.872C261 145.578 202.573 143.718 130.5 143.718C58.4268 143.718 0 145.578 0 147.872C0 150.166 58.4268 152.026 130.5 152.026Z" fill="#DDEBFF"/>
<path d="M274.282 92.3148C273.938 95.0755 273.674 97.8626 272.986 100.492C272.273 103.174 270.396 105.435 269.365 107.959C268.413 110.299 268.678 113.244 267.435 115.426C266.193 117.635 264.131 119.37 262.651 121.395C261.171 123.446 259.955 125.759 258.237 127.6C256.518 129.467 254.007 130.519 252.104 132.149C250.175 133.779 248.43 135.619 246.315 137.013C244.201 138.406 241.954 139.537 239.707 140.694C237.46 141.825 235.108 142.718 232.729 143.586C230.35 144.454 227.997 145.295 225.513 145.874C223.054 146.452 220.675 147.556 218.138 147.846C215.653 148.135 213.063 147.109 210.499 147.083C207.987 147.057 205.503 147.267 202.965 146.952C200.533 146.636 198.181 146.189 195.855 145.611C193.476 145.032 190.806 145.427 188.559 144.585C186.259 143.744 184.277 142.14 182.136 141.062C179.968 139.958 177.616 139.143 175.58 137.802C173.545 136.461 172.012 134.436 170.162 132.885C168.311 131.334 166.699 129.546 165.034 127.81C163.368 126.075 161.624 124.392 160.17 122.473C158.716 120.553 157.342 118.581 156.099 116.504C154.857 114.427 153.271 112.508 152.293 110.299C151.315 108.117 150.073 105.908 149.332 103.621C148.619 101.333 148.196 98.8617 147.72 96.4953C147.271 94.1553 147.588 91.6311 147.403 89.2122C147.244 87.0824 146.953 84.9264 147.006 82.7704C147.059 80.6406 148.064 78.5898 148.354 76.4338C148.407 76.0131 148.645 75.645 148.724 75.2506C149.095 72.7265 149.095 70.2023 149.755 67.8097C150.416 65.3644 151.183 62.9717 152.134 60.6579C153.086 58.2916 154.619 56.2933 155.835 54.111C157.077 51.9024 157.157 48.9575 158.637 46.933C160.117 44.8821 162.39 43.4097 164.109 41.5692C165.827 39.7024 167.545 37.8356 169.448 36.2054C171.378 34.5753 172.99 32.4192 175.078 30.9994C177.193 29.6059 180.127 29.6059 182.4 28.449C184.647 27.3184 186.444 25.1098 188.85 24.2158C191.229 23.3481 193.978 23.6637 196.463 23.0852C198.921 22.5068 201.3 21.5602 203.837 21.2973C206.322 21.0081 208.886 21.0081 211.424 21.0081C213.935 21.0343 216.393 21.6917 218.931 22.0072C221.389 22.3227 223.847 22.2701 226.2 22.8223C228.605 23.4007 231.169 23.4533 233.442 24.2947C235.742 25.1361 238.068 26.1089 240.236 27.1869C242.43 28.2912 243.989 30.4735 246.025 31.8145C248.06 33.1554 250.201 34.3649 252.051 35.9162C253.928 37.4938 255.673 39.1502 257.364 40.9382C259.03 42.6998 260.298 44.8032 261.752 46.7489C263.206 48.6946 264.739 50.5614 265.955 52.6649C267.171 54.7683 269.233 56.4774 270.211 58.7123C271.189 60.9209 270.713 63.7079 271.427 66.048C272.14 68.3618 273.938 70.439 274.387 72.8316C274.81 75.198 273.647 77.801 273.806 80.2463C273.964 82.6389 274.334 85.0053 274.202 87.4505C274.149 87.398 274.493 90.6846 274.282 92.3148Z" fill="#3C83D7"/>
<path d="M185.889 64.8122C185.466 68.204 182.4 70.6756 178.99 70.2549C175.58 69.8342 173.228 66.679 173.677 63.2872C174.1 59.8954 177.166 57.4765 180.576 57.9235C183.96 58.3441 186.312 61.4204 185.889 64.8122Z" fill="#81BBFF"/>
<path d="M219.856 119.765C219.591 121.894 217.582 123.419 215.441 123.13C213.3 122.867 211.767 120.895 212.058 118.766C212.322 116.636 214.305 115.111 216.446 115.374C218.587 115.663 220.12 117.635 219.856 119.765Z" fill="#81BBFF"/>
<path d="M232.729 49.457C232.412 51.9023 231.064 54.0057 229.24 55.3992C227.416 56.7928 225.037 57.5815 222.579 57.2923C220.12 56.9768 217.953 55.6622 216.526 53.8479C215.125 52.0337 214.384 49.6148 214.702 47.1695C215.019 44.7243 216.42 42.6734 218.244 41.2536C220.068 39.86 222.394 39.0713 224.878 39.3868C227.337 39.7023 229.451 41.0169 230.852 42.8312C232.253 44.6454 233.046 46.9855 232.729 49.457Z" fill="#81BBFF"/>
<path d="M249.487 72.8317C249.091 75.8816 246.236 78.0377 243.17 77.6696C240.104 77.2752 237.91 74.4618 238.306 71.4381C238.703 68.3881 241.531 66.3373 244.571 66.7054C247.637 67.0735 249.857 69.7817 249.487 72.8317Z" fill="#81BBFF"/>
<path d="M207.459 79.3785C207.221 81.1665 205.555 82.4285 203.758 82.1919C201.961 81.9552 200.665 80.3251 200.903 78.5372C201.141 76.7492 202.78 75.4346 204.604 75.6449C206.375 75.9079 207.67 77.5906 207.459 79.3785Z" fill="#81BBFF"/>
<path d="M249.488 99.4665C249.091 102.595 247.505 105.356 245.179 107.144C242.853 108.932 239.787 109.773 236.641 109.379C233.496 108.985 230.905 107.276 229.108 104.962C227.31 102.648 226.332 99.7294 226.755 96.6006C227.152 93.4717 228.738 90.7635 231.064 88.9756C233.39 87.1877 236.43 86.32 239.575 86.7407C242.721 87.1351 245.285 88.8178 247.109 91.1316C248.853 93.4191 249.884 96.3376 249.488 99.4665Z" fill="#81BBFF"/>
<path d="M198.894 119.633C198.551 122.236 197.256 124.471 195.3 125.944C193.37 127.442 190.859 128.231 188.242 127.889C185.625 127.547 183.299 126.259 181.792 124.313C180.286 122.394 179.625 119.844 179.942 117.214C180.286 114.611 181.713 112.482 183.643 110.983C185.572 109.484 188.004 108.669 190.621 108.985C193.238 109.326 195.537 110.615 197.018 112.534C198.577 114.506 199.238 117.03 198.894 119.633Z" fill="#81BBFF"/>
<path d="M81.4157 52.6733L68.2197 48.9556L59.1599 80.773L72.3559 84.4908L81.4157 52.6733Z" fill="#3C83D7"/>
<path d="M19.6885 101.788L26.8836 100.71L35.9065 95.0297L33.4541 91.4175L25.0328 92.306L19.6885 101.788Z" fill="#DDEBFF"/>
<path d="M31.829 77.8437L26.9404 100.475L52.7966 95.7964C57.5693 94.9206 61.2995 91.2103 62.1567 86.4398L65.3076 68.9019C48.8811 72.4509 31.829 77.8437 31.829 77.8437Z" fill="#3C83D7"/>
<path d="M10.8848 104.879L18.2146 93.106L25.0176 92.3395L19.7264 101.755C19.7264 101.755 16.1989 102.623 14.8246 104.127C13.5876 105.487 10.8848 104.879 10.8848 104.879Z" fill="#00417C"/>
<path d="M82.4754 130.135L81.8 122.882L76.3181 113.081L72.2812 114.94L72.6582 123.364L82.4754 130.135Z" fill="#DDEBFF"/>
<path d="M81.5954 122.829L62.9215 116.86L62.0874 116.584L59.4462 115.731C59.4462 115.731 52.8895 84.8035 52.681 66.0672C52.6578 65.0762 52.681 64.1083 52.7273 63.2095C53.237 50.9952 57.8939 46.0634 57.8939 46.0634L75.7801 51.1104L79.8577 101.327L81.5954 122.829Z" fill="#0557A3"/>
<path d="M86.8219 139.353L72.6988 130.148L72.2812 123.221L83.6088 130.01C83.6088 130.01 84.4075 133.692 86.1866 135.303C87.784 136.753 86.8219 139.353 86.8219 139.353Z" fill="#00417C"/>
<path d="M106.501 43.7818C105.111 46.9161 101.427 48.3449 98.2764 46.9622L75.8724 37.2138C72.7215 35.831 71.285 32.1667 72.6751 29.0325C74.0653 25.8982 77.7491 24.4694 80.9 25.8521L103.304 35.6005C106.478 36.9833 107.891 40.6476 106.501 43.7818Z" fill="#81BBFF"/>
<path d="M85.3947 41.7538L80.205 59.7065L53.6074 52.0783L61.7859 23.801C62.0871 22.764 62.759 21.9343 63.5931 21.4043C64.5893 20.782 65.8404 20.5516 67.0684 20.8973L79.6026 24.4924C81.3634 24.9994 82.7303 26.3822 83.2169 28.1337L85.4642 36.4071C85.9276 38.1817 85.9044 40.0253 85.3947 41.7538Z" fill="#81BBFF"/>
<path d="M69.8719 32.1437L59.0522 40.9933L54.627 44.6115L50.8273 47.7227C48.1629 49.9351 44.1779 49.5663 41.9769 46.893C39.7527 44.2427 40.1234 40.2788 42.811 38.0895L55.1135 28.0184L60.3265 23.755L61.8787 22.4874C62.4811 21.9804 63.1762 21.6117 63.8944 21.3812H63.9176C64.5663 21.1738 65.2382 21.0586 65.8869 21.0586C65.9101 21.0586 65.9333 21.0586 65.9564 21.0586C67.7404 21.0816 69.5012 21.8422 70.7291 23.3171C72.907 25.9904 72.5363 29.9313 69.8719 32.1437Z" fill="#81BBFF"/>
<path d="M127.075 40.1664L120.61 41.3687L118.688 35.3396L121.398 34.8446L122.742 32.6698C123.02 32.2278 123.53 31.8919 124.155 31.7858L125.569 31.5206C126.125 31.4145 126.681 31.6974 126.75 32.1394C126.82 32.44 126.588 32.7406 126.264 32.882C126.171 32.9174 126.101 32.9527 125.986 32.9704C126.148 32.9527 130.828 32.1748 131.616 32.9351L129.16 38.5044C128.974 39.3001 128.14 39.9542 127.075 40.1664Z" fill="#DDEBFF"/>
<path d="M121.12 41.2626C121.12 41.2626 110.324 45.223 104.508 46.7612C103.744 46.9557 103.072 47.1148 102.516 47.2209C98.6005 47.9458 95.7971 46.2662 94.9862 43.7202C94.6618 42.7124 94.8008 41.6869 95.2874 40.7852C96.0287 39.4238 97.581 38.3453 99.5967 37.974L117.576 35.4634L119.221 35.2335L121.12 41.2626Z" fill="#DDEBFF"/>
<path d="M81.3177 15.1864L76.7137 22.6104L76.3275 23.2019L69.7334 21.3089L71.6938 18.292L75.6444 12.1399L81.3177 15.1864Z" fill="#DDEBFF"/>
<path d="M80.4134 16.9333L80.3439 17.1407C80.2976 17.302 80.2049 17.4633 80.1354 17.6246C79.3245 19.0996 77.5405 19.6988 76.0346 19.0535C75.9419 19.0074 75.8492 18.9613 75.7565 18.9152C75.5944 18.823 75.4322 18.7308 75.2932 18.6156C74.0652 17.6707 73.6714 15.9423 74.4359 14.5595C74.8298 13.8221 75.4785 13.3151 76.2199 13.0616C76.8686 12.8311 77.5637 12.8081 78.2356 13.0155C78.4441 13.0846 78.6294 13.1537 78.8148 13.269C78.838 13.292 78.8611 13.292 78.8843 13.3151C79.672 13.7529 80.1817 14.4904 80.3903 15.297C80.5061 15.781 80.5293 16.288 80.4134 16.7719C80.4366 16.818 80.4134 16.8872 80.4134 16.9333Z" fill="#DDEBFF"/>
<path d="M81.9955 19.9627C81.9655 20.0501 81.9356 20.1374 81.9057 20.1957C81.4568 21.1861 80.14 21.6813 79.1226 21.1278L76.2197 19.6131L76.7883 17.312L77.7759 13.2922H77.8058L83.3122 13.8039V15.4186L81.9955 19.9627Z" fill="#DDEBFF"/>
<path d="M83.3911 14.4164C83.3911 14.4164 80.2188 15.9897 76.901 15.5034C75.4749 15.3032 74.3399 15.1315 73.9033 14.9599L75.7368 12.1567C76.8137 10.2117 79.2584 9.49655 81.2375 10.5549C82.7217 11.3558 83.5075 12.9004 83.3911 14.4164Z" fill="#00417C"/>
<path d="M77.5813 15.4925C77.3032 15.9995 76.6545 16.1839 76.1448 15.9073C75.6351 15.6308 75.4498 14.9855 75.7278 14.4785C76.0058 13.9715 76.6545 13.7871 77.1642 14.0636C77.6739 14.3402 77.8593 14.9855 77.5813 15.4925Z" fill="#DDEBFF"/>
<path d="M76.8941 37.95L74.5107 43.9775C74.3045 44.4812 73.5253 44.7644 72.792 44.5756C72.2649 44.4339 71.9669 44.0877 71.9669 43.7257C71.9669 43.647 71.9899 43.5526 72.0128 43.4739C72.1044 43.2536 71.8294 43.0648 71.5086 43.112L66.8793 43.8516L66.3981 43.9303L66.2377 43.9618L64.4043 38.5323L66.0085 38.2805L66.5356 38.2018L67.1314 38.1073C67.1314 38.1073 70.2711 37.6037 70.7294 37.525L72.3794 37.2575C76.1149 36.6123 77.0774 37.4936 76.8941 37.95Z" fill="#DDEBFF"/>
<path d="M66.721 43.8511C66.721 43.8511 65.8608 44.1191 64.4891 44.5448C60.3274 45.8375 51.4694 48.5176 47.8192 49.1009C43.8436 49.7315 41.0304 48.2023 40.2399 45.9006C40.1236 45.5695 40.0771 45.2384 40.0771 44.9231C40.0771 42.984 42.0301 41.2341 44.913 40.7611H44.9363L64.8378 38.4121L66.721 43.8511Z" fill="#DDEBFF"/>
<path d="M74.0193 12.8312C76.2586 12.8312 78.0739 11.0771 78.0739 8.9134C78.0739 6.74966 76.2586 4.99561 74.0193 4.99561C71.7801 4.99561 69.9648 6.74966 69.9648 8.9134C69.9648 11.0771 71.7801 12.8312 74.0193 12.8312Z" fill="#00417C"/>
</g>
<defs>
<clipPath id="clip0_1315_4840">
<rect width="287" height="152" fill="white"/>
</clipPath>
</defs>
</svg>
