<svg width="48" height="48" viewBox="0 0 48 48" fill="none" xmlns="http://www.w3.org/2000/svg">
<g clip-path="url(#clip0_242_1917)">
<path d="M13.1721 36C12.9403 36.0001 12.7137 35.9314 12.5209 35.8026C12.3282 35.6738 12.1779 35.4908 12.0892 35.2766C12.0005 35.0625 11.9773 34.8268 12.0225 34.5995C12.0678 34.3721 12.1794 34.1633 12.3433 33.9994L33.9996 12.3432C34.2194 12.1234 34.5175 11.9999 34.8283 11.9999C35.1392 11.9999 35.4373 12.1234 35.6571 12.3432C35.8769 12.563 36.0004 12.8611 36.0004 13.1719C36.0004 13.4827 35.8769 13.7809 35.6571 14.0007L14.0008 35.6569C13.8921 35.7659 13.7629 35.8523 13.6207 35.9112C13.4785 35.97 13.326 36.0002 13.1721 36Z" fill="#454F5B"/>
<path d="M34.8283 36C34.6743 36.0002 34.5219 35.97 34.3797 35.9112C34.2375 35.8523 34.1083 35.7659 33.9995 35.6569L12.3433 14.0007C12.1235 13.7809 12 13.4827 12 13.1719C12 12.8611 12.1235 12.563 12.3433 12.3432C12.5631 12.1234 12.8612 11.9999 13.172 11.9999C13.4829 11.9999 13.781 12.1234 14.0008 12.3432L35.657 33.9994C35.821 34.1633 35.9326 34.3721 35.9778 34.5995C36.0231 34.8268 35.9999 35.0625 35.9112 35.2766C35.8224 35.4908 35.6722 35.6738 35.4795 35.8026C35.2867 35.9314 35.0601 36.0001 34.8283 36Z" fill="#454F5B"/>
</g>
<defs>
<clipPath id="clip0_242_1917">
<rect width="24.0004" height="24.0002" fill="white" transform="translate(12 12)"/>
</clipPath>
</defs>
</svg>
