<svg width="170" height="32" viewBox="0 0 170 32" fill="none" xmlns="http://www.w3.org/2000/svg">
<g clip-path="url(#clip0_1002_10507)">
<path d="M55.8012 9.54053L52.8837 18.2499L50.0294 9.54053H47.3542L44.4051 18.1878L41.5824 9.54053H38.5807L42.6883 21.8434H45.7743L48.6181 13.5069L51.3881 21.8434H54.4635L58.5712 9.54053H55.8012Z" fill="#F9FAFB"/>
<path d="M60.288 21.8434V9.54053H63.1949V21.8331H60.288V21.8434Z" fill="#F9FAFB"/>
<path d="M68.9139 21.8434V11.8603H64.9116V9.54053H75.8126V11.8603H71.8103V21.8331H68.9139V21.8434Z" fill="#F9FAFB"/>
<path d="M86.1028 9.54053V14.3871H80.447V9.54053H77.5295V21.8434H80.447V16.8001H86.1028V21.8434H88.9993V9.54053H86.1028Z" fill="#F9FAFB"/>
<path d="M97.5832 22.0505C96.5932 22.0505 95.6874 21.8952 94.8553 21.5742C94.0233 21.2531 93.2965 20.8182 92.6751 20.2382C92.0537 19.6686 91.5797 18.9955 91.2322 18.2188C90.8951 17.4421 90.7266 16.6033 90.7266 15.6919C90.7266 14.7703 90.8951 13.9211 91.2322 13.1547C91.5692 12.3884 92.0537 11.7153 92.6751 11.1457C93.2965 10.5761 94.0127 10.1308 94.8448 9.80975C95.6663 9.48871 96.5721 9.33337 97.5621 9.33337C98.5522 9.33337 99.458 9.48871 100.29 9.79939C101.122 10.1101 101.838 10.5554 102.46 11.125C103.081 11.6945 103.555 12.3677 103.903 13.1444C104.24 13.9211 104.408 14.7703 104.408 15.6919C104.408 16.6033 104.24 17.4525 103.903 18.2292C103.566 19.0059 103.081 19.679 102.46 20.2589C101.838 20.8285 101.122 21.2738 100.29 21.5845C99.458 21.8952 98.5627 22.0505 97.5832 22.0505ZM97.5621 19.6479C98.1204 19.6479 98.6365 19.5547 99.1104 19.358C99.5844 19.1612 99.9951 18.8919 100.353 18.5295C100.711 18.1774 100.985 17.7528 101.185 17.2868C101.385 16.8104 101.48 16.2822 101.48 15.7023C101.48 15.112 101.385 14.5839 101.185 14.1178C100.985 13.6415 100.711 13.2272 100.353 12.8751C99.9951 12.523 99.5844 12.2434 99.1104 12.0466C98.6365 11.8499 98.1204 11.7567 97.5621 11.7567C97.0039 11.7567 96.4878 11.8499 96.0034 12.0466C95.5294 12.2434 95.1081 12.5127 94.7605 12.8751C94.413 13.2376 94.1391 13.6518 93.939 14.1178C93.7389 14.5942 93.6441 15.1224 93.6441 15.7023C93.6441 16.2926 93.7389 16.8208 93.939 17.2868C94.1391 17.7631 94.413 18.1774 94.7605 18.5295C95.1081 18.8919 95.5294 19.1612 96.0034 19.358C96.4878 19.5444 97.0039 19.6479 97.5621 19.6479Z" fill="#F9FAFB"/>
<path d="M111.781 22.0506C110.011 22.0506 108.621 21.5638 107.62 20.5904C106.62 19.6169 106.125 18.2292 106.125 16.4065V9.54053H109.032V16.3341C109.032 17.4939 109.274 18.3328 109.769 18.8506C110.254 19.3684 110.938 19.6273 111.802 19.6273C112.687 19.6273 113.371 19.3684 113.856 18.8506C114.34 18.3328 114.593 17.4939 114.593 16.3341V9.54053H117.437V16.4065C117.437 18.2188 116.942 19.6169 115.941 20.5904C114.93 21.5638 113.55 22.0506 111.781 22.0506Z" fill="#F9FAFB"/>
<path d="M123.114 21.9158V11.943H119.111V9.62329H130.012V11.943H126.01V21.9158H123.114Z" fill="#F9FAFB"/>
<path d="M135.163 21.8434V9.54053H136.069V21.0357H143.273V21.8434H135.163Z" fill="#F9FAFB"/>
<path d="M145.021 21.8434V9.54053H145.927V21.8331H145.021V21.8434Z" fill="#F9FAFB"/>
<path d="M156.954 9.54053V20.2176L148.455 9.54053H147.686V21.8434H148.602V11.1664L157.123 21.8434H157.871V9.54053H156.954Z" fill="#F9FAFB"/>
<path d="M168.677 21.8434H169.783L163.916 15.1431L169.414 9.54053H168.298L160.493 17.4421V9.54053H159.587V21.8434H160.493V18.602L163.295 15.7852L168.677 21.8434Z" fill="#F9FAFB"/>
</g>
<g clip-path="url(#clip1_1002_10507)">
<path fill-rule="evenodd" clip-rule="evenodd" d="M13.5156 13.3469C13.5156 12.0398 14.5605 10.9802 15.8494 10.9802L16.0403 10.9802C17.3292 10.9802 18.374 12.0398 18.374 13.3468L18.374 16.6049C18.374 17.9119 17.3292 18.9715 16.0403 18.9715L15.8494 18.9715C14.5605 18.9715 13.5156 17.9119 13.5156 16.6049L13.5156 13.3469ZM15.8494 11.9916C15.1113 11.9916 14.513 12.5984 14.513 13.3469L14.513 16.6049C14.513 17.3534 15.1113 17.9601 15.8494 17.9601L16.0403 17.9601C16.7784 17.9601 17.3767 17.3534 17.3767 16.6049L17.3767 13.3468C17.3767 12.5984 16.7784 11.9916 16.0403 11.9916L15.8494 11.9916Z" fill="#3C83D7"/>
<path fill-rule="evenodd" clip-rule="evenodd" d="M11.5886 10.842C11.5886 9.53492 12.6334 8.47534 13.9223 8.47534L14.1132 8.47534C15.4021 8.47534 16.447 9.53492 16.447 10.842L16.447 14.1C16.447 15.407 15.4021 16.4666 14.1132 16.4666L13.9223 16.4666C12.6334 16.4666 11.5886 15.407 11.5886 14.1L11.5886 10.842ZM13.9223 9.48672C13.1842 9.48672 12.5859 10.0935 12.5859 10.842L12.5859 14.1C12.5859 14.8485 13.1842 15.4552 13.9223 15.4552L14.1132 15.4552C14.8513 15.4552 15.4496 14.8485 15.4496 14.1L15.4496 10.842C15.4496 10.0935 14.8513 9.48672 14.1132 9.48672L13.9223 9.48672Z" fill="#3C83D7"/>
<path d="M21.58 7.95138C21.7331 6.73865 21.8522 5.68037 21.9373 4.78227C19.6636 4.35896 17.3389 4.14158 14.9972 4.14158C11.6235 4.14158 8.29522 4.58777 5.086 5.46872C5.05198 6.24097 4.41693 6.8645 3.63447 6.8645C2.82933 6.8645 2.17728 6.20665 2.17728 5.39435C2.17728 4.58205 2.82933 3.9242 3.63447 3.9242C4.12776 3.9242 4.55868 4.17018 4.82517 4.54773C8.12512 3.6439 11.5385 3.18627 15.0028 3.18627C17.3729 3.18627 19.7203 3.40365 22.028 3.82696C22.1924 1.82481 22.1924 0.818019 22.1924 0.806578V0.623525C19.8507 0.211655 17.4523 0 15.0028 0C9.7354 0 4.70044 0.978191 0.0623701 2.76868C0.02268 3.42653 0 4.09582 0 4.76511C0 6.82445 0.19278 8.84376 0.561331 10.8001C0.657721 10.7487 3.75354 9.02109 7.49008 8.15159C9.93952 7.60815 12.457 7.32785 15.0028 7.32785C17.2255 7.32213 19.4254 7.53379 21.58 7.95138Z" fill="#3C83D7"/>
<path d="M18.0927 24.1917C19.7313 22.487 21.1488 20.5878 22.3055 18.5227C24.324 14.936 25.526 10.8917 25.8209 6.75584C25.2822 6.53846 24.908 6.01218 24.908 5.39438C24.908 4.58208 25.5601 3.92423 26.3652 3.92423C27.1703 3.92423 27.8224 4.58208 27.8224 5.39438C27.8224 6.06367 27.3801 6.62427 26.7734 6.8016C26.4729 11.0862 25.2312 15.2793 23.139 18.9918C21.9653 21.0798 20.5421 23.0018 18.8921 24.7351C20.338 25.679 21.421 26.1309 21.4436 26.1366L21.7838 26.2739C26.8925 20.5878 30.0054 13.0369 30.0054 4.75941C30.0054 4.09012 29.9827 3.42656 29.943 2.76871C27.76 1.92209 25.4807 1.26424 23.139 0.795166C23.139 0.795166 23.156 3.1863 22.5153 8.1459C22.09 11.2464 21.0921 14.2439 19.5669 16.9496C18.5122 18.8259 17.1911 20.5764 15.6772 22.1266C16.4824 22.9503 17.3215 23.6311 18.0927 24.1917Z" fill="#3C83D7"/>
<path d="M10.4387 16.9553C9.07218 14.5241 8.12529 11.8584 7.64334 9.09546C6.5547 9.35288 5.52276 9.68466 4.60422 10.0279C5.17122 13.0254 6.20316 15.8741 7.69437 18.5284C9.35568 21.4859 11.5953 24.163 14.2149 26.3425C14.4417 26.1938 14.7138 26.108 15.003 26.108C15.8082 26.108 16.4602 26.7658 16.4602 27.5781C16.4602 28.3904 15.8082 29.0483 15.003 29.0483C14.1979 29.0483 13.5458 28.3904 13.5458 27.5781C13.5458 27.4122 13.5742 27.2463 13.6252 27.0976C10.9093 24.8438 8.59023 22.0694 6.86655 19.0032C5.35266 16.3032 4.29237 13.4087 3.70269 10.3768C2.10375 11.0347 1.04346 11.6239 1.02645 11.6296L0.765625 11.7726C2.64807 20.2903 7.88148 27.5266 15.003 32C17.2313 30.5985 19.2782 28.9281 21.0869 27.029C20.9849 26.9889 17.8153 25.6561 15.003 22.8016C13.1999 21.0912 11.6464 19.1062 10.4387 16.9553Z" fill="#3C83D7"/>
</g>
<defs>
<clipPath id="clip0_1002_10507">
<rect width="132" height="14" fill="white" transform="translate(38 9)"/>
</clipPath>
<clipPath id="clip1_1002_10507">
<rect width="30" height="32" fill="white"/>
</clipPath>
</defs>
</svg>
