<svg width="251" height="48" viewBox="0 0 251 48" fill="none" xmlns="http://www.w3.org/2000/svg">
<g clip-path="url(#clip0_1002_9844)">
<path d="M82.4207 14.3107L78.1139 27.3747L73.9005 14.3107H69.9513L65.5979 27.2815L61.4311 14.3107H57L63.0636 32.765H67.6192L71.8171 20.2602L75.9061 32.765H80.4461L86.5098 14.3107H82.4207Z" fill="#161C24"/>
<path d="M89.0441 32.765V14.3107H93.3353V32.7495H89.0441V32.765Z" fill="#161C24"/>
<path d="M101.778 32.765V17.7903H95.8695V14.3107H111.961V17.7903H106.053V32.7495H101.778V32.765Z" fill="#161C24"/>
<path d="M127.152 14.3107V21.5806H118.803V14.3107H114.496V32.765H118.803V25.2H127.152V32.765H131.427V14.3107H127.152Z" fill="#161C24"/>
<path d="M144.099 33.0757C142.637 33.0757 141.3 32.8427 140.072 32.3612C138.844 31.8796 137.771 31.2272 136.854 30.3573C135.936 29.5029 135.237 28.4932 134.724 27.3282C134.226 26.1631 133.977 24.9049 133.977 23.5379C133.977 22.1553 134.226 20.8816 134.724 19.732C135.221 18.5825 135.936 17.5728 136.854 16.7184C137.771 15.8641 138.828 15.1961 140.056 14.7146C141.269 14.233 142.606 14 144.068 14C145.529 14 146.866 14.233 148.095 14.699C149.323 15.165 150.38 15.833 151.298 16.6874C152.215 17.5417 152.915 18.5515 153.428 19.7165C153.925 20.8816 154.174 22.1553 154.174 23.5379C154.174 24.9049 153.925 26.1786 153.428 27.3437C152.93 28.5087 152.215 29.5184 151.298 30.3883C150.38 31.2427 149.323 31.9107 148.095 32.3767C146.866 32.8427 145.545 33.0757 144.099 33.0757ZM144.068 29.4718C144.892 29.4718 145.654 29.332 146.353 29.0369C147.053 28.7417 147.659 28.3379 148.188 27.7942C148.717 27.266 149.121 26.6291 149.416 25.9301C149.712 25.2155 149.852 24.4233 149.852 23.5534C149.852 22.668 149.712 21.8757 149.416 21.1767C149.121 20.4621 148.717 19.8408 148.188 19.3126C147.659 18.7845 147.053 18.365 146.353 18.0699C145.654 17.7748 144.892 17.635 144.068 17.635C143.244 17.635 142.482 17.7748 141.767 18.0699C141.067 18.365 140.445 18.7689 139.932 19.3126C139.419 19.8563 139.015 20.4777 138.719 21.1767C138.424 21.8913 138.284 22.6835 138.284 23.5534C138.284 24.4388 138.424 25.2311 138.719 25.9301C139.015 26.6447 139.419 27.266 139.932 27.7942C140.445 28.3379 141.067 28.7417 141.767 29.0369C142.482 29.3165 143.244 29.4718 144.068 29.4718Z" fill="#161C24"/>
<path d="M165.057 33.0757C162.445 33.0757 160.393 32.3456 158.916 30.8854C157.439 29.4252 156.708 27.3437 156.708 24.6097V14.3107H160.999V24.501C160.999 26.2408 161.357 27.499 162.088 28.2757C162.803 29.0524 163.813 29.4408 165.088 29.4408C166.394 29.4408 167.405 29.0524 168.12 28.2757C168.835 27.499 169.209 26.2408 169.209 24.501V14.3107H173.406V24.6097C173.406 27.3281 172.676 29.4252 171.199 30.8854C169.706 32.3456 167.669 33.0757 165.057 33.0757Z" fill="#161C24"/>
<path d="M181.787 32.8738V17.9145H175.879V14.4349H191.971V17.9145H186.062V32.8738H181.787Z" fill="#161C24"/>
<path d="M199.573 32.765V14.3107H200.911V31.5534H211.545V32.765H199.573Z" fill="#161C24"/>
<path d="M214.126 32.765V14.3107H215.463V32.7495H214.126V32.765Z" fill="#161C24"/>
<path d="M231.742 14.3107V30.3262L219.195 14.3107H218.06V32.765H219.412V16.7495L231.991 32.765H233.095V14.3107H231.742Z" fill="#161C24"/>
<path d="M249.047 32.765H250.679L242.019 22.7146L250.135 14.3107H248.487L236.966 26.1631V14.3107H235.629V32.765H236.966V27.9029L241.102 23.6777L249.047 32.765Z" fill="#161C24"/>
</g>
<g clip-path="url(#clip1_1002_9844)">
<path fill-rule="evenodd" clip-rule="evenodd" d="M20.2735 20.0202C20.2735 18.0596 21.8408 16.4703 23.7741 16.4703L24.0604 16.4703C25.9938 16.4703 27.5611 18.0596 27.5611 20.0202L27.5611 24.9072C27.5611 26.8678 25.9938 28.4572 24.0604 28.4572L23.7741 28.4572C21.8408 28.4572 20.2735 26.8678 20.2735 24.9073L20.2735 20.0202ZM23.7741 17.9873C22.667 17.9873 21.7695 18.8975 21.7695 20.0202L21.7695 24.9073C21.7695 26.03 22.667 26.9401 23.7741 26.9401L24.0604 26.9401C25.1676 26.9401 26.0651 26.03 26.0651 24.9072L26.0651 20.0202C26.0651 18.8975 25.1676 17.9873 24.0604 17.9873L23.7741 17.9873Z" fill="#3C83D7"/>
<path fill-rule="evenodd" clip-rule="evenodd" d="M17.3828 16.263C17.3828 14.3024 18.9501 12.713 20.8835 12.713L21.1698 12.713C23.1031 12.713 24.6704 14.3024 24.6704 16.2629L24.6704 21.15C24.6704 23.1106 23.1031 24.6999 21.1698 24.6999L20.8835 24.6999C18.9501 24.6999 17.3828 23.1106 17.3828 21.15L17.3828 16.263ZM20.8835 14.2301C19.7763 14.2301 18.8788 15.1402 18.8788 16.263L18.8788 21.15C18.8788 22.2727 19.7763 23.1829 20.8835 23.1829L21.1698 23.1829C22.2769 23.1829 23.1744 22.2727 23.1744 21.15L23.1744 16.2629C23.1744 15.1402 22.2769 14.2301 21.1698 14.2301L20.8835 14.2301Z" fill="#3C83D7"/>
<path d="M32.3701 11.9271C32.5997 10.108 32.7783 8.52056 32.9059 7.1734C29.4954 6.53843 26.0083 6.21237 22.4957 6.21237C17.4353 6.21237 12.4428 6.88166 7.62899 8.20307C7.57796 9.36146 6.6254 10.2967 5.45171 10.2967C4.244 10.2967 3.26592 9.30998 3.26592 8.09153C3.26592 6.87308 4.244 5.88631 5.45171 5.88631C6.19165 5.88631 6.83803 6.25527 7.23776 6.82159C12.1877 5.46586 17.3077 4.77941 22.5043 4.77941C26.0593 4.77941 29.5804 5.10547 33.042 5.74044C33.2886 2.73722 33.2886 1.22703 33.2886 1.20987V0.935288C29.776 0.317483 26.1784 0 22.5043 0C14.6031 0 7.05065 1.46729 0.0935551 4.15302C0.03402 5.13979 0 6.14373 0 7.14766C0 10.2367 0.28917 13.2656 0.841996 16.2002C0.986581 16.123 5.63032 13.5316 11.2351 12.2274C14.9093 11.4122 18.6855 10.9918 22.5043 10.9918C25.8382 10.9832 29.1382 11.3007 32.3701 11.9271Z" fill="#3C83D7"/>
<path d="M27.139 36.2874C29.5969 33.7304 31.7232 30.8816 33.4582 27.784C36.486 22.404 38.2891 16.3375 38.7313 10.1337C37.9233 9.80763 37.362 9.01821 37.362 8.09151C37.362 6.87306 38.3401 5.88629 39.5478 5.88629C40.7555 5.88629 41.7336 6.87306 41.7336 8.09151C41.7336 9.09544 41.0702 9.93634 40.1602 10.2023C39.7094 16.6292 37.8468 22.9188 34.7084 28.4876C32.9479 31.6196 30.8132 34.5027 28.3382 37.1026C30.507 38.5184 32.1314 39.1963 32.1654 39.2048L32.6757 39.4108C40.3388 30.8816 45.008 19.5552 45.008 7.13906C45.008 6.13513 44.974 5.13977 44.9145 4.153C41.64 2.88307 38.221 1.8963 34.7084 1.19269C34.7084 1.19269 34.734 4.77939 33.7729 12.2188C33.135 16.8695 31.6381 21.3657 29.3503 25.4244C27.7684 28.2388 25.7867 30.8645 23.5159 33.1898C24.7236 34.4254 25.9823 35.4465 27.139 36.2874Z" fill="#3C83D7"/>
<path d="M15.658 25.433C13.6083 21.7862 12.188 17.7876 11.465 13.6432C9.83207 14.0293 8.28416 14.527 6.90634 15.0418C7.75684 19.5381 9.30476 23.8112 11.5416 27.7926C14.0335 32.2288 17.393 36.2445 21.3223 39.5138C21.6625 39.2907 22.0708 39.162 22.5045 39.162C23.7122 39.162 24.6903 40.1487 24.6903 41.3672C24.6903 42.5856 23.7122 43.5724 22.5045 43.5724C21.2968 43.5724 20.3187 42.5856 20.3187 41.3672C20.3187 41.1183 20.3613 40.8695 20.4378 40.6464C16.3639 37.2656 12.8854 33.104 10.2998 28.5048C8.02901 24.4548 6.43857 20.113 5.55405 15.5652C3.15564 16.552 1.5652 17.4358 1.53968 17.4444L1.14845 17.6589C3.97212 30.4355 11.8222 41.2899 22.5045 48C25.847 45.8977 28.9173 43.3922 31.6304 40.5434C31.4773 40.4834 26.723 38.4841 22.5045 34.2024C19.7999 31.6368 17.4696 28.6593 15.658 25.433Z" fill="#3C83D7"/>
</g>
<defs>
<clipPath id="clip0_1002_9844">
<rect width="194" height="20" fill="white" transform="translate(57 14)"/>
</clipPath>
<clipPath id="clip1_1002_9844">
<rect width="45" height="48" fill="white"/>
</clipPath>
</defs>
</svg>
