<svg width="64" height="64" viewBox="0 0 64 64" fill="none" xmlns="http://www.w3.org/2000/svg">
<path d="M58.1226 13.6788C54.2752 8.29609 48.9665 4.22673 42.7515 1.96083C36.5827 -0.295816 29.6185 -0.499284 23.311 1.29494C17.1977 3.02442 11.5561 6.6406 7.51449 11.5608C5.34108 14.1967 3.6486 17.0545 2.3538 20.2175C1.096 23.2418 0.411604 26.4788 0.161893 29.7527C-0.337529 36.2637 1.28097 42.9597 4.67519 48.5366C7.94918 53.9285 12.8694 58.4048 18.622 61.0036C21.8035 62.4464 25.0867 63.3435 28.555 63.7504C31.8844 64.1389 35.2694 63.9354 38.5619 63.2695C44.7954 62.0025 50.6498 58.7192 55.0428 54.1227C59.4544 49.5077 62.5157 43.5331 63.4867 37.2071C63.755 35.4868 63.9214 33.7574 63.9214 32.0186C63.9122 25.5169 61.9145 18.9874 58.1226 13.6788ZM58.4555 35.6163C58.1133 37.9377 57.4937 40.2129 56.6058 42.3955C55.681 44.5042 54.5156 46.4926 53.1376 48.3331C51.7133 50.1273 50.0948 51.7458 48.3006 53.1701C46.4602 54.5481 44.4717 55.7134 42.363 56.6383C40.1896 57.5262 37.9145 58.1458 35.5931 58.488C33.207 58.7747 30.7931 58.7747 28.407 58.488C26.0856 58.1458 23.8104 57.5262 21.6278 56.6383C19.5191 55.7134 17.5307 54.5481 15.6902 53.1701C13.896 51.7458 12.2775 50.1273 10.8532 48.3331C9.47519 46.4926 8.30987 44.5042 7.38501 42.3955C6.49715 40.2221 5.8775 37.947 5.5353 35.6256C5.2486 33.2394 5.2486 30.8256 5.5353 28.4394C5.8775 26.1181 6.49715 23.8429 7.38501 21.6603C8.30987 19.5516 9.47519 17.5631 10.8532 15.7227C12.2775 13.9285 13.896 12.31 15.6902 10.8857C17.5307 9.50765 19.5191 8.34233 21.6278 7.41748C23.8012 6.52962 26.0763 5.90997 28.3977 5.56777C30.7839 5.28106 33.1977 5.28106 35.5839 5.56777C37.9052 5.90997 40.1804 6.52962 42.3538 7.41748C44.4625 8.34233 46.4509 9.50765 48.2914 10.8857C50.0856 12.31 51.7041 13.9285 53.1284 15.7227C54.5064 17.5631 55.6717 19.5516 56.5966 21.6603C57.4844 23.8337 58.1041 26.1088 58.4463 28.4394C58.5943 29.6325 58.659 30.8348 58.6682 32.0279C58.6682 33.2209 58.6035 34.4233 58.4555 35.6163Z" fill="#3CB65E"/>
<path d="M45.4335 21.9379C44.3884 20.976 42.7607 20.902 41.7156 21.9379C39.8566 23.7968 38.0069 25.6465 36.148 27.5055C33.1884 30.465 30.2381 33.4153 27.2786 36.3749C27.2231 36.4304 27.1676 36.4858 27.1029 36.5506C25.7711 35.2188 24.4393 33.887 23.1075 32.5552C22.8301 32.2778 22.5433 31.991 22.2659 31.7136C21.2948 30.7425 19.5098 30.6685 18.548 31.7136C17.5861 32.7587 17.5121 34.3864 18.548 35.4315C20.4994 37.383 22.4509 39.3344 24.3931 41.2858C24.6705 41.5633 24.9572 41.85 25.2347 42.1275C26.2335 43.1356 27.9445 43.1356 28.9526 42.1275C30.8116 40.2685 32.6613 38.4188 34.5202 36.5598C37.4798 33.6003 40.4301 30.65 43.3896 27.6905C44.0647 27.0153 44.7399 26.3402 45.4243 25.6558C46.4046 24.6754 46.4786 22.8997 45.4335 21.9379Z" fill="#3CB65E"/>
</svg>
