<svg width="249" height="138" viewBox="0 0 249 138" fill="none" xmlns="http://www.w3.org/2000/svg">
<path d="M101.109 11.186C101.109 11.186 81.3885 -1.55403 64.1655 4.75292C46.9322 11.0494 52.9051 21.8973 42.1394 27.1005C31.384 32.2933 24.0835 28.6361 14.1968 42.9211C7.57332 52.4911 15.1275 67.5912 22.6542 76.9149C30.6334 86.7958 37.2758 90.6746 24.0835 96.8239C6.77573 110.415 38.6581 126.806 61.1972 132.577C83.7362 138.348 123.04 134.801 135.903 135.096C148.766 135.39 195.245 140.836 219.604 115.913C243.952 90.9899 232.868 80.5678 219.604 71.0233C206.35 61.4682 204.241 51.924 210.667 35.4419C213.834 22.8497 200.607 3.51874 178.451 11.186C154.873 17.9029 130.075 28.7404 101.109 11.186Z" fill="#FEFEFE"/>
<path d="M126.653 138C189.973 138 241.304 134.448 241.304 130.066C241.304 125.685 189.973 122.133 126.653 122.133C63.3335 122.133 12.0024 125.685 12.0024 130.066C12.0024 134.448 63.3335 138 126.653 138Z" fill="#81BBFF"/>
<path d="M86.7811 109.641C86.7811 109.641 67.2364 72.1767 44.5631 54.2196C43.0376 53.0087 41.1947 53.9792 41.317 55.9317C42.1439 68.9612 47.8631 107.832 86.7811 109.641Z" fill="#3C83D7"/>
<path d="M82.7217 107.793C82.8289 107.873 82.7657 108.036 82.6501 107.978C78.4188 105.74 61.1414 93.9852 47.7657 66.2344C47.7256 66.1435 47.828 66.0896 47.8723 66.1696C51.5002 72.4949 65.4935 95.7009 82.7217 107.793Z" fill="#DDEBFF"/>
<path d="M167.477 107.741C167.477 107.741 191.259 62.2294 218.822 40.4167C220.676 38.9458 222.914 40.125 222.764 42.497C221.746 58.3261 214.76 105.548 167.477 107.741Z" fill="#3C83D7"/>
<path d="M172.411 105.496C172.28 105.593 172.357 105.791 172.497 105.721C177.64 103.002 198.642 88.724 214.918 55.0124C214.967 54.902 214.843 54.8365 214.789 54.9337C210.375 62.6175 193.353 90.8078 172.411 105.496Z" fill="#DDEBFF"/>
<path d="M17.3001 82.0022C25.1284 81.5435 70.8016 80.7209 79.4465 123.331C79.4465 123.331 49.5573 131.591 16.7864 83.0302C16.5051 82.6023 16.7915 82.032 17.3001 82.0022Z" fill="#81BBFF"/>
<path d="M23.9429 86.2168C28.674 87.8997 33.3551 89.7208 37.9854 91.6283C42.6245 93.5444 47.2215 95.5555 51.7515 97.7219C56.2899 99.8797 60.7698 102.184 65.1058 104.722C67.2867 105.987 69.4167 107.321 71.4959 108.741C73.5752 110.161 75.5952 111.677 77.5136 113.348C77.7142 113.527 77.735 113.82 77.5562 114.019C77.3775 114.218 77.0844 114.238 76.8838 114.059C75.0346 112.404 73.0406 110.897 71.0043 109.468C68.9596 108.047 66.8552 106.687 64.7088 105.423C60.4156 102.858 55.9786 100.528 51.4742 98.3351C46.9698 96.1426 42.4066 94.0796 37.7844 92.129C33.1709 90.187 28.5153 88.3227 23.8095 86.5964C23.7056 86.5628 23.6523 86.4428 23.6856 86.3393C23.7188 86.2358 23.839 86.1832 23.9429 86.2168Z" fill="#DDEBFF"/>
<path d="M234.688 65.8304C227.088 67.7529 183.308 80.7364 187.917 123.957C187.917 123.957 218.896 122.82 235.488 66.6554C235.627 66.1627 235.182 65.7055 234.688 65.8304Z" fill="#81BBFF"/>
<path d="M229.626 71.85C225.624 74.8802 221.712 78.027 217.874 81.2408C214.03 84.4655 210.255 87.768 206.591 91.1984C202.916 94.6231 199.341 98.17 195.974 101.896C194.277 103.759 192.649 105.672 191.095 107.653C189.542 109.633 188.074 111.687 186.749 113.858C186.612 114.089 186.68 114.374 186.911 114.51C187.141 114.646 187.427 114.576 187.564 114.345C188.827 112.211 190.273 110.173 191.783 108.197C193.304 106.227 194.899 104.296 196.563 102.444C199.882 98.7057 203.408 95.1468 207.04 91.6992C210.672 88.2517 214.399 84.91 218.216 81.6575C222.028 78.4158 225.903 75.2355 229.867 72.1717C229.956 72.1083 229.971 71.9779 229.908 71.8892C229.845 71.8006 229.714 71.7867 229.626 71.85Z" fill="#DDEBFF"/>
<path d="M188.981 124.165H74.3668C72.6453 124.165 71.2402 122.764 71.2402 121.047V37.6552C71.2402 35.9385 72.6453 34.5374 74.3668 34.5374H188.981C190.702 34.5374 192.107 35.9385 192.107 37.6552V121.047C192.107 122.764 190.702 124.165 188.981 124.165Z" fill="#00417C"/>
<path d="M189.381 37.6645H73.9668V123.246H189.381V37.6645Z" fill="white"/>
<path d="M204.046 120.685H59.3015V126.42H204.046V120.685Z" fill="#00417C"/>
<path d="M186.101 39.4832H77.2373C76.685 39.4832 76.2373 39.9309 76.2373 40.4832V117.115C76.2373 117.667 76.685 118.115 77.2373 118.115H186.101C186.653 118.115 187.101 117.667 187.101 117.115V40.4832C187.101 39.9309 186.653 39.4832 186.101 39.4832Z" fill="#DDEBFF"/>
<path d="M88.7005 43.1535C88.6657 43.1535 88.6367 43.1477 88.6077 43.1303C88.5148 43.0782 88.4799 42.9567 88.5322 42.8641C88.6599 42.6384 88.7818 42.4128 88.8979 42.1813C88.9502 42.0829 89.0663 42.0482 89.1592 42.1003C89.2579 42.1523 89.2927 42.2681 89.2405 42.3607C89.1186 42.5921 88.9966 42.8236 88.8689 43.0551C88.8399 43.1187 88.7702 43.1535 88.7005 43.1535Z" fill="#81BBFF"/>
<path d="M65.8371 56.5672C65.7209 56.5672 65.6048 56.5672 65.4887 56.5672C65.3784 56.5672 65.2971 56.4746 65.2971 56.3704C65.2971 56.2663 65.3842 56.1795 65.4945 56.1795C65.9996 56.1852 66.5105 56.1795 67.0156 56.1563C67.1143 56.1505 67.213 56.2373 67.2189 56.3415C67.2247 56.4514 67.1376 56.5382 67.0331 56.544C66.6383 56.5614 66.2377 56.5672 65.8371 56.5672ZM63.0096 56.4167C63.0038 56.4167 62.998 56.4167 62.9864 56.4167C62.4755 56.3588 61.9587 56.2894 61.4594 56.2084C61.3549 56.191 61.2795 56.0927 61.2969 55.9827C61.3143 55.8785 61.4188 55.8033 61.5233 55.8207C62.0226 55.9017 62.5277 55.9711 63.0328 56.029C63.1373 56.0406 63.2186 56.1389 63.207 56.2431C63.1896 56.3415 63.1083 56.4167 63.0096 56.4167ZM69.5064 56.3126C69.4077 56.3126 69.3264 56.2431 69.3148 56.1447C69.2973 56.0406 69.3728 55.9422 69.4831 55.9248C69.9824 55.8554 70.4875 55.7686 70.981 55.6702C71.0856 55.6471 71.1901 55.7165 71.2133 55.8207C71.2365 55.9248 71.1668 56.029 71.0623 56.0521C70.5572 56.1505 70.0463 56.2373 69.5412 56.3126C69.5238 56.3126 69.5122 56.3126 69.5064 56.3126ZM59.0558 55.6818C59.0384 55.6818 59.021 55.6818 59.0036 55.676C58.5101 55.5429 58.0108 55.3982 57.5231 55.2362C57.4186 55.2015 57.3663 55.0915 57.4012 54.9874C57.436 54.8832 57.5463 54.8311 57.6508 54.8659C58.1327 55.0221 58.6204 55.1726 59.1081 55.2999C59.2126 55.3288 59.2764 55.433 59.2474 55.5371C59.2242 55.6239 59.1429 55.6818 59.0558 55.6818ZM73.4311 55.4503C73.3498 55.4503 73.2686 55.3982 73.2453 55.3114C73.2163 55.2073 73.2744 55.0973 73.3731 55.0684C73.8549 54.9237 74.3426 54.7617 74.8129 54.5881C74.9116 54.5534 75.0277 54.5997 75.0626 54.7038C75.0974 54.8022 75.051 54.9179 74.9464 54.9527C74.4646 55.1263 73.9711 55.2941 73.4834 55.4445C73.4718 55.4445 73.4485 55.4503 73.4311 55.4503ZM55.2646 54.3508C55.2356 54.3508 55.2123 54.3451 55.1833 54.3335C54.713 54.1252 54.2428 53.9053 53.7899 53.6738C53.6912 53.6275 53.6564 53.506 53.7028 53.4134C53.7551 53.3208 53.8712 53.2803 53.9641 53.3266C54.4111 53.5581 54.8756 53.7779 55.3343 53.9805C55.433 54.021 55.4794 54.1367 55.433 54.2351C55.4097 54.3103 55.3401 54.3508 55.2646 54.3508ZM77.1759 53.9921C77.1004 53.9921 77.0308 53.9516 77.0017 53.8821C76.9553 53.7837 76.9959 53.668 77.0946 53.6217C77.5475 53.4018 78.0061 53.1703 78.4474 52.9215C78.5403 52.8694 78.6622 52.9041 78.7144 52.9967C78.7667 53.0893 78.7319 53.2108 78.639 53.2629C78.1919 53.5118 77.7275 53.749 77.2688 53.9747C77.234 53.9863 77.2049 53.9921 77.1759 53.9921ZM51.723 52.4586C51.6882 52.4586 51.6475 52.447 51.6185 52.4296C51.1889 52.1519 50.7593 51.8625 50.347 51.5616C50.26 51.498 50.2425 51.3764 50.3064 51.2896C50.3703 51.2028 50.4922 51.1855 50.5793 51.2491C50.9857 51.5443 51.4095 51.8336 51.8333 52.1056C51.9262 52.1634 51.9495 52.285 51.8914 52.3776C51.8508 52.4296 51.7869 52.4586 51.723 52.4586ZM80.6536 51.9783C80.5897 51.9783 80.5317 51.9493 80.491 51.8915C80.4272 51.8047 80.4504 51.6831 80.5433 51.6195C80.9613 51.3359 81.3735 51.0292 81.7683 50.7225C81.8554 50.6589 81.9773 50.6705 82.0412 50.7573C82.1051 50.8441 82.0935 50.9656 82.0064 51.0292C81.6 51.3417 81.1819 51.6484 80.7581 51.9378C80.7291 51.9667 80.6942 51.9783 80.6536 51.9783ZM48.5182 50.0455C48.4718 50.0455 48.4253 50.0281 48.3905 49.9992C48.0073 49.6636 47.6299 49.3048 47.2641 48.946C47.1887 48.8708 47.1887 48.7492 47.2641 48.6682C47.3396 48.593 47.4615 48.593 47.5428 48.6682C47.9028 49.0212 48.2743 49.3742 48.6517 49.7041C48.733 49.7735 48.7388 49.9008 48.6692 49.9818C48.6285 50.0223 48.5763 50.0455 48.5182 50.0455ZM83.783 49.461C83.7307 49.461 83.6785 49.4379 83.6436 49.3974C83.5681 49.3164 83.5739 49.1948 83.6494 49.1196C84.0152 48.7724 84.381 48.4136 84.7235 48.0491C84.799 47.9738 84.9209 47.968 85.0022 48.0433C85.0835 48.1185 85.0835 48.24 85.008 48.321C84.6538 48.6914 84.2881 49.056 83.9165 49.4089C83.8759 49.4437 83.8294 49.461 83.783 49.461ZM45.7198 47.1695C45.6617 47.1695 45.6095 47.1463 45.5688 47.1C45.2437 46.7065 44.9186 46.3014 44.6167 45.8906C44.5528 45.8038 44.5702 45.6823 44.6573 45.6186C44.7444 45.555 44.8663 45.5723 44.9302 45.6591C45.2321 46.0642 45.5456 46.4635 45.8707 46.8512C45.9404 46.9322 45.9288 47.0595 45.8475 47.1232C45.8069 47.1521 45.7662 47.1695 45.7198 47.1695ZM86.4827 46.4982C86.442 46.4982 86.4014 46.4866 86.3608 46.4577C86.2737 46.394 86.2621 46.2667 86.3259 46.1857C86.6394 45.7864 86.9413 45.3756 87.2258 44.9647C87.2897 44.8779 87.4116 44.8548 87.4987 44.9126C87.5858 44.9763 87.609 45.0978 87.551 45.1846C87.2607 45.6013 86.953 46.0237 86.6394 46.4288C86.5988 46.4693 86.5465 46.4982 86.4827 46.4982ZM43.3916 43.8999C43.3278 43.8999 43.2581 43.8652 43.2233 43.8074C42.9562 43.3676 42.7065 42.9162 42.4685 42.4648C42.4162 42.3722 42.4569 42.2507 42.5498 42.2044C42.6427 42.1523 42.7646 42.1928 42.811 42.2854C43.0433 42.731 43.2929 43.1766 43.5542 43.6048C43.6123 43.6974 43.5774 43.8189 43.4845 43.871C43.4613 43.8942 43.4265 43.8999 43.3916 43.8999ZM41.5976 40.3179C41.5221 40.3179 41.4467 40.2716 41.4176 40.1964C41.226 39.7219 41.0403 39.2358 40.8777 38.7555C40.8429 38.6513 40.8951 38.5414 40.9996 38.5067C41.0983 38.472 41.2144 38.524 41.2493 38.6282C41.4118 39.1027 41.5918 39.583 41.7776 40.0517C41.8182 40.1501 41.7718 40.2659 41.6673 40.3064C41.6441 40.3121 41.6208 40.3179 41.5976 40.3179Z" fill="#81BBFF"/>
<path d="M40.3727 36.4871C40.2856 36.4871 40.2044 36.4293 40.1811 36.3367C40.1231 36.0821 40.065 35.8274 40.0128 35.5728C39.9896 35.4687 40.0592 35.3645 40.1637 35.3414C40.2682 35.3182 40.3727 35.3876 40.396 35.4918C40.4482 35.7464 40.5005 35.9953 40.5643 36.2441C40.5876 36.3483 40.5237 36.4524 40.4192 36.4756C40.4018 36.4871 40.3843 36.4871 40.3727 36.4871Z" fill="#81BBFF"/>
<path d="M43.6879 16.6211C43.6531 16.6211 43.6183 16.6096 43.5834 16.5922C43.4905 16.5343 43.4673 16.4128 43.5196 16.326C43.6589 16.1061 43.8041 15.8862 43.9492 15.6663C44.0073 15.5795 44.1292 15.5506 44.2221 15.6142C44.3092 15.6721 44.3382 15.7936 44.2743 15.8862C44.1292 16.1003 43.9898 16.3144 43.8505 16.5343C43.8157 16.5922 43.7518 16.6211 43.6879 16.6211Z" fill="#81BBFF"/>
<path d="M90.9244 23.1486C90.8373 23.1486 90.7619 23.0908 90.7386 23.0097C90.5877 22.5005 90.4193 21.9913 90.2393 21.4936C90.2045 21.3952 90.2568 21.2795 90.3555 21.2448C90.4542 21.2101 90.5703 21.2621 90.6051 21.3605C90.7909 21.864 90.9593 22.3848 91.1102 22.8998C91.1393 23.0039 91.0812 23.1139 90.9767 23.1428C90.9651 23.1428 90.9419 23.1486 90.9244 23.1486ZM89.4091 19.2136C89.3336 19.2136 89.264 19.1731 89.2349 19.1037C89.0027 18.6234 88.7589 18.1489 88.4976 17.6917C88.4453 17.5991 88.4802 17.4776 88.5731 17.4255C88.666 17.3734 88.7879 17.4081 88.8401 17.5007C89.1014 17.9695 89.3569 18.4498 89.5891 18.9359C89.6355 19.0342 89.5949 19.15 89.4962 19.1963C89.4672 19.2078 89.4381 19.2136 89.4091 19.2136ZM87.2784 15.5795C87.2145 15.5795 87.1564 15.5506 87.1158 15.4985C86.8139 15.0645 86.4888 14.6363 86.1578 14.2196C86.0882 14.1328 86.1056 14.0113 86.1869 13.9477C86.2739 13.8782 86.3959 13.8956 86.4597 13.9766C86.7965 14.399 87.1216 14.833 87.4293 15.2728C87.4932 15.3596 87.47 15.4812 87.3829 15.5448C87.3538 15.568 87.3132 15.5795 87.2784 15.5795ZM45.6794 13.8782C45.633 13.8782 45.5923 13.8609 45.5575 13.8319C45.4762 13.7625 45.4646 13.641 45.5343 13.5599C45.8768 13.1491 46.2368 12.7382 46.6084 12.3447C46.6838 12.2637 46.8057 12.2637 46.887 12.3332C46.9683 12.4084 46.9683 12.5299 46.8986 12.6109C46.5329 12.9986 46.1787 13.3979 45.842 13.803C45.7955 13.8551 45.7375 13.8782 45.6794 13.8782ZM84.5844 12.3332C84.5322 12.3332 84.4799 12.3158 84.4451 12.2753C84.0793 11.8991 83.6903 11.523 83.2955 11.1642C83.2143 11.089 83.2085 10.9675 83.2839 10.8865C83.3594 10.8054 83.4813 10.7997 83.5626 10.8749C83.9632 11.2395 84.3522 11.6156 84.7296 12.0033C84.8051 12.0785 84.8051 12.2058 84.7238 12.2811C84.6831 12.3158 84.6309 12.3332 84.5844 12.3332ZM48.6346 10.8633C48.5823 10.8633 48.5243 10.8402 48.4895 10.7939C48.4198 10.7129 48.4256 10.5913 48.5069 10.5161C48.9133 10.1631 49.3371 9.81591 49.7609 9.48607C49.848 9.42241 49.9699 9.43399 50.0338 9.52079C50.0977 9.60759 50.0861 9.72911 49.999 9.79277C49.581 10.1168 49.1629 10.4582 48.7623 10.8054C48.7217 10.846 48.6752 10.8633 48.6346 10.8633ZM81.4086 9.55551C81.368 9.55551 81.3274 9.54394 81.2925 9.515C80.8687 9.19673 80.4274 8.89582 79.9804 8.60648C79.8875 8.54861 79.8643 8.42709 79.9223 8.3345C79.9804 8.24191 80.1023 8.21877 80.1952 8.27663C80.6481 8.57176 81.0951 8.87846 81.5248 9.20252C81.6119 9.26617 81.6293 9.38769 81.5654 9.47449C81.5248 9.53236 81.4667 9.55551 81.4086 9.55551ZM52.031 8.35765C51.9672 8.35765 51.9033 8.32293 51.8627 8.26506C51.8046 8.17247 51.8336 8.05095 51.9265 7.99887C52.3852 7.71532 52.8554 7.44334 53.3315 7.18872C53.4244 7.13664 53.5464 7.17136 53.5986 7.26974C53.6509 7.36232 53.616 7.48385 53.5173 7.53593C53.047 7.78476 52.5826 8.05674 52.1355 8.3345C52.1007 8.34607 52.0659 8.35765 52.031 8.35765ZM77.8206 7.3276C77.7916 7.3276 77.7626 7.32182 77.7335 7.30446C77.2633 7.06141 76.7756 6.82994 76.2879 6.61583C76.1892 6.57533 76.1427 6.45959 76.1892 6.36121C76.2298 6.26284 76.3459 6.21655 76.4446 6.26284C76.9381 6.47695 77.4316 6.71421 77.9077 6.95725C78.0064 7.00933 78.0412 7.12507 77.989 7.21766C77.96 7.29288 77.8961 7.3276 77.8206 7.3276ZM55.7874 6.42487C55.7119 6.42487 55.6365 6.37857 55.6074 6.30335C55.5668 6.20497 55.6132 6.08924 55.7119 6.04873C56.2112 5.84041 56.7163 5.64944 57.2273 5.47584C57.3318 5.44112 57.4421 5.4932 57.4769 5.59736C57.5117 5.70152 57.4595 5.81147 57.355 5.84619C56.8499 6.0198 56.3506 6.21076 55.8571 6.4133C55.8397 6.42487 55.8106 6.42487 55.7874 6.42487ZM73.9249 5.70731C73.9075 5.70731 73.8843 5.70152 73.8668 5.69574C73.3617 5.53371 72.845 5.38325 72.3341 5.25016C72.2296 5.22122 72.1657 5.11706 72.1948 5.0129C72.2238 4.90874 72.3283 4.84508 72.4328 4.87402C72.9553 5.00711 73.4778 5.15757 73.9888 5.32538C74.0933 5.3601 74.1455 5.47005 74.1165 5.56843C74.0817 5.65523 74.0062 5.70731 73.9249 5.70731ZM59.8051 5.12863C59.718 5.12863 59.6367 5.07077 59.6135 4.97818C59.5902 4.87402 59.6541 4.76985 59.7586 4.74092C60.2869 4.6194 60.8211 4.50945 61.3494 4.41686C61.4597 4.3995 61.5584 4.46894 61.5758 4.5731C61.5933 4.67727 61.5236 4.78143 61.4191 4.79879C60.8966 4.88559 60.3682 4.99554 59.8515 5.11706C59.8399 5.12863 59.8225 5.12863 59.8051 5.12863ZM69.8144 4.74092C69.8027 4.74092 69.7969 4.74092 69.7853 4.74092C69.2628 4.65991 68.7287 4.59625 68.2003 4.54996C68.09 4.53838 68.0145 4.4458 68.0262 4.33585C68.0378 4.2259 68.1307 4.15067 68.241 4.16224C68.7751 4.20854 69.3209 4.27798 69.855 4.35899C69.9595 4.37635 70.035 4.47473 70.0176 4.57889C69.9885 4.67148 69.9072 4.74092 69.8144 4.74092ZM63.9853 4.49788C63.8808 4.49788 63.7995 4.41686 63.7879 4.31849C63.7821 4.20854 63.8634 4.11595 63.9679 4.11016C64.502 4.06966 65.0477 4.0523 65.5877 4.04651C65.6922 4.04651 65.7851 4.13331 65.7851 4.23747C65.7851 4.34742 65.698 4.43422 65.5935 4.43422C65.0594 4.44001 64.5252 4.45737 63.9969 4.49788C63.9969 4.49788 63.9911 4.49788 63.9853 4.49788Z" fill="#81BBFF"/>
<path d="M91.6674 26.4644C91.5745 26.4644 91.4874 26.395 91.4758 26.3024C91.4352 26.0478 91.3945 25.7932 91.3423 25.5385C91.3248 25.4344 91.3945 25.3302 91.499 25.3129C91.6035 25.2955 91.708 25.3649 91.7255 25.4691C91.7719 25.7237 91.8183 25.9841 91.859 26.2445C91.8764 26.3487 91.8009 26.4528 91.6964 26.4644C91.6906 26.4644 91.679 26.4644 91.6674 26.4644Z" fill="#81BBFF"/>
<path d="M85.9349 30.7388C85.9465 30.6057 85.871 30.4784 85.7491 30.4263L82.2423 28.9102C81.9695 27.151 81.4179 25.4265 80.5761 23.8005L82.5094 20.5194C82.5791 20.4036 82.5617 20.259 82.4746 20.1548L79.4962 16.6827C79.4091 16.5786 79.2697 16.5438 79.142 16.5959L75.5888 17.9905C74.1083 16.9084 72.4827 16.0925 70.7816 15.5543L69.8178 11.8681C69.783 11.7408 69.6727 11.6425 69.5391 11.6367L64.9699 11.2837C64.8364 11.2721 64.7087 11.3473 64.6564 11.4689L63.1353 14.9641C61.3703 15.236 59.6401 15.7858 58.0087 16.6249L54.7168 14.6979C54.6007 14.6284 54.4555 14.6458 54.351 14.7326L50.8675 17.7012C50.763 17.788 50.7282 17.9269 50.7804 18.0542L52.1796 21.5957C51.0939 23.0713 50.2753 24.6916 49.7354 26.3871L46.037 27.3477C45.9093 27.3825 45.8164 27.4924 45.8048 27.6255L45.4506 32.1797C45.439 32.3128 45.5145 32.4401 45.6364 32.4922L49.1432 34.0083C49.416 35.7675 49.9676 37.4919 50.8094 39.118L48.8761 42.3991C48.8064 42.5148 48.8238 42.6595 48.9109 42.7637L51.8893 46.2357C51.9764 46.3399 52.1158 46.3746 52.2435 46.3225L55.7967 44.9279C57.2772 46.0101 58.9028 46.826 60.6039 47.3642L61.5677 51.0503C61.6025 51.1776 61.7128 51.276 61.8464 51.2818L66.4156 51.6348C66.5491 51.6464 66.6768 51.5711 66.7291 51.4496L68.2502 47.9544C70.0152 47.6824 71.7453 47.1327 73.3768 46.2936L76.6687 48.2206C76.7848 48.29 76.93 48.2727 77.0345 48.1859L80.518 45.2173C80.6225 45.1305 80.6573 44.9916 80.6051 44.8643L79.2059 41.3228C80.2916 39.8471 81.1102 38.2269 81.6501 36.5313L85.3485 35.5707C85.4762 35.536 85.5749 35.4261 85.5807 35.293L85.9349 30.7388Z" fill="#81BBFF"/>
<path opacity="0.7" d="M65.684 35.808C64.7899 35.808 63.919 35.536 63.1759 35.0094C61.2135 33.6264 60.7432 30.9066 62.1367 28.9507C62.8101 28.0016 63.8145 27.3709 64.9641 27.1741C66.1137 26.9774 67.269 27.2378 68.2212 27.909C69.1733 28.5803 69.8062 29.5814 70.0036 30.7272C70.201 31.873 69.9397 33.0245 69.2662 33.9736C68.5928 34.9226 67.5883 35.5534 66.4388 35.7501C66.1833 35.7848 65.9337 35.808 65.684 35.808ZM65.7014 27.6949C65.4866 27.6949 65.2718 27.7123 65.057 27.7528C64.0642 27.9206 63.1933 28.4704 62.6127 29.2863C61.4109 30.9818 61.8115 33.3312 63.5126 34.5349C64.3371 35.1136 65.3357 35.3393 66.3285 35.1714C67.3213 35.0036 68.1922 34.4539 68.7727 33.6379C69.3533 32.8162 69.5798 31.8209 69.4114 30.8314C69.243 29.8418 68.6915 28.9738 67.8728 28.3951C67.2342 27.9322 66.4794 27.6949 65.7014 27.6949Z" fill="white"/>
<path opacity="0.7" d="M65.6142 42.7753C65.3181 42.7753 65.0161 42.7637 64.7142 42.7405C61.6894 42.5033 58.9432 41.1145 56.9692 38.8171C55.1926 36.7512 54.2405 34.1761 54.2405 31.4795C54.2405 31.1844 54.2521 30.8835 54.2753 30.5826C54.5134 27.5676 55.9068 24.8305 58.2117 22.863C60.5166 20.9013 63.4486 19.9465 66.4734 20.1837C69.4983 20.421 72.2444 21.8098 74.2184 24.1072C74.7468 24.7206 75.2054 25.386 75.5886 26.092L75.0719 26.3698C74.7119 25.7043 74.2707 25.0678 73.7714 24.4891C71.9019 22.3133 69.2951 20.9881 66.427 20.7682C63.5589 20.5483 60.7779 21.451 58.5949 23.3144C56.4119 25.1777 55.0823 27.776 54.8617 30.6346C54.8385 30.9182 54.8269 31.2017 54.8269 31.4853C54.8269 34.0372 55.7268 36.4793 57.4105 38.441C59.28 40.6168 61.8868 41.942 64.7549 42.1619C67.623 42.3818 70.404 41.479 72.587 39.6157C74.0675 38.3542 75.1822 36.7107 75.7976 34.8763L76.355 35.0615C75.7047 36.9943 74.5377 38.7245 72.9702 40.0555C70.9033 41.8262 68.3197 42.7753 65.6142 42.7753Z" fill="white"/>
<path d="M175.274 47.8715C175.274 47.8715 174.92 50.3491 175.804 51.5925C176.688 52.8359 178.531 54.5989 178.056 55.0721C177.581 55.5454 172.315 52.8915 172.436 52.2977C172.557 51.7038 173.385 49.2912 173.208 47.8715H175.274Z" fill="#F9FAFB"/>
<path d="M172.752 51.1007C172.603 51.6481 172.473 52.0935 172.436 52.2977C172.315 52.8916 177.581 55.5454 178.056 55.0721C178.41 54.7195 177.488 53.6617 176.632 52.6225C176.148 52.9287 174.92 53.2534 172.752 51.1007Z" fill="#00417C"/>
<path d="M170.081 48.2705C170.081 48.2705 169.728 50.7481 170.612 51.9915C171.496 53.2349 173.338 54.9979 172.864 55.4711C172.389 55.9444 167.122 53.2905 167.243 52.6967C167.364 52.1028 168.192 49.6902 168.016 48.2705H170.081Z" fill="#F9FAFB"/>
<path d="M169.355 5.11315C170.537 6.07818 171.133 7.71132 170.826 9.20526C170.584 10.4208 169.793 11.5714 169.988 12.7963C170.063 13.251 170.267 13.6778 170.407 14.1232C170.64 14.8934 170.64 15.7192 170.416 16.4894C170.258 17.0183 169.979 17.5379 169.523 17.8442C169.207 18.0576 168.834 18.1597 168.471 18.2432C167.68 18.4287 166.862 18.5679 166.043 18.4844C165.233 18.4009 164.414 18.0576 163.902 17.4359C163.558 17.009 163.307 16.443 162.795 16.2481C162.618 16.1832 162.432 16.1646 162.237 16.1554C161.511 16.109 160.767 16.0626 160.059 16.211C159.296 16.3781 158.58 16.7585 157.807 16.7863C156.7 16.8235 155.611 16.0162 155.332 14.9491C155.053 13.8727 155.602 12.6478 156.598 12.1375C157.379 11.7385 158.422 11.7199 158.933 11.0054C159.361 10.4116 159.231 9.55787 159.557 8.90833C160.134 7.76699 161.753 7.69276 162.739 6.86691C163.698 6.06891 164.135 4.89045 165.345 4.3801C166.629 3.85119 168.323 4.26875 169.355 5.11315Z" fill="#00417C"/>
<path d="M157.603 27.977C157.603 27.977 156.356 34.0177 158.338 34.8621C160.32 35.7158 166.992 37.2098 167.392 38.4253C167.792 39.6409 167.392 49.5696 167.392 49.5696L170.565 49.6624C170.565 49.6624 171.561 38.4439 171.468 37.3582C171.254 34.8529 170.556 34.2312 170.556 34.2312C170.556 34.2312 172.026 35.1591 172.426 37.3211C172.603 38.2769 172.603 48.651 172.603 48.651L175.776 48.7438C175.776 48.7438 177.954 34.8993 175.525 32.997C173.096 31.0948 166.452 28.3389 166.452 28.3389L157.603 27.977Z" fill="#0557A3"/>
<path d="M169.966 19.9449L171.407 25.741L169.204 26.268C169.193 26.2487 169.177 26.221 169.157 26.1854C169.115 26.1105 169.055 26.0007 168.981 25.8615C168.833 25.583 168.63 25.1869 168.411 24.7163C167.973 23.7747 167.473 22.5375 167.218 21.3505C167.092 20.7625 167.206 20.3913 167.432 20.1582C167.662 19.9223 168.018 19.8167 168.4 19.7846C168.781 19.7526 169.179 19.7943 169.483 19.8444C169.635 19.8695 169.763 19.8965 169.853 19.9173C169.898 19.9276 169.933 19.9364 169.957 19.9426L169.966 19.9449Z" fill="#FEFEFE" stroke="#3C83D7" stroke-width="0.1"/>
<path d="M165.057 13.7706C165.057 13.7706 167.597 14.3645 168.723 15.8399C169.849 17.3152 170.556 20.498 170.556 20.498L168.127 21.2682C168.127 21.2682 168.006 23.0405 166.88 23.5137C166.88 23.5137 166.173 26.2882 166.88 28.6451C166.88 28.6451 160.906 30.4174 157.24 28.6451L156.942 20.6186L154.69 19.6722C154.69 19.6722 155.872 14.5408 158.654 13.7706C161.446 13.0097 163.53 13.2417 165.057 13.7706Z" fill="#3C83D7"/>
<path d="M157.786 24.9331L157.786 24.9333C157.98 25.9708 158.793 27.0079 159.725 27.7721C160.192 28.1549 160.691 28.4711 161.162 28.6859C161.607 28.8893 162.031 29.0037 162.379 28.9945L162.32 30.1133C162.312 30.1127 162.303 30.112 162.294 30.1112C162.243 30.1071 162.169 30.1006 162.074 30.0909C161.884 30.0715 161.613 30.0395 161.284 29.989C160.626 29.8881 159.742 29.7134 158.834 29.4188C157.013 28.8277 155.12 27.7614 154.739 25.861C154.364 23.9335 154.501 22.449 154.731 21.4475C154.846 20.9467 154.984 20.5665 155.093 20.312C155.148 20.1847 155.195 20.0889 155.229 20.0251C155.242 20.0009 155.253 19.9813 155.261 19.9663L158.277 21.1497C158.272 21.1673 158.266 21.19 158.259 21.2174C158.239 21.2892 158.211 21.3931 158.178 21.5218C158.113 21.779 158.028 22.1355 157.95 22.5321C157.796 23.3229 157.668 24.2825 157.786 24.9331Z" fill="#FEFEFE" stroke="#3C83D7" stroke-width="0.1"/>
<path d="M168.137 21.3053C168.109 21.3053 168.099 21.2867 168.099 21.2589C168.118 20.4145 167.374 19.3196 167.364 19.3103C167.355 19.2917 167.355 19.2639 167.374 19.2546C167.392 19.2453 167.42 19.2453 167.429 19.2639C167.457 19.3103 168.192 20.3959 168.174 21.2682C168.174 21.2867 168.155 21.3053 168.137 21.3053Z" fill="#0557A3"/>
<path d="M158.757 21.3053H158.747L158.338 21.1568C158.319 21.1475 158.31 21.129 158.31 21.1011C158.319 21.0826 158.338 21.0733 158.366 21.0733L158.738 21.2032L159.65 18.2617C159.659 18.2432 159.678 18.2246 159.706 18.2339C159.724 18.2432 159.743 18.2617 159.734 18.2896L158.813 21.2682C158.813 21.2774 158.803 21.2867 158.794 21.296C158.766 21.3053 158.757 21.3053 158.757 21.3053Z" fill="#0557A3"/>
<path d="M169.151 10.393C169.151 10.393 169.532 10.1146 169.672 10.3373C170.016 10.9034 169.3 11.2096 168.927 11.191L169.151 10.393Z" fill="#FEFEFE"/>
<path d="M167.746 4.77911C166.21 4.31515 164.536 5.08532 163.884 6.55143C163.67 7.03394 163.586 7.53502 163.614 8.02681C163.633 9.22383 163.661 10.1889 163.856 10.959C164.052 11.7385 163.968 12.5643 163.577 13.2695L163.419 13.5479C163.27 13.817 163.335 14.1511 163.568 14.3459C164.284 14.9583 164.889 15.0511 165.271 15.0233C165.513 15.0047 165.727 14.847 165.81 14.615L166.35 13.1767C168.323 13.6593 169.384 10.0961 169.774 9.06608C169.793 9.02896 169.802 8.99185 169.821 8.95473C170.463 7.24736 169.532 5.32658 167.746 4.77911Z" fill="#F9FAFB"/>
<path d="M166.378 7.73916C165.866 7.97114 165.391 8.26808 164.917 8.56501C164.414 8.8805 163.893 9.21455 163.605 9.73418C163.261 9.18671 163.158 8.51861 163.102 7.86907C163.074 7.57214 163.065 7.26592 163.13 6.96899C163.223 6.55143 163.475 6.18954 163.717 5.83693C164.033 5.38226 164.368 4.90902 164.852 4.6492C165.177 4.48218 165.55 4.40794 165.913 4.38939C166.769 4.32443 167.643 4.46362 168.397 4.8719C169.151 5.28019 169.756 5.96684 169.988 6.79269C170.286 7.85051 169.942 8.97329 169.597 10.0126C169.653 9.5486 169.504 9.08464 169.365 8.63924C169.272 8.35159 169.169 8.05465 168.983 7.8134C168.667 7.39583 168.527 7.41439 167.997 6.6535C167.56 7.21025 167.011 7.45151 166.378 7.73916Z" fill="#00417C"/>
<path d="M164.219 9.20526C164.21 9.09391 164.154 8.98256 164.061 8.90833C163.884 8.75059 163.558 8.51861 163.205 8.67635C162.702 8.90833 163.074 10.161 163.986 9.9476C163.996 9.9476 164.284 9.81769 164.219 9.20526Z" fill="#F9FAFB"/>
<path d="M165.131 29.9813L165.105 30.0241L165.105 30.0241L165.105 30.0242L165.106 30.0245L165.108 30.0258L165.116 30.0311L165.149 30.0511C165.177 30.0683 165.217 30.093 165.264 30.1228C165.359 30.1824 165.483 30.262 165.602 30.3428C165.721 30.4238 165.832 30.5047 165.903 30.5668C165.917 30.5798 165.929 30.5912 165.939 30.6011C165.929 30.6003 165.918 30.5991 165.906 30.5973C165.866 30.5918 165.817 30.5817 165.762 30.5682C165.651 30.5412 165.518 30.5013 165.383 30.459C165.306 30.4348 165.23 30.4103 165.158 30.387C165.103 30.3693 165.05 30.3524 165.001 30.3368C164.89 30.3018 164.797 30.2736 164.748 30.266L164.747 30.2659C164.695 30.2581 164.585 30.2597 164.45 30.265C164.316 30.2702 164.151 30.2795 163.98 30.2891L163.968 30.2898C163.617 30.3096 163.246 30.3302 163.058 30.3211L163.057 30.321C162.874 30.3166 162.71 30.2676 162.592 30.2192C162.533 30.195 162.485 30.1712 162.453 30.1535C162.443 30.1483 162.435 30.1436 162.428 30.1396L162.489 28.9765L162.522 28.9718L162.722 28.944C162.889 28.9208 163.117 28.8895 163.362 28.8571C163.854 28.792 164.41 28.7227 164.678 28.7043C164.806 28.6955 164.982 28.7175 165.176 28.7592C165.37 28.8008 165.577 28.8611 165.767 28.9267C165.957 28.9923 166.128 29.0628 166.247 29.1242C166.307 29.1552 166.352 29.1827 166.38 29.2051C166.385 29.2092 166.389 29.2129 166.393 29.2161C166.39 29.2171 166.387 29.2182 166.384 29.2192C166.36 29.2264 166.326 29.2317 166.282 29.2346C166.196 29.2405 166.082 29.2366 165.968 29.2285C165.855 29.2205 165.743 29.2084 165.659 29.1983C165.617 29.1933 165.582 29.1887 165.558 29.1855L165.529 29.1816L165.522 29.1806L165.52 29.1803L165.52 29.1802L165.52 29.1802L165.52 29.1802L165.512 29.2297M165.131 29.9813L165.15 29.9353L165.15 29.9353L165.151 29.9354L165.151 29.9356L165.153 29.9364L165.161 29.9397L165.191 29.9523C165.218 29.9631 165.255 29.9784 165.301 29.9962C165.392 30.032 165.515 30.078 165.641 30.1194C165.767 30.1609 165.896 30.197 165.999 30.2138C166.05 30.2222 166.093 30.2253 166.125 30.2227C166.155 30.2203 166.167 30.2136 166.17 30.2106C166.17 30.208 166.169 30.2023 166.164 30.193C166.152 30.1717 166.128 30.1433 166.092 30.1092C166.02 30.0418 165.911 29.9637 165.796 29.8886C165.681 29.814 165.562 29.7437 165.472 29.6921C165.427 29.6663 165.389 29.6452 165.363 29.6305L165.332 29.6136L165.324 29.6093L165.322 29.6082L165.321 29.6079L165.321 29.6078L165.321 29.6078L165.345 29.5637M165.131 29.9813L165.105 30.0241L165.15 29.9353L165.131 29.9813ZM165.345 29.5637L165.359 29.5159L165.359 29.5159L165.36 29.5159L165.36 29.5161L165.362 29.5167L165.37 29.5191L165.401 29.5282C165.428 29.5359 165.466 29.5468 165.512 29.5593C165.604 29.5844 165.727 29.616 165.852 29.6424C165.977 29.6689 166.102 29.6897 166.199 29.6939C166.248 29.696 166.286 29.6937 166.312 29.6874C166.332 29.6827 166.338 29.6774 166.34 29.6756C166.34 29.6732 166.338 29.6674 166.329 29.6572C166.315 29.6392 166.289 29.6173 166.251 29.5926C166.176 29.5438 166.068 29.4924 165.955 29.4451C165.843 29.3981 165.728 29.3562 165.642 29.3259C165.598 29.3108 165.562 29.2986 165.537 29.2903L165.508 29.2806L165.5 29.2782L165.498 29.2776L165.497 29.2774L165.497 29.2774L165.497 29.2774L165.512 29.2297M165.345 29.5637L165.321 29.6078L165.359 29.5159L165.345 29.5637ZM165.512 29.2297L165.497 29.2774L165.52 29.1802L165.512 29.2297Z" fill="#FEFEFE" stroke="#3C83D7" stroke-width="0.1"/>
<path d="M167.56 51.4997C167.411 52.0471 167.28 52.4925 167.243 52.6967C167.122 53.2906 172.389 55.9444 172.864 55.4712C173.217 55.1185 172.296 54.0607 171.44 53.0215C170.947 53.3277 169.718 53.6524 167.56 51.4997Z" fill="#00417C"/>
<path d="M179.229 25.0169L168.788 24.0983L164.852 31.4288L175.283 32.3382L179.229 25.0169Z" fill="#00417C"/>
<path d="M166.937 31.1418L159.948 30.5275L159.907 30.9897L166.896 31.6039L166.937 31.1418Z" fill="#00417C"/>
<path d="M172.25 28.1348C172.305 27.9306 172.492 27.8007 172.678 27.8471C172.854 27.8935 172.957 28.0976 172.91 28.3018C172.854 28.5059 172.668 28.6358 172.482 28.5894C172.296 28.543 172.194 28.3389 172.25 28.1348Z" fill="white"/>
<path d="M146.572 26.6501H81.0615C80.5092 26.6501 80.0615 27.0978 80.0615 27.6501V112.447C80.0615 113 80.5092 113.447 81.0615 113.447H146.572C147.124 113.447 147.572 113 147.572 112.447V27.6501C147.572 27.0978 147.124 26.6501 146.572 26.6501Z" fill="white"/>
<path d="M146.572 26.6501H81.0615C80.5092 26.6501 80.0615 27.0978 80.0615 27.6501V33.0156H147.572V27.6501C147.572 27.0978 147.124 26.6501 146.572 26.6501Z" fill="#0557A3"/>
<path d="M104.553 38.0727H85.4121V57.16H104.553V38.0727Z" fill="#DDEBFF"/>
<path d="M86.845 54.9794L92.5026 44.8187L96.6621 50.4697L98.7372 48.2056L103.129 54.9794H86.845Z" fill="#81BBFF"/>
<path d="M95.1919 43.3619C95.1919 42.5546 95.8433 41.905 96.6528 41.905C97.4624 41.905 98.1138 42.5546 98.1138 43.3619C98.1138 44.1691 97.4624 44.8187 96.6528 44.8187C95.8526 44.8187 95.1919 44.1599 95.1919 43.3619Z" fill="#81BBFF"/>
<path d="M140.719 38.0542H129.124C128.571 38.0542 128.124 38.5019 128.124 39.0542V39.0956C128.124 39.6479 128.571 40.0956 129.124 40.0956H140.719C141.271 40.0956 141.719 39.6479 141.719 39.0956V39.0542C141.719 38.5019 141.271 38.0542 140.719 38.0542Z" fill="#81BBFF"/>
<path d="M124.695 38.0542H110.029C109.477 38.0542 109.029 38.5019 109.029 39.0542V39.0956C109.029 39.6479 109.477 40.0956 110.029 40.0956H124.695C125.247 40.0956 125.695 39.6479 125.695 39.0956V39.0542C125.695 38.5019 125.247 38.0542 124.695 38.0542Z" fill="#81BBFF"/>
<path d="M127.99 44.1135H109.498C109.239 44.1135 109.029 44.3233 109.029 44.5821C109.029 44.8409 109.239 45.0507 109.498 45.0507H127.99C128.249 45.0507 128.459 44.8409 128.459 44.5821C128.459 44.3233 128.249 44.1135 127.99 44.1135Z" fill="#81BBFF"/>
<path d="M135.015 44.1135H130.137C129.878 44.1135 129.668 44.3233 129.668 44.5821C129.668 44.8409 129.878 45.0507 130.137 45.0507H135.015C135.274 45.0507 135.484 44.8409 135.484 44.5821C135.484 44.3233 135.274 44.1135 135.015 44.1135Z" fill="#81BBFF"/>
<path d="M116.479 47.0179H109.498C109.239 47.0179 109.029 47.2277 109.029 47.4864C109.029 47.7452 109.239 47.955 109.498 47.955H116.479C116.738 47.955 116.948 47.7452 116.948 47.4864C116.948 47.2277 116.738 47.0179 116.479 47.0179Z" fill="#81BBFF"/>
<path d="M127.776 47.0179H118.217C117.958 47.0179 117.748 47.2277 117.748 47.4864C117.748 47.7452 117.958 47.955 118.217 47.955H127.776C128.035 47.955 128.244 47.7452 128.244 47.4864C128.244 47.2277 128.035 47.0179 127.776 47.0179Z" fill="#81BBFF"/>
<path d="M135.015 47.0179H130.137C129.878 47.0179 129.668 47.2277 129.668 47.4864C129.668 47.7452 129.878 47.955 130.137 47.955H135.015C135.274 47.955 135.484 47.7452 135.484 47.4864C135.484 47.2277 135.274 47.0179 135.015 47.0179Z" fill="#81BBFF"/>
<path d="M118.964 49.5232H109.498C109.239 49.5232 109.029 49.733 109.029 49.9918C109.029 50.2506 109.239 50.4604 109.498 50.4604H118.964C119.223 50.4604 119.432 50.2506 119.432 49.9918C119.432 49.733 119.223 49.5232 118.964 49.5232Z" fill="#81BBFF"/>
<path d="M137.044 49.5232H121.557C121.299 49.5232 121.089 49.733 121.089 49.9918C121.089 50.2506 121.299 50.4604 121.557 50.4604H137.044C137.303 50.4604 137.513 50.2506 137.513 49.9918C137.513 49.733 137.303 49.5232 137.044 49.5232Z" fill="#81BBFF"/>
<path d="M127.99 53.3277H109.498C109.239 53.3277 109.029 53.5375 109.029 53.7963C109.029 54.0551 109.239 54.2649 109.498 54.2649H127.99C128.249 54.2649 128.459 54.0551 128.459 53.7963C128.459 53.5375 128.249 53.3277 127.99 53.3277Z" fill="#81BBFF"/>
<path d="M135.015 53.3277H130.137C129.878 53.3277 129.668 53.5375 129.668 53.7963C129.668 54.0551 129.878 54.2649 130.137 54.2649H135.015C135.274 54.2649 135.484 54.0551 135.484 53.7963C135.484 53.5375 135.274 53.3277 135.015 53.3277Z" fill="#81BBFF"/>
<path d="M116.479 56.2228H109.498C109.239 56.2228 109.029 56.4326 109.029 56.6914C109.029 56.9502 109.239 57.16 109.498 57.16H116.479C116.738 57.16 116.948 56.9502 116.948 56.6914C116.948 56.4326 116.738 56.2228 116.479 56.2228Z" fill="#81BBFF"/>
<path d="M127.776 56.2228H118.217C117.958 56.2228 117.748 56.4326 117.748 56.6914C117.748 56.9502 117.958 57.16 118.217 57.16H127.776C128.035 57.16 128.244 56.9502 128.244 56.6914C128.244 56.4326 128.035 56.2228 127.776 56.2228Z" fill="#81BBFF"/>
<path d="M117.066 67.7846H85.871C85.5302 67.7846 85.2539 68.0609 85.2539 68.4017C85.2539 68.7425 85.5302 69.0187 85.871 69.0187H117.066C117.407 69.0187 117.683 68.7425 117.683 68.4017C117.683 68.0609 117.407 67.7846 117.066 67.7846Z" fill="#81BBFF"/>
<path d="M128.809 67.7846H120.329C119.988 67.7846 119.712 68.0609 119.712 68.4017C119.712 68.7425 119.988 69.0187 120.329 69.0187H128.809C129.15 69.0187 129.426 68.7425 129.426 68.4017C129.426 68.0609 129.15 67.7846 128.809 67.7846Z" fill="#81BBFF"/>
<path d="M97.8504 71.6076H85.871C85.5302 71.6076 85.2539 71.8839 85.2539 72.2247C85.2539 72.5655 85.5302 72.8418 85.871 72.8418H97.8504C98.1912 72.8418 98.4675 72.5655 98.4675 72.2247C98.4675 71.8839 98.1912 71.6076 97.8504 71.6076Z" fill="#81BBFF"/>
<path d="M116.712 71.6076H100.424C100.084 71.6076 99.8074 71.8839 99.8074 72.2247C99.8074 72.5655 100.084 72.8418 100.424 72.8418H116.712C117.053 72.8418 117.329 72.5655 117.329 72.2247C117.329 71.8839 117.053 71.6076 116.712 71.6076Z" fill="#81BBFF"/>
<path d="M128.809 71.6076H120.329C119.988 71.6076 119.712 71.8839 119.712 72.2247C119.712 72.5655 119.988 72.8418 120.329 72.8418H128.809C129.15 72.8418 129.426 72.5655 129.426 72.2247C129.426 71.8839 129.15 71.6076 128.809 71.6076Z" fill="#81BBFF"/>
<path d="M102.01 74.911H85.871C85.5302 74.911 85.2539 75.1873 85.2539 75.5281C85.2539 75.8689 85.5302 76.1451 85.871 76.1451H102.01C102.351 76.1451 102.627 75.8689 102.627 75.5281C102.627 75.1873 102.351 74.911 102.01 74.911Z" fill="#81BBFF"/>
<path d="M132.187 74.911H106.008C105.667 74.911 105.391 75.1873 105.391 75.5281C105.391 75.8689 105.667 76.1451 106.008 76.1451H132.187C132.528 76.1451 132.804 75.8689 132.804 75.5281C132.804 75.1873 132.528 74.911 132.187 74.911Z" fill="#81BBFF"/>
<path d="M135.484 79.5692H86.0449V108.149H135.484V79.5692Z" fill="#DDEBFF"/>
<path d="M104.537 62.5883H86.2565C85.785 62.5883 85.4028 62.9705 85.4028 63.442C85.4028 63.9134 85.785 64.2957 86.2565 64.2957H104.537C105.008 64.2957 105.391 63.9134 105.391 63.442C105.391 62.9705 105.008 62.5883 104.537 62.5883Z" fill="#81BBFF"/>
<path d="M123.471 62.5883H107.754V64.2957H123.471V62.5883Z" fill="#7C9AF2"/>
<path d="M82.7881 29.7957C82.7881 29.3782 83.1324 29.0348 83.5511 29.0348C83.9699 29.0348 84.3142 29.3782 84.3142 29.7957C84.3142 30.2133 83.9699 30.5566 83.5511 30.5566C83.1324 30.5659 82.7881 30.2226 82.7881 29.7957Z" fill="#DDEBFF"/>
<path d="M85.9985 29.7957C85.9985 29.3782 86.3428 29.0348 86.7616 29.0348C87.1803 29.0348 87.5246 29.3782 87.5246 29.7957C87.5246 30.2133 87.1803 30.5566 86.7616 30.5566C86.3428 30.5659 85.9985 30.2226 85.9985 29.7957Z" fill="#DDEBFF"/>
<path d="M89.1995 29.7957C89.1995 29.3782 89.5438 29.0348 89.9625 29.0348C90.3812 29.0348 90.7255 29.3782 90.7255 29.7957C90.7255 30.2133 90.3812 30.5566 89.9625 30.5566C89.5438 30.5659 89.1995 30.2226 89.1995 29.7957Z" fill="#DDEBFF"/>
<path d="M181.566 57.6332H158.122C157.82 57.6332 157.575 57.8783 157.575 58.1807C157.575 58.483 157.82 58.7281 158.122 58.7281H181.566C181.868 58.7281 182.113 58.483 182.113 58.1807C182.113 57.8783 181.868 57.6332 181.566 57.6332Z" fill="#81BBFF"/>
<path d="M167.71 61.2613H158.122C157.82 61.2613 157.575 61.5065 157.575 61.8088C157.575 62.1112 157.82 62.3563 158.122 62.3563H167.71C168.012 62.3563 168.257 62.1112 168.257 61.8088C168.257 61.5065 168.012 61.2613 167.71 61.2613Z" fill="#81BBFF"/>
<path d="M181.566 61.2613H170.396C170.094 61.2613 169.849 61.5065 169.849 61.8088C169.849 62.1112 170.094 62.3563 170.396 62.3563H181.566C181.868 62.3563 182.113 62.1112 182.113 61.8088C182.113 61.5065 181.868 61.2613 181.566 61.2613Z" fill="#81BBFF"/>
<path d="M171.823 64.5369H158.122C157.82 64.5369 157.575 64.782 157.575 65.0844C157.575 65.3867 157.82 65.6318 158.122 65.6318H171.823C172.125 65.6318 172.37 65.3867 172.37 65.0844C172.37 64.782 172.125 64.5369 171.823 64.5369Z" fill="#81BBFF"/>
<path d="M181.565 64.5369H174.649C174.346 64.5369 174.101 64.782 174.101 65.0844C174.101 65.3867 174.346 65.6318 174.649 65.6318H181.565C181.868 65.6318 182.113 65.3867 182.113 65.0844C182.113 64.782 181.868 64.5369 181.565 64.5369Z" fill="#81BBFF"/>
<path d="M168.268 68.1465H158.122C157.82 68.1465 157.575 68.3916 157.575 68.694C157.575 68.9963 157.82 69.2414 158.122 69.2414H168.268C168.571 69.2414 168.816 68.9963 168.816 68.694C168.816 68.3916 168.571 68.1465 168.268 68.1465Z" fill="#81BBFF"/>
<path d="M181.566 68.1465H172.229C171.927 68.1465 171.682 68.3916 171.682 68.694C171.682 68.9963 171.927 69.2414 172.229 69.2414H181.566C181.868 69.2414 182.113 68.9963 182.113 68.694C182.113 68.3916 181.868 68.1465 181.566 68.1465Z" fill="#81BBFF"/>
<path d="M181.834 72.2015H157.11V86.4914H181.834V72.2015Z" fill="#81BBFF"/>
<path d="M166.676 75.6904V83.0117L172.259 79.3464L166.676 75.6904Z" fill="#3C83D7"/>
<path d="M183.073 98.2109H151.46C151.157 98.2109 150.912 98.456 150.912 98.7584C150.912 99.0608 151.157 99.3059 151.46 99.3059H183.073C183.375 99.3059 183.621 99.0608 183.621 98.7584C183.621 98.456 183.375 98.2109 183.073 98.2109Z" fill="#81BBFF"/>
<path d="M164.602 101.839H151.46C151.157 101.839 150.912 102.084 150.912 102.387C150.912 102.689 151.157 102.934 151.46 102.934H164.602C164.904 102.934 165.15 102.689 165.15 102.387C165.15 102.084 164.904 101.839 164.602 101.839Z" fill="#81BBFF"/>
<path d="M183.064 101.839H167.809C167.507 101.839 167.262 102.084 167.262 102.387C167.262 102.689 167.507 102.934 167.809 102.934H183.064C183.366 102.934 183.611 102.689 183.611 102.387C183.611 102.084 183.366 101.839 183.064 101.839Z" fill="#81BBFF"/>
<path d="M170.083 105.115H151.46C151.157 105.115 150.912 105.36 150.912 105.662C150.912 105.964 151.157 106.21 151.46 106.21H170.083C170.385 106.21 170.63 105.964 170.63 105.662C170.63 105.36 170.385 105.115 170.083 105.115Z" fill="#81BBFF"/>
<path d="M183.064 105.115H173.485C173.183 105.115 172.938 105.36 172.938 105.662C172.938 105.964 173.183 106.21 173.485 106.21H183.064C183.366 106.21 183.611 105.964 183.611 105.662C183.611 105.36 183.366 105.115 183.064 105.115Z" fill="#81BBFF"/>
<path d="M165.346 108.724H151.46C151.157 108.724 150.912 108.969 150.912 109.272C150.912 109.574 151.157 109.819 151.46 109.819H165.346C165.649 109.819 165.894 109.574 165.894 109.272C165.894 108.969 165.649 108.724 165.346 108.724Z" fill="#81BBFF"/>
<path d="M183.064 108.724H170.256C169.954 108.724 169.709 108.969 169.709 109.272C169.709 109.574 169.954 109.819 170.256 109.819H183.064C183.366 109.819 183.611 109.574 183.611 109.272C183.611 108.969 183.366 108.724 183.064 108.724Z" fill="#81BBFF"/>
<path d="M59.9529 126.8C59.9529 126.8 60.0553 130.484 60.0832 130.53C60.1111 130.586 59.832 131.059 59.832 131.059L58.6781 131.319L57.5987 130.874C57.5987 130.874 57.5428 127.45 57.4126 126.911C57.2823 126.373 59.9529 126.8 59.9529 126.8Z" fill="#FEFEFE"/>
<path d="M57.6079 130.874C57.6079 130.874 58.9665 131.282 60.0831 130.465C60.0831 130.465 64.6241 131.95 64.5404 133.221C64.5404 133.221 64.7451 133.592 62.8096 133.592C60.8741 133.592 57.8591 133.629 57.7754 133.592C57.6823 133.546 57.3194 133.769 57.6079 130.874Z" fill="#00417C"/>
<path d="M39.7975 123.506C39.7975 123.506 37.4712 126.364 37.4619 126.429C37.4526 126.485 36.9315 126.67 36.9315 126.67L35.8893 126.113L35.3589 125.074C35.3589 125.074 37.5549 122.439 37.8062 121.947C38.0481 121.446 39.7975 123.506 39.7975 123.506Z" fill="#FEFEFE"/>
<path d="M35.3589 125.065C35.3589 125.065 36.1219 126.262 37.5084 126.355C37.5084 126.355 39.9836 130.428 39.0903 131.338C39.0903 131.338 39.0066 131.755 37.5363 130.493C36.0661 129.231 33.7491 127.31 33.7118 127.227C33.6746 127.153 33.2466 127.078 35.3589 125.065Z" fill="#00417C"/>
<path d="M59.255 99.2688C59.255 99.2688 62.3072 110.376 62.4747 112.519C62.6422 114.663 61.3208 127.329 61.3208 127.329C61.3208 127.329 60.2507 127.737 59.255 127.904C58.2687 128.071 56.9287 127.904 56.9287 127.904C56.9287 127.904 56.1191 115.396 55.9517 114.162C55.7842 112.928 53.6439 105.931 52.732 105.606C51.8201 105.282 50.0893 113.837 47.9025 117.048C45.7158 120.258 40.1047 125.111 40.1047 125.111C40.1047 125.111 36.7175 122.726 36.7175 122.068C36.7175 121.409 39.993 119.507 42.1146 113.624C44.2269 107.741 43.7338 99.6771 43.7338 99.6771L55.1235 97.7006L59.255 99.2688Z" fill="#0557A3"/>
<path d="M68.1881 93.4229C68.1881 93.4229 69.8723 93.7477 70.4493 93.9982C71.0262 94.2487 71.7799 94.0632 71.752 94.4343C71.7241 94.7962 70.5051 94.7962 70.5051 94.7962C70.5051 94.7962 71.324 95.7891 71.6217 96.0582C71.9195 96.3273 72.3289 96.9397 72.1521 97.1717C71.9753 97.4037 70.6354 96.0211 70.6354 96.0211C70.6354 96.0211 71.6497 97.2923 71.5287 97.5428C71.4077 97.7934 69.8816 96.3551 69.8816 96.3551C69.8816 96.3551 71.0355 97.6635 71.0355 97.8398C71.0355 98.0254 70.8029 98.0254 70.2818 97.6635C69.7607 97.3016 69.3233 96.7912 69.3233 96.7912C69.3233 96.7912 70.0584 97.7748 70.105 97.9233C70.1515 98.0718 70.1143 98.313 69.3978 97.6913C68.6813 97.0696 67.3599 95.4736 67.0249 94.4158L68.1881 93.4229Z" fill="#FEFEFE"/>
<path d="M52.1551 74.9667C52.1551 74.9667 54.286 75.9131 55.1514 75.8574C56.0168 75.7925 58.4269 76.6555 61.5907 82.3343C64.7452 88.0131 69.3234 92.7641 69.3234 92.7641L67.2204 95.4829C67.2204 95.4829 61.3394 93.3858 58.6223 89.869C58.6223 89.869 59.5528 98.1831 60.4833 100.661C60.4833 100.661 58.1291 101.598 55.5329 102.275C52.9367 102.953 46.3113 102.275 46.3113 102.275L45.5111 100.661L44.4875 102.21L42.1332 101.681V93.7477C42.1332 93.7477 35.666 90.9082 38.8857 84.3664C42.0867 77.8339 47.0744 74.9667 52.1551 74.9667Z" fill="#00417C"/>
<path d="M58.5385 83.2065L55.6539 82.6498C55.6073 82.6405 55.5701 82.6684 55.5608 82.7148L54.3604 88.8297C54.3511 88.8761 54.379 88.9132 54.4256 88.9225L57.3102 89.4793C57.3567 89.4885 57.394 89.4607 57.4033 89.4143L58.6037 83.2993C58.6037 83.2622 58.5757 83.2158 58.5385 83.2065Z" fill="#3C83D7"/>
<path d="M52.397 86.8904C52.397 86.8904 53.5322 85.6191 54.0533 85.248C54.5651 84.8768 54.7884 84.1437 55.0955 84.3479C55.4026 84.552 54.7698 85.6006 54.7698 85.6006C54.7698 85.6006 56.0447 85.4057 56.4262 85.2851C56.8077 85.1644 57.5428 85.1273 57.6545 85.3964C57.7662 85.6655 55.8865 86.1109 55.8865 86.1109C55.8865 86.1109 57.5056 85.8882 57.6545 86.1202C57.8127 86.3522 55.7934 86.9275 55.7934 86.9275C55.7934 86.9275 57.5056 86.612 57.6638 86.7048C57.822 86.7976 57.7103 87.0017 57.1334 87.2615C56.5565 87.5213 55.8958 87.642 55.8958 87.642C55.8958 87.642 57.1148 87.5121 57.273 87.5399C57.4219 87.577 57.608 87.7348 56.7147 88.0317C55.812 88.3286 53.7649 88.6441 52.6761 88.3936L52.397 86.8904Z" fill="#FEFEFE"/>
<path d="M43.5289 93.9147C42.6635 93.9147 42.1238 93.7848 42.1145 93.7848L42.1238 93.7291C42.1424 93.7291 43.5941 94.0724 45.6133 93.6178C47.4744 93.2002 50.2194 91.9939 52.704 88.6534L52.3411 86.8161C52.0154 86.7326 46.9812 85.415 42.4681 86.0645L42.4588 86.0088C47.1115 85.3407 52.3225 86.7512 52.369 86.7605H52.3876V86.779L52.7598 88.6534L52.7505 88.6627C50.2474 92.031 47.493 93.2373 45.6133 93.6641C44.813 93.859 44.0965 93.9147 43.5289 93.9147Z" fill="#3C83D7"/>
<path d="M45.7623 85.8697L45.7158 85.8511C46.637 83.1694 47.8747 80.9331 47.884 80.9053L47.9305 80.9331C47.9212 80.9517 46.6836 83.188 45.7623 85.8697Z" fill="#3C83D7"/>
<path d="M57.9893 70.6054C57.9893 70.6054 58.3243 70.2343 58.5104 70.4384C58.9943 70.9488 58.3615 71.4127 57.9707 71.4777L57.9893 70.6054Z" fill="#FEFEFE"/>
<path d="M58.3524 69.1115C58.3524 69.0651 58.3617 69.028 58.371 68.9816C58.6687 67.0608 57.2916 65.2699 55.3188 65.0936C53.6811 64.9452 52.1457 66.0308 51.7363 67.6176C51.5874 68.2114 51.5967 68.796 51.7456 69.3342C51.9317 70.16 52.0992 70.8745 52.3039 71.4777C52.6389 72.4706 52.6203 73.5469 52.2853 74.5398L52.0247 75.3193C53.9137 76.7297 55.0024 75.8667 55.0024 75.8667L55.2723 74.4006C55.3095 74.2058 55.4863 74.0759 55.6817 74.0944C58.2686 74.3264 58.1663 70.2528 58.3524 69.1115Z" fill="#FEFEFE"/>
<path d="M51.699 65.604C51.8014 65.4277 51.9131 65.2514 52.062 65.1029C52.4249 64.7503 52.9553 64.6297 53.4578 64.6111C53.9602 64.6018 54.472 64.6853 54.9745 64.6668C55.4863 64.6482 56.0074 64.5369 56.5006 64.6668C56.6123 64.6946 56.7146 64.7317 56.8077 64.806C56.8914 64.8802 56.9566 64.9823 57.0217 65.0751C57.3195 65.4462 57.8406 65.539 58.3151 65.6133C58.585 65.6504 58.8642 65.6968 59.134 65.7339C59.3666 65.771 59.6179 65.8081 59.7854 65.9751C59.9715 66.1607 60.018 66.4391 60.0552 66.7082C60.1018 66.968 60.1855 67.2557 60.4181 67.3763C60.5019 67.4227 60.5949 67.4505 60.6322 67.5248C60.6508 67.5619 60.6508 67.6083 60.6415 67.6547C60.6042 68.0258 60.232 68.332 59.8598 68.3135C59.7668 68.3042 59.6737 68.2857 59.5807 68.2949C59.2457 68.3413 59.1433 68.796 58.8548 68.9723C58.678 69.0837 58.4547 69.0744 58.25 69.0187C58.0453 68.9537 57.8685 68.8517 57.6824 68.7589C57.459 68.6568 57.2171 68.5826 56.9752 68.5362C56.7984 68.5084 56.6216 68.4991 56.4541 68.5547C56.3703 68.5826 56.2866 68.629 56.2028 68.6661C55.8957 68.7682 55.5608 68.6475 55.2909 68.4805C55.021 68.3042 54.7884 68.0722 54.5093 67.9238C54.2301 67.766 53.8672 67.7011 53.588 67.8774C53.4298 67.9794 53.3275 68.1372 53.1879 68.2578C52.8157 68.5733 52.276 68.564 51.7921 68.5362C51.6897 68.5269 51.5874 68.5176 51.5036 68.462C51.4478 68.4156 51.4106 68.3506 51.3827 68.2857C51.0291 67.432 51.271 66.3556 51.699 65.604Z" fill="#00417C"/>
<path d="M51.3547 68.1743L51.8944 70.5127L52.5179 70.4941L53.3461 67.6361L51.3547 68.1743Z" fill="#00417C"/>
<path d="M52.6294 70.4291C52.5922 70.3085 52.5085 70.2157 52.4061 70.1508C52.1921 70.0209 51.8013 69.8538 51.4756 70.0951C51.001 70.4384 51.6524 71.654 52.555 71.2457C52.555 71.2457 52.8248 71.0508 52.6294 70.4291Z" fill="#FEFEFE"/>
<path d="M173.041 90.5464L175.935 89.7948L174.055 88.3936L172.454 88.0596L171.682 88.9875L173.041 90.5464Z" fill="#FEFEFE"/>
<path d="M185.435 126.522C185.435 126.522 184.719 130.707 184.691 130.753C184.663 130.809 184.951 131.254 184.951 131.254L186.087 131.458L187.12 130.985C187.12 130.985 187.715 127.617 187.827 127.088C187.929 126.559 185.435 126.522 185.435 126.522Z" fill="#F9FAFB"/>
<path d="M187.12 130.976C187.12 130.976 185.817 131.43 184.7 130.679C184.7 130.679 180.355 132.303 180.494 133.537C180.494 133.537 180.308 133.908 182.188 133.824C184.068 133.741 186.989 133.657 187.073 133.62C187.148 133.574 187.52 133.778 187.12 130.976Z" fill="#00417C"/>
<path d="M198.333 126.522C198.333 126.522 199.44 130.707 199.412 130.753C199.384 130.809 199.673 131.254 199.673 131.254L200.808 131.458L201.841 130.985C201.841 130.985 201.273 127.542 201.385 127.023C201.487 126.494 198.333 126.522 198.333 126.522Z" fill="#F9FAFB"/>
<path d="M201.831 130.976C201.831 130.976 200.529 131.43 199.412 130.679C199.412 130.679 195.066 132.303 195.206 133.537C195.206 133.537 195.02 133.908 196.9 133.824C198.779 133.741 201.701 133.657 201.785 133.62C201.869 133.574 202.232 133.778 201.831 130.976Z" fill="#00417C"/>
<path d="M186.599 100.382L184.328 128.999H188.227C188.227 128.999 192.349 106.386 192.936 106.293C193.522 106.191 197.7 128.999 197.7 128.999H202.176L199.887 99.6492L186.599 100.382Z" fill="#3C83D7"/>
<path d="M195.401 78.0938C195.401 78.0938 190.572 78.2608 188.618 79.7454C187.399 80.6641 187.129 92.2816 187.129 92.2816L186.394 100.939C186.394 100.939 194.22 103.584 200.584 100.939L201.273 95.1488C201.273 95.1488 203.785 80.5898 201.831 79.7269C198.119 78.0937 195.401 78.0938 195.401 78.0938Z" fill="#00417C"/>
<path d="M192.191 72.4427C192.191 72.4427 191.959 72.0066 191.726 72.1551C191.14 72.5263 191.633 73.1201 191.986 73.2779L192.191 72.4427Z" fill="#FEFEFE"/>
<path d="M192.21 70.9302C192.219 70.8838 192.219 70.8467 192.219 70.8003C192.396 68.8888 194.155 67.4969 196.09 67.8032C197.7 68.0537 198.91 69.4641 198.919 71.0973C198.919 71.7004 198.761 72.2572 198.491 72.7489C198.109 73.5006 197.774 74.1408 197.439 74.6697C196.881 75.542 196.63 76.5812 196.714 77.6112L196.76 78.2236C194.611 79.1237 193.782 78.2329 193.782 78.2329L193.875 76.7575C193.885 76.5627 193.754 76.3957 193.559 76.3678C191.019 75.9595 192.098 72.0716 192.21 70.9302Z" fill="#FEFEFE"/>
<path d="M199.179 71.6633L198.063 73.8346L197.467 73.6583L197.374 70.7168L199.179 71.6633Z" fill="#0557A3"/>
<path d="M197.384 73.5748C197.449 73.4727 197.551 73.3985 197.663 73.3614C197.905 73.2871 198.314 73.2222 198.575 73.5284C198.947 73.9738 198.026 74.9852 197.253 74.3728C197.253 74.3821 197.039 74.1223 197.384 73.5748Z" fill="#FEFEFE"/>
<path d="M192.861 69.6868C192.861 69.6868 192.349 69.9838 192.052 71.9881C192.052 71.9881 192.098 69.7147 192.368 69.492C192.638 69.2693 192.861 69.6868 192.861 69.6868Z" fill="#0557A3"/>
<path d="M198.305 67.4784C197.635 66.7361 196.406 66.801 195.615 66.1886C195.867 66.6989 196.211 67.1629 196.63 67.5526C195.457 67.2093 194.276 66.8752 193.103 66.5319C193.466 66.9031 193.866 67.2279 194.294 67.5248C193.382 67.599 192.452 67.599 191.54 67.5062C191.447 67.6454 191.512 67.831 191.568 67.9887C191.912 68.8331 192.34 69.7703 193.187 70.1137C193.447 70.2157 193.736 70.2621 194.024 70.2714C195.15 70.3364 196.397 70.058 197.328 70.689C197.756 70.9859 198.295 72.0066 198.91 71.8582C199.459 71.7282 200.38 69.7889 198.305 67.4784Z" fill="#0557A3"/>
<path d="M190.265 78.9382C187.25 79.6248 184.077 85.7491 182.579 86.7234C181.034 87.7255 174.297 88.1709 174.297 88.1709L175.758 90.4443C175.758 90.4443 182.988 91.2423 185.1 90.5371C186.403 90.101 188.553 88.3565 189.185 87.4471C192.024 83.3829 190.265 78.9382 190.265 78.9382Z" fill="#00417C"/>
<path d="M203.817 102.662L204.542 100.982L167.012 84.8916L166.288 86.571L203.817 102.662Z" fill="#0557A3"/>
<path d="M203.776 102.832L204.623 100.828L189.995 94.555L189.148 96.5593L203.776 102.832Z" fill="#3C83D7"/>
<path opacity="0.3" d="M164.445 89.5003C169.492 84.4669 169.492 76.3063 164.445 71.273C159.397 66.2397 151.214 66.2397 146.166 71.273C141.119 76.3063 141.119 84.4669 146.166 89.5003C151.214 94.5336 159.397 94.5336 164.445 89.5003Z" fill="#DDEBFF"/>
<path d="M160.683 67.9145C153.788 64.9545 145.767 68.1465 142.798 75.0223C139.83 81.8982 143.031 89.8968 149.926 92.8569C156.821 95.8169 164.843 92.6249 167.811 85.7491C170.779 78.8639 167.578 70.8653 160.683 67.9145ZM166.871 85.3408C164.126 91.7063 156.728 94.6478 150.336 91.9104C143.952 89.1731 141.002 81.7961 143.747 75.4213C146.493 69.0558 153.89 66.1143 160.283 68.8517C166.667 71.5891 169.616 78.9753 166.871 85.3408Z" fill="#3C83D7"/>
<path d="M173.041 90.5464C173.041 90.5464 173.925 88.6998 173.683 88.5421C173.441 88.3843 172.427 89.6556 172.436 89.637C172.445 89.6092 173.283 88.1152 173.032 87.7905C172.78 87.4657 171.682 88.9875 171.682 88.9875C171.682 88.9875 172.566 87.6327 172.389 87.4286C172.203 87.2152 171.217 88.4215 171.133 88.3565C171.049 88.2915 171.98 87.3265 171.766 87.0574C171.552 86.7883 170.184 88.0967 170.268 88.4864C170.352 88.8669 170.752 88.8669 170.752 88.8669C170.752 88.8669 170.956 89.4886 171.319 89.5349C171.319 89.5349 171.887 90.2309 172.241 90.0453C172.231 90.036 172.436 90.7969 173.041 90.5464Z" fill="#FEFEFE"/>
<path d="M198.388 95.9283C198.388 95.9283 196.602 96.1417 195.978 96.2623C195.355 96.383 194.648 96.0489 194.592 96.4108C194.536 96.782 195.746 97.0325 195.746 97.0325C195.746 97.0325 194.722 97.8398 194.368 98.0439C194.015 98.2481 193.708 98.5636 193.931 98.7677C194.35 99.1667 195.364 98.211 195.364 98.211C195.364 98.211 193.912 98.8698 194.285 99.2502C194.592 99.5657 196.034 98.712 196.034 98.712C196.034 98.712 194.675 99.1203 194.657 99.4544C194.648 99.64 194.666 99.7327 195.225 99.5936C195.848 99.4451 195.82 99.4544 195.82 99.4544C195.82 99.4544 195.476 99.5936 195.392 99.8719C195.327 100.076 195.466 100.299 196.202 100.002C197.095 99.6492 198.695 98.4244 199.254 97.4408L198.388 95.9283Z" fill="#FEFEFE"/>
<path d="M201.655 79.6434C205.386 81.4157 208.289 90.101 207.312 92.6342C206.168 95.6128 199.514 97.9419 199.514 97.9419L197.923 95.1117C197.923 95.1117 202.846 92.1888 202.864 91.632C202.883 90.8248 199.645 86.7326 199.645 86.7326L201.655 79.6434Z" fill="#00417C"/>
<path d="M199.514 97.9883C199.496 97.9883 199.486 97.979 199.477 97.9697L197.886 95.1396C197.877 95.121 197.877 95.0932 197.905 95.0839L201.636 92.6992C201.655 92.6899 201.683 92.6899 201.701 92.7084C201.72 92.727 201.71 92.7548 201.692 92.7734L197.998 95.1396L199.552 97.8955L201.013 97.3109C201.031 97.3016 201.059 97.3109 201.068 97.3387C201.078 97.3573 201.068 97.3851 201.04 97.3944L199.542 97.9883C199.533 97.9883 199.524 97.9883 199.514 97.9883Z" fill="#0557A3"/>
<path d="M187.241 89.3215C187.213 89.3215 187.194 89.2937 187.194 89.2751L187.501 86.1109C187.501 86.0831 187.529 86.0738 187.548 86.0738C187.576 86.0738 187.594 86.1017 187.585 86.1202L187.278 89.2844C187.287 89.303 187.259 89.3215 187.241 89.3215Z" fill="#0557A3"/>
<path d="M151.899 74.2243L151.666 73.649C151.415 73.0273 150.81 72.619 150.14 72.619H145.813V75.3564V87.0481H163.716V75.3564H153.583C152.839 75.3564 152.169 74.911 151.899 74.2243Z" fill="#00417C"/>
<path d="M155.788 84.3108H153.862C152.597 84.3108 151.582 83.2901 151.582 82.0374V80.2651C151.582 79.9867 151.815 79.7547 152.094 79.7547H157.286C157.649 79.7547 157.938 80.0424 157.938 80.4042V82.1673C157.938 83.355 156.97 84.3108 155.788 84.3108Z" fill="white"/>
<path d="M154.755 81.8054C153.62 81.8054 152.699 80.8868 152.699 79.7547C152.699 78.6227 153.62 77.704 154.755 77.704C155.891 77.704 156.812 78.6227 156.812 79.7547C156.812 80.8868 155.891 81.8054 154.755 81.8054ZM154.755 78.3628C153.983 78.3628 153.36 78.9845 153.36 79.7547C153.36 80.5249 153.983 81.1466 154.755 81.1466C155.528 81.1466 156.151 80.5249 156.151 79.7547C156.151 78.9845 155.528 78.3628 154.755 78.3628Z" fill="white"/>
<path d="M155.584 81.3229C155.584 81.7776 155.211 82.1487 154.755 82.1487C154.299 82.1487 153.927 81.7776 153.927 81.3229C153.927 80.8682 154.299 80.497 154.755 80.497C155.211 80.497 155.584 80.8682 155.584 81.3229Z" fill="#00417C"/>
<path d="M154.755 81.7126C154.858 81.7126 154.932 81.7961 154.932 81.8889V83.2622C154.932 83.3643 154.848 83.4385 154.755 83.4385C154.653 83.4385 154.579 83.355 154.579 83.2622V81.8889C154.579 81.7868 154.662 81.7126 154.755 81.7126Z" fill="#00417C"/>
<path d="M137.069 62.0069C136.977 60.5409 136.092 59.248 134.769 58.6269L117.636 50.4824C116.537 49.9632 115.265 49.9632 114.166 50.4824L97.032 58.6269C95.7093 59.2581 94.8242 60.5511 94.7326 62.0069C93.125 86.8578 109.048 95.9185 114.278 98.2092C115.316 98.6673 116.486 98.6673 117.524 98.2092C122.753 95.9185 138.676 86.8578 137.069 62.0069Z" fill="#3C83D7"/>
<path d="M132.928 62.9741C132.908 62.6076 132.684 62.2716 132.358 62.1087L116.343 54.4936C116.069 54.3613 115.753 54.3613 115.479 54.4936L99.4638 62.1087C99.128 62.2716 98.9042 62.5974 98.894 62.9741C98.4158 72.2486 100.563 79.9859 105.263 85.9823C108.845 90.5533 113.037 93.0069 115.489 94.1471C115.763 94.2693 116.069 94.2693 116.343 94.1471C118.795 93.0069 122.987 90.5533 126.569 85.9823C131.259 79.9859 133.406 72.2486 132.928 62.9741Z" fill="#81BBFF"/>
<path d="M118.4 80.3182H114.008C111.133 80.3182 108.797 77.9892 108.797 75.1219V71.0855C108.797 70.4452 109.318 69.9256 109.96 69.9256H121.796C122.625 69.9256 123.285 70.5937 123.285 71.4103V75.4281C123.295 78.1376 121.099 80.3182 118.4 80.3182Z" fill="white"/>
<path d="M116.046 74.6023C113.468 74.6023 111.365 72.5052 111.365 69.9349C111.365 67.3645 113.468 65.2675 116.046 65.2675C118.623 65.2675 120.726 67.3645 120.726 69.9349C120.726 72.5052 118.633 74.6023 116.046 74.6023ZM116.046 66.7521C114.287 66.7521 112.863 68.1811 112.863 69.9256C112.863 71.6794 114.296 73.0991 116.046 73.0991C117.795 73.0991 119.228 71.6701 119.228 69.9256C119.238 68.1811 117.805 66.7521 116.046 66.7521Z" fill="white"/>
<path d="M117.935 73.5074C117.935 74.5466 117.088 75.391 116.046 75.391C115.004 75.391 114.157 74.5466 114.157 73.5074C114.157 72.4681 115.004 71.6237 116.046 71.6237C117.088 71.6237 117.935 72.4588 117.935 73.5074Z" fill="#3C83D7"/>
<path d="M116.046 74.3796C116.269 74.3796 116.455 74.5652 116.455 74.7879V77.9242C116.455 78.1469 116.269 78.3325 116.046 78.3325C115.822 78.3325 115.636 78.1469 115.636 77.9242V74.7879C115.636 74.5652 115.822 74.3796 116.046 74.3796Z" fill="#3C83D7"/>
<path d="M86.2541 85.5071C82.1504 85.5071 78.8191 88.8291 78.8191 92.9212C78.8191 97.0133 82.1504 100.335 86.2541 100.335C90.3577 100.335 93.689 97.0133 93.689 92.9212C93.6983 88.8291 90.367 85.5071 86.2541 85.5071ZM86.2541 91.8448C85.3421 91.8448 84.5977 91.1024 84.5977 90.1931C84.5977 89.2837 85.3421 88.5414 86.2541 88.5414C87.166 88.5414 87.9104 89.2837 87.9104 90.1931C87.9104 91.1117 87.166 91.8448 86.2541 91.8448Z" fill="#0557A3"/>
<path d="M86.254 86.4165C82.6529 86.4165 79.7217 89.3301 79.7217 92.9304C79.7217 96.5215 82.6436 99.4444 86.254 99.4444C89.8552 99.4444 92.7864 96.5307 92.7864 92.9304C92.7864 89.3301 89.8645 86.4165 86.254 86.4165ZM86.254 91.8448C85.3421 91.8448 84.5977 91.1024 84.5977 90.1931C84.5977 89.2837 85.3421 88.5414 86.254 88.5414C87.1659 88.5414 87.9104 89.2837 87.9104 90.1931C87.9104 91.1117 87.1659 91.8448 86.254 91.8448Z" fill="#0557A3"/>
<path d="M84.0396 98.1917V115.228L87.4732 113.567L87.9106 112.259L89.204 110.765L88.2456 109.113L89.1575 107.332L87.6221 105.151L88.9807 103.314L87.9106 101.699V98.1917H84.0396Z" fill="#0557A3"/>
<path d="M109.817 15.8185C109.796 15.8185 109.775 15.8115 109.757 15.8011C109.702 15.7698 109.684 15.6967 109.715 15.641C109.796 15.5088 109.869 15.3731 109.939 15.2373C109.97 15.1782 110.04 15.1573 110.096 15.1886C110.155 15.2199 110.176 15.2895 110.145 15.3452C110.072 15.4844 109.995 15.6236 109.914 15.7593C109.894 15.7976 109.855 15.8185 109.817 15.8185Z" fill="#81BBFF"/>
<path d="M102.23 19.7404C102.226 19.7404 102.223 19.7404 102.219 19.7404C101.902 19.7161 101.581 19.6708 101.266 19.6082C101.203 19.5943 101.162 19.5351 101.172 19.469C101.186 19.4064 101.245 19.3646 101.312 19.375C101.615 19.4342 101.926 19.476 102.237 19.5003C102.303 19.5038 102.349 19.563 102.345 19.6256C102.342 19.6952 102.289 19.7404 102.23 19.7404ZM103.766 19.7161C103.707 19.7161 103.658 19.6708 103.651 19.6117C103.644 19.549 103.689 19.4899 103.756 19.4829C104.066 19.4481 104.374 19.3959 104.677 19.3263C104.74 19.3124 104.803 19.3507 104.817 19.4133C104.831 19.476 104.793 19.5386 104.73 19.5525C104.419 19.6256 104.101 19.6778 103.784 19.7161C103.777 19.7161 103.77 19.7161 103.766 19.7161ZM99.8173 19.1732C99.8034 19.1732 99.7859 19.1697 99.772 19.1662C99.4752 19.0479 99.1854 18.9087 98.9061 18.7556C98.8502 18.7243 98.8293 18.6547 98.8607 18.5955C98.8921 18.5398 98.9619 18.519 99.0213 18.5503C99.2936 18.6999 99.5764 18.8356 99.8627 18.9505C99.9221 18.9748 99.9535 19.0444 99.9291 19.1036C99.9081 19.1454 99.8627 19.1732 99.8173 19.1732ZM106.158 19.0688C106.112 19.0688 106.071 19.0444 106.05 18.9992C106.022 18.94 106.05 18.8704 106.109 18.8461C106.392 18.7208 106.671 18.5746 106.936 18.418C106.992 18.3832 107.066 18.4041 107.097 18.4598C107.132 18.5155 107.111 18.5886 107.055 18.6199C106.779 18.7834 106.493 18.9331 106.203 19.0618C106.189 19.0653 106.175 19.0688 106.158 19.0688ZM97.6945 17.903C97.6666 17.903 97.6422 17.8926 97.6177 17.8752C97.3733 17.6733 97.1394 17.4506 96.9159 17.2209C96.8705 17.1722 96.874 17.0991 96.9194 17.0539C96.9683 17.0086 97.0416 17.0121 97.087 17.0574C97.3 17.2836 97.5304 17.4958 97.7679 17.6942C97.8167 17.736 97.8237 17.809 97.7818 17.8578C97.7609 17.8856 97.726 17.903 97.6945 17.903ZM108.239 17.7255C108.207 17.7255 108.176 17.7116 108.151 17.6872C108.11 17.6385 108.113 17.5654 108.162 17.5202L108.232 17.4576C108.438 17.2696 108.637 17.0678 108.822 16.8625C108.864 16.8138 108.941 16.8103 108.989 16.852C109.038 16.8938 109.042 16.9704 109 17.0191C108.808 17.2314 108.605 17.4402 108.392 17.6316L108.323 17.6942C108.295 17.7151 108.267 17.7255 108.239 17.7255ZM96.0535 16.0482C96.0151 16.0482 95.9767 16.0308 95.9558 15.9925C95.7847 15.7245 95.6241 15.4427 95.4844 15.1573C95.4565 15.0981 95.4809 15.0285 95.5403 15.0007C95.5996 14.9729 95.6695 14.9972 95.6974 15.0564C95.8336 15.3348 95.9872 15.6062 96.1548 15.8672C96.1897 15.9229 96.1723 15.9925 96.1199 16.0273C96.0989 16.0447 96.078 16.0482 96.0535 16.0482Z" fill="#81BBFF"/>
<path d="M95.055 13.7827C95.0026 13.7827 94.9537 13.7479 94.9398 13.6957C94.8979 13.5426 94.863 13.386 94.8315 13.2329C94.8176 13.1702 94.8595 13.1076 94.9223 13.0937C94.9852 13.0797 95.048 13.1215 95.062 13.1841C95.0934 13.3338 95.1283 13.4869 95.1667 13.6331C95.1842 13.6957 95.1458 13.7583 95.0829 13.7757C95.0759 13.7827 95.0655 13.7827 95.055 13.7827Z" fill="#81BBFF"/>
<path d="M96.022 7.42474C96.0011 7.42474 95.9801 7.41778 95.9592 7.40734C95.9033 7.37254 95.8893 7.29946 95.9208 7.24726C96.0046 7.11502 96.0953 6.9793 96.1861 6.85402C96.2245 6.80182 96.2978 6.7879 96.3502 6.82618C96.4026 6.86446 96.4166 6.93754 96.3781 6.98974C96.2874 7.11502 96.2036 7.24378 96.1198 7.37254C96.0988 7.40734 96.0639 7.42474 96.022 7.42474Z" fill="#81BBFF"/>
<path d="M110.302 8.56618C110.257 8.56618 110.211 8.53834 110.194 8.4931C110.075 8.2147 109.939 7.93631 109.786 7.67183C109.754 7.61615 109.772 7.54306 109.831 7.51174C109.887 7.48042 109.96 7.49783 109.992 7.55699C110.149 7.82843 110.288 8.11378 110.41 8.40262C110.435 8.46178 110.407 8.53138 110.348 8.55574C110.334 8.5627 110.316 8.56618 110.302 8.56618ZM109.021 6.49907C108.986 6.49907 108.955 6.48515 108.93 6.45731C108.871 6.38771 108.808 6.31811 108.745 6.24851C108.602 6.09191 108.452 5.93879 108.295 5.79611C108.246 5.75087 108.246 5.67779 108.288 5.62907C108.333 5.58035 108.406 5.58035 108.455 5.62211C108.616 5.77175 108.769 5.92835 108.92 6.08843C108.986 6.15803 109.049 6.23111 109.108 6.30419C109.15 6.35291 109.143 6.42599 109.094 6.46775C109.073 6.48863 109.045 6.49907 109.021 6.49907ZM97.2756 5.89703C97.2441 5.89703 97.2127 5.88659 97.1918 5.86223C97.1464 5.81699 97.1499 5.74043 97.1953 5.69519C97.2441 5.64995 97.2895 5.60471 97.3384 5.55947C97.5235 5.39243 97.7155 5.23235 97.9145 5.08271C97.9669 5.04443 98.0402 5.05487 98.0786 5.10359C98.117 5.15579 98.1065 5.22887 98.0577 5.26715C97.8656 5.41331 97.6771 5.56991 97.499 5.72999C97.4501 5.77175 97.4048 5.81699 97.3594 5.86223C97.3349 5.88659 97.307 5.89703 97.2756 5.89703ZM107.181 4.90523C107.16 4.90523 107.139 4.89827 107.118 4.88783C106.86 4.72427 106.591 4.57463 106.315 4.44587C106.256 4.41803 106.231 4.34843 106.259 4.28927C106.287 4.23011 106.357 4.20575 106.416 4.23359C106.699 4.36931 106.978 4.52243 107.244 4.68947C107.3 4.72427 107.314 4.79735 107.279 4.84955C107.258 4.88435 107.219 4.90523 107.181 4.90523ZM99.2727 4.49807C99.2308 4.49807 99.1889 4.47371 99.1679 4.43195C99.14 4.37279 99.1645 4.30319 99.2203 4.27535C99.4996 4.13615 99.7929 4.01087 100.09 3.90647C100.153 3.88559 100.219 3.91691 100.24 3.97607C100.261 4.03523 100.229 4.10483 100.17 4.12571C99.8837 4.23011 99.5974 4.34843 99.3251 4.48415C99.3076 4.49459 99.2901 4.49807 99.2727 4.49807ZM104.946 3.93084C104.936 3.93084 104.925 3.93083 104.915 3.92735C104.622 3.8508 104.318 3.78815 104.014 3.74291C103.951 3.73247 103.906 3.67332 103.916 3.61068C103.927 3.54804 103.986 3.49932 104.049 3.51324C104.36 3.55848 104.671 3.62112 104.974 3.70116C105.037 3.71856 105.076 3.7812 105.058 3.84384C105.044 3.89604 104.999 3.93084 104.946 3.93084ZM101.595 3.76031C101.539 3.76031 101.486 3.71856 101.479 3.66288C101.469 3.60024 101.514 3.5376 101.577 3.53064C101.888 3.48192 102.202 3.4506 102.516 3.43668C102.583 3.43668 102.635 3.4854 102.638 3.54804C102.642 3.61416 102.59 3.66636 102.527 3.66984C102.219 3.68376 101.912 3.71159 101.612 3.76031C101.605 3.76031 101.601 3.76031 101.595 3.76031Z" fill="#81BBFF"/>
<path d="M110.847 10.4663C110.791 10.4663 110.738 10.4245 110.732 10.3688C110.707 10.2192 110.679 10.0661 110.648 9.91643C110.634 9.85379 110.676 9.79115 110.738 9.77723C110.801 9.76331 110.864 9.80507 110.878 9.86771C110.913 10.0208 110.941 10.1774 110.965 10.334C110.976 10.3967 110.931 10.4593 110.868 10.4663C110.857 10.4663 110.85 10.4663 110.847 10.4663Z" fill="#81BBFF"/>
<path d="M109.066 11.4163C109.07 11.3745 109.045 11.3363 109.007 11.3189L107.924 10.8491C107.841 10.3062 107.67 9.77374 107.408 9.26914L108.005 8.25646C108.026 8.22166 108.022 8.17642 107.994 8.1451L107.072 7.07327C107.045 7.04195 107.003 7.03151 106.964 7.04543L105.868 7.47694C105.411 7.14287 104.908 6.89231 104.384 6.72527L104.087 5.58731C104.077 5.54903 104.042 5.51771 104 5.51423L102.589 5.40635C102.548 5.40287 102.509 5.42723 102.492 5.46551L102.02 6.54431C101.476 6.62783 100.941 6.79835 100.435 7.05935L99.4192 6.46427C99.3843 6.44339 99.3389 6.44687 99.3074 6.47471L98.2321 7.39343C98.2006 7.42127 98.1902 7.46303 98.2041 7.5013L98.6371 8.59402C98.3019 9.0499 98.0505 9.55102 97.8829 10.073L96.7412 10.3688C96.7028 10.3793 96.6714 10.4141 96.6679 10.4558L96.5597 11.8617C96.5562 11.9035 96.5806 11.9418 96.619 11.9592L97.7014 12.429C97.7852 12.9719 97.9562 13.5043 98.2181 14.0089L97.6211 15.0216C97.6001 15.0564 97.6036 15.1016 97.6315 15.1329L98.5533 16.2048C98.5812 16.2361 98.6231 16.2465 98.6615 16.2326L99.7578 15.8011C100.215 16.1352 100.718 16.3857 101.242 16.5528L101.538 17.6907C101.549 17.729 101.584 17.7603 101.626 17.7638L103.036 17.8717C103.078 17.8752 103.117 17.8508 103.134 17.8125L103.605 16.7337C104.15 16.6502 104.684 16.4797 105.191 16.2187L106.207 16.8138C106.242 16.8346 106.287 16.8312 106.318 16.8033L107.394 15.8846C107.425 15.8568 107.436 15.815 107.422 15.7767L106.989 14.684C107.324 14.2281 107.575 13.727 107.743 13.205L108.885 12.9092C108.923 12.8988 108.954 12.864 108.958 12.8222L109.066 11.4163Z" fill="#81BBFF"/>
<path opacity="0.7" d="M102.813 13.0658C102.52 13.0658 102.233 12.9753 101.989 12.8013C101.343 12.3454 101.19 11.4546 101.647 10.8108C101.867 10.4976 102.199 10.2922 102.576 10.2296C102.953 10.1635 103.333 10.2505 103.644 10.4732C103.958 10.6924 104.164 11.023 104.227 11.3989C104.293 11.7747 104.206 12.154 103.983 12.4638C103.763 12.777 103.431 12.9823 103.054 13.0449C102.977 13.0588 102.893 13.0658 102.813 13.0658ZM102.817 10.5602C102.478 10.5602 102.143 10.7168 101.933 11.0161C101.588 11.4998 101.706 12.1749 102.192 12.516C102.426 12.683 102.715 12.7456 102.998 12.6969C103.284 12.6482 103.532 12.4916 103.696 12.2584C103.864 12.0253 103.927 11.7364 103.878 11.4546C103.829 11.1692 103.672 10.9221 103.438 10.7586C103.253 10.6263 103.033 10.5602 102.817 10.5602Z" fill="white"/>
<path opacity="0.7" d="M102.792 15.2199C102.698 15.2199 102.603 15.2165 102.506 15.2095C101.549 15.1364 100.68 14.6945 100.055 13.9671C99.4749 13.292 99.1921 12.4673 99.1921 11.6425C99.1921 10.6333 99.6181 9.62759 100.449 8.92115C101.954 7.63703 104.227 7.81451 105.515 9.31439C105.526 9.32483 105.536 9.33875 105.547 9.34919C105.686 9.51623 105.812 9.69371 105.917 9.88163C105.917 9.88163 105.917 9.88163 105.917 9.88511C105.917 9.88859 105.92 9.89207 105.92 9.89207C105.924 9.89555 105.927 9.90251 105.927 9.90599C105.927 9.90947 105.931 9.91295 105.931 9.91295C105.934 9.91991 105.941 9.93035 105.945 9.93731L105.634 10.1043C105.526 9.90251 105.393 9.71111 105.243 9.53711C104.422 8.58011 103.155 8.22167 102.003 8.50355C101.528 8.61839 101.074 8.84459 100.676 9.18215C99.9288 9.81899 99.5448 10.7273 99.5448 11.639C99.5448 12.3803 99.7997 13.1285 100.32 13.7375C101.483 15.0912 103.529 15.2513 104.887 14.0924C105.334 13.7131 105.665 13.2189 105.85 12.6656L106.186 12.777C105.98 13.3895 105.609 13.9358 105.114 14.3569C104.464 14.9172 103.647 15.2199 102.792 15.2199Z" fill="white"/>
<path d="M137.796 19.1734C137.796 17.5079 136.436 16.1522 134.766 16.1522C133.096 16.1522 131.736 17.5079 131.736 19.1734C131.736 20.8389 133.096 22.1946 134.766 22.1946C136.449 22.1946 137.796 20.8389 137.796 19.1734Z" fill="#3C83D7"/>
<path d="M140.191 15.9457C139.945 15.9457 139.699 15.8553 139.505 15.6745C137.912 14.1769 136.268 13.4539 134.624 13.5184C132.047 13.6217 130.209 15.5971 130.196 15.61C129.82 16.0231 129.186 16.049 128.771 15.6745C128.357 15.3001 128.331 14.6675 128.694 14.2543C128.784 14.151 131.089 11.6334 134.52 11.4914C136.747 11.401 138.883 12.3048 140.89 14.1898C141.292 14.5642 141.317 15.2097 140.929 15.61C140.735 15.8295 140.463 15.9457 140.191 15.9457Z" fill="#3C83D7"/>
<path d="M143.324 11.5818C143.078 11.5818 142.832 11.4914 142.638 11.3106C139.997 8.83172 137.252 7.631 134.468 7.73429C130.144 7.90213 127.088 11.2073 127.062 11.2461C126.687 11.6592 126.052 11.685 125.638 11.3235C125.224 10.9491 125.185 10.3165 125.56 9.90334C125.703 9.73549 129.186 5.93967 134.365 5.73309C137.718 5.59107 140.968 6.97255 144.023 9.85169C144.425 10.2261 144.451 10.8717 144.062 11.2719C143.868 11.4785 143.596 11.5818 143.324 11.5818Z" fill="#3C83D7"/>
<path d="M146.639 7.34697C146.393 7.34697 146.147 7.25659 145.953 7.07584C142.211 3.56405 138.288 1.8469 134.313 2.01474C128.137 2.26005 123.8 6.97255 123.761 7.02419C123.385 7.43734 122.751 7.46317 122.337 7.10166C121.922 6.72724 121.883 6.0946 122.259 5.68145C122.453 5.46197 127.179 0.31049 134.209 0.0135377C138.754 -0.180127 143.169 1.70487 147.338 5.6169C147.739 5.99132 147.765 6.63686 147.377 7.0371C147.17 7.23077 146.898 7.34697 146.639 7.34697Z" fill="#3C83D7"/>
</svg>
