<svg width="230" height="145" viewBox="0 0 230 145" fill="none" xmlns="http://www.w3.org/2000/svg">
<g clip-path="url(#clip0_643_3498)">
<path d="M94.336 16.4972C94.336 16.4972 72.1393 -1.67998 54.7332 4.58082C37.3167 10.8312 45.6196 27.1301 34.7395 32.2953C23.8698 37.45 15.0368 29.937 4.00079 45.5995C-7.02483 61.2619 7.44045 72.4896 15.0472 81.7451C23.1112 91.5537 29.8242 95.4041 16.4916 101.508C3.14867 107.623 31.9545 135.631 54.7332 141.36C77.5118 147.088 112.74 143.696 125.74 143.988C138.74 144.28 189.472 145.198 214.09 120.458C238.698 95.7171 230.696 87.2859 217.291 77.8112C203.896 68.3261 210.796 52.6742 217.291 36.3126C223.786 19.9511 208.936 3.44344 185.108 10.1112C161.28 16.7789 123.61 33.9231 94.336 16.4972Z" fill="#FEFEFE"/>
<path d="M50.7532 114.781C50.7532 114.781 47.272 61.6271 30.2607 29.4153C29.1176 27.2449 26.4989 27.4327 25.6468 29.7492C19.9729 45.2134 6.7962 92.9937 50.7532 114.781Z" fill="#3C83D7"/>
<path d="M47.0122 110.597C47.0953 110.743 46.9395 110.9 46.8356 110.774C43.0945 106.047 29.1488 83.7277 27.8395 44.9108C27.8395 44.7856 27.985 44.7751 27.9954 44.8899C28.9618 54.0307 33.2951 87.912 47.0122 110.597Z" fill="#DDEBFF"/>
<path d="M88.6205 4.86256C93.5774 9.35989 121.365 36.7091 100.488 67.5018C100.488 67.5018 77.5845 54.2289 87.6853 5.16516C87.7788 4.73734 88.2984 4.57038 88.6205 4.86256Z" fill="#81BBFF"/>
<path d="M90.013 11.4364C91.8108 15.3285 93.4942 19.2728 95.0945 23.238C96.6949 27.2136 98.2121 31.2205 99.5942 35.2796C100.987 39.3387 102.254 43.4499 103.294 47.6133C103.824 49.7003 104.281 51.7977 104.655 53.9159C105.029 56.0341 105.31 58.1732 105.434 60.3436C105.445 60.5732 105.278 60.761 105.05 60.7715C104.821 60.7819 104.634 60.6149 104.624 60.3854C104.53 58.2671 104.26 56.1489 103.917 54.0515C103.564 51.9542 103.138 49.8568 102.629 47.7907C101.631 43.6377 100.405 39.5369 99.0538 35.4778C97.7029 31.4188 96.2376 27.4014 94.6685 23.4154C93.0993 19.4398 91.4574 15.485 89.7012 11.5825C89.6597 11.499 89.7012 11.3947 89.7844 11.3529C89.8675 11.3112 89.9714 11.3529 90.013 11.4364Z" fill="#DDEBFF"/>
<path d="M108.791 4.54952C111.711 9.06772 127.6 36.0831 105.04 55.6167C105.04 55.6167 90.0131 40.5387 108.001 4.59126C108.157 4.27822 108.594 4.25735 108.791 4.54952Z" fill="#3C83D7"/>
<path d="M108.531 9.9338C109.124 13.3251 109.622 16.7372 110.048 20.1493C110.474 23.5719 110.817 26.9945 111.056 30.4379C111.295 33.8709 111.441 37.3248 111.389 40.7787C111.368 42.5004 111.285 44.2325 111.14 45.9542C110.994 47.676 110.776 49.3977 110.422 51.109C110.381 51.3281 110.163 51.4742 109.934 51.422C109.716 51.3803 109.57 51.1611 109.622 50.9316C109.986 49.2725 110.225 47.5821 110.391 45.8812C110.558 44.1804 110.651 42.4691 110.693 40.7578C110.776 37.3352 110.682 33.9022 110.474 30.4692C110.277 27.0362 109.965 23.6136 109.581 20.2015C109.196 16.7894 108.739 13.3772 108.188 9.98597C108.178 9.89206 108.24 9.79815 108.334 9.78772C108.427 9.77728 108.521 9.83989 108.531 9.9338Z" fill="#DDEBFF"/>
<path d="M214.974 45.7247C214.838 45.0777 213.924 45.0464 213.747 45.6829C212.001 51.8498 206.899 67.867 199.137 76.3504C186.49 90.1555 178.01 112.632 186.033 124.319C186.022 124.319 229.834 116.409 214.974 45.7247Z" fill="#3C83D7"/>
<path d="M213.716 54.5211C213.695 54.7193 213.675 54.8863 213.643 55.0637L213.56 55.5854L213.384 56.6393C213.259 57.3384 213.124 58.0376 212.999 58.7263C212.729 60.1141 212.438 61.5019 212.137 62.8897C211.534 65.6549 210.848 68.4096 210.131 71.1539C209.414 73.8983 208.624 76.6217 207.772 79.3243C206.92 82.0268 206.026 84.719 205.049 87.3798C203.106 92.7015 200.872 97.9293 198.274 102.98C197.952 103.616 197.599 104.232 197.266 104.858L196.757 105.797C196.58 106.11 196.404 106.413 196.227 106.715C195.863 107.331 195.52 107.947 195.157 108.552L194.034 110.357C192.486 112.736 190.844 115.053 189.036 117.233C189.005 117.275 188.932 117.286 188.89 117.244C188.849 117.213 188.838 117.15 188.87 117.098C190.595 114.854 192.185 112.527 193.66 110.127L194.751 108.312C195.115 107.707 195.448 107.08 195.79 106.465C195.957 106.152 196.133 105.849 196.31 105.536L196.798 104.597C197.121 103.971 197.464 103.355 197.775 102.719C199.053 100.204 200.228 97.6267 201.34 95.0389C202.452 92.4406 203.46 89.8007 204.457 87.1607C206.421 81.8599 208.105 76.4547 209.622 71.0078C210.38 68.2844 211.087 65.5401 211.742 62.7958C212.074 61.4184 212.386 60.041 212.687 58.6637C212.833 57.975 212.978 57.2758 213.124 56.5872L213.332 55.5437L213.425 55.022C213.456 54.855 213.488 54.6672 213.508 54.5107V54.4898C213.519 54.4376 213.571 54.3959 213.623 54.4063C213.675 54.4167 213.716 54.4689 213.716 54.5211Z" fill="#DDEBFF"/>
<path d="M190.823 137.936C190.823 139.438 189.597 140.67 188.101 140.67H40.9434C39.447 140.67 38.2207 139.438 38.2207 137.936L36.9945 53.0185C36.9945 51.5159 38.7611 48.5838 41.9825 48.8029L185.804 45.0673C187.685 45.0151 189.493 45.7456 190.823 47.0708C192.153 48.4064 192.881 50.222 192.839 52.1003L190.823 137.936Z" fill="#00417C"/>
<path d="M188.132 135.317C188.132 136.736 186.978 137.904 185.555 137.904H44.4974C43.0841 137.904 41.9202 136.746 41.9202 135.317L40.7667 58.2254C40.9018 53.582 44.9546 51.9229 47.407 52.0168L185.243 48.302C186.563 48.2707 187.841 48.782 188.776 49.7107C189.711 50.6498 190.22 51.9229 190.189 53.2481L188.132 135.317Z" fill="#DDEBFF"/>
<path d="M201.984 145H30.0528C29.6268 145 29.2734 144.645 29.2734 144.217V138.322C29.2734 137.894 29.6268 137.539 30.0528 137.539H201.984C202.41 137.539 202.763 137.894 202.763 138.322V144.217C202.763 144.645 202.41 145 201.984 145Z" fill="#00417C"/>
<path d="M143.219 2.48346L94.5127 42.9073C95.4583 43.3665 96.5287 43.596 97.6614 43.5438L189.929 38.7126C191.519 38.6291 192.943 37.9822 194.024 36.9596L157.819 2.90085C153.881 -0.803458 147.396 -0.980847 143.219 2.48346Z" fill="#0557A3"/>
<path d="M188.08 111.943H99.2513C95.6662 111.943 92.7565 109.021 92.7565 105.421V47.3421C92.7565 43.8778 95.4479 41.0291 98.8876 40.8308L191.135 35.6657C195.001 35.4465 198.191 38.65 197.983 42.5317L194.554 105.776C194.377 109.24 191.53 111.943 188.08 111.943Z" fill="#0557A3"/>
<path d="M145.744 76.9034L194.294 36.3022C193.348 35.8535 192.278 35.6135 191.145 35.6761L98.8979 40.8413C97.308 40.9352 95.8843 41.5821 94.8036 42.6047L131.143 76.5382C135.082 80.2217 141.577 80.3782 145.744 76.9034Z" fill="#3C83D7"/>
<mask id="mask0_643_3498" style="mask-type:luminance" maskUnits="userSpaceOnUse" x="95" y="4" width="99" height="76">
<path d="M145.744 76.9034L192.746 37.5961C193.473 36.9804 193.109 35.7909 192.164 35.697C191.831 35.6657 191.499 4.74778 191.156 4.76865L98.8876 9.92337C97.7861 9.98598 96.7677 41.2273 95.8844 41.7699C95.2817 42.1352 95.2089 42.9908 95.7285 43.4708L131.144 76.5382C135.082 80.2217 141.577 80.3782 145.744 76.9034Z" fill="white"/>
</mask>
<g mask="url(#mask0_643_3498)">
<path d="M175.329 87.5677H113.976V17.572C113.976 14.8903 116.055 12.6781 118.725 12.5216L170.008 9.55816C172.897 9.3912 175.329 11.6973 175.329 14.6085V87.5677Z" fill="#81BBFF"/>
</g>
<mask id="mask1_643_3498" style="mask-type:luminance" maskUnits="userSpaceOnUse" x="95" y="4" width="99" height="76">
<path d="M145.744 76.9034L192.746 37.5961C193.473 36.9804 193.109 35.7909 192.164 35.697C191.831 35.6657 191.499 4.74778 191.156 4.76865L98.8876 9.92337C97.7861 9.98598 96.7677 41.2273 95.8844 41.7699C95.2817 42.1352 95.2089 42.9908 95.7285 43.4708L131.144 76.5382C135.082 80.2217 141.577 80.3782 145.744 76.9034Z" fill="white"/>
</mask>
<g mask="url(#mask1_643_3498)">
<path d="M173.23 87.5677H116.075V22.3615C116.075 19.8676 118.019 17.8015 120.492 17.6555L168.273 14.8903C170.965 14.7337 173.23 16.8833 173.23 19.5963V87.5677Z" fill="#DDEBFF"/>
</g>
<path d="M144.518 50.5977C151.261 50.5977 156.728 45.1083 156.728 38.3369C156.728 31.5655 151.261 26.0762 144.518 26.0762C137.774 26.0762 132.307 31.5655 132.307 38.3369C132.307 45.1083 137.774 50.5977 144.518 50.5977Z" fill="#3C83D7"/>
<path d="M145.32 48.9688C151.017 48.6718 155.396 43.7933 155.1 38.0724C154.804 32.3515 149.946 27.9546 144.248 28.2517C138.551 28.5487 134.172 33.4272 134.468 39.1481C134.764 44.869 139.622 49.2659 145.32 48.9688Z" fill="#FEFEFE"/>
<path d="M147.947 34.6848C147.947 36.4378 146.534 38.3369 144.777 38.3369C143.032 38.3369 141.608 36.4378 141.608 34.6848C141.608 32.9318 143.021 31.6796 144.777 31.6796C146.523 31.6796 147.947 32.9318 147.947 34.6848Z" fill="#3C83D7"/>
<path d="M140.849 45.109H148.581C149.391 45.109 150.119 44.5769 150.368 43.8047L150.784 42.5004C151.085 41.5404 150.597 40.5073 149.651 40.163C146.502 39.0048 143.25 39.1508 139.914 40.2674C138.979 40.5804 138.459 41.5821 138.719 42.5317L139.041 43.7212C139.259 44.5351 139.997 45.109 140.849 45.109Z" fill="#3C83D7"/>
<path d="M124.586 58.2567V58.8202C124.586 60.4793 125.979 61.8045 127.631 61.7106L163.628 59.7489C165.197 59.6654 166.403 58.3298 166.351 56.7541L166.288 54.9176C166.236 53.2585 164.792 51.9855 163.15 52.1316L127.215 55.3767C125.719 55.5124 124.586 56.7646 124.586 58.2567Z" fill="#FEFEFE"/>
<path d="M125.698 68.8061C125.615 70.4548 126.914 71.8426 128.556 71.8531L160.365 72.0931C161.965 72.1035 163.264 70.8096 163.275 69.2027L163.285 66.5105C163.285 64.8201 161.861 63.4845 160.178 63.6097L128.359 66.0618C126.914 66.1766 125.771 67.3557 125.698 68.8061Z" fill="#FEFEFE"/>
<path d="M132.526 57.015L131.642 58.5071V58.528L133.201 58.1837L133.253 58.9558L131.663 58.8723V58.8932L132.765 60.1767L132.141 60.6358L131.393 59.1019H131.372L130.811 60.7506L130.187 60.3854L131.081 58.935V58.9141L129.554 59.248L129.502 58.4758L131.05 58.5802V58.5593L129.969 57.255L130.582 56.8063L131.351 58.3297H131.372L131.892 56.7019L132.526 57.015Z" fill="#3C83D7"/>
<path d="M136.859 56.6915L135.976 58.1837V58.2045L137.534 57.8602L137.586 58.6324L135.996 58.5489V58.5697L137.098 59.8532L136.474 60.3123L135.726 58.7784H135.705L135.144 60.4271L134.521 60.0619L135.414 58.6115V58.5906L133.887 58.9245L133.835 58.1524L135.383 58.2567V58.2358L134.303 56.9315L134.916 56.4828L135.685 58.0063H135.705L136.225 56.3785L136.859 56.6915Z" fill="#3C83D7"/>
<path d="M141.203 56.368L140.319 57.8602V57.8811L141.878 57.5367L141.93 58.3089L140.34 58.2254V58.2463L141.442 59.5297L140.818 59.9889L140.07 58.455H140.049L139.488 60.1036L138.865 59.7384L139.758 58.288V58.2671L138.231 58.601L138.179 57.8289L139.727 57.9332V57.9124L138.646 56.608L139.259 56.1593L140.028 57.6828H140.049L140.569 56.055L141.203 56.368Z" fill="#3C83D7"/>
<path d="M145.536 56.0446L144.653 57.5367V57.5576L146.212 57.2132L146.263 57.9854L144.674 57.9019V57.9228L145.775 59.2063L145.152 59.6654L144.403 58.1315H144.383L143.821 59.7802L143.198 59.415L144.092 57.9645V57.9437L142.564 58.2776L142.512 57.5054L144.06 57.6098V57.5889L142.98 56.2846L143.593 55.8359L144.362 57.3593H144.383L144.902 55.7315L145.536 56.0446Z" fill="#3C83D7"/>
<path d="M149.869 55.7107L148.986 57.2028V57.2237L150.545 56.8793L150.597 57.6515L149.007 57.568V57.5889L150.108 58.8724L149.485 59.3315L148.737 57.7976H148.716L148.155 59.4463L147.531 59.081L148.425 57.6306V57.6098L146.897 57.9437L146.845 57.1715L148.394 57.2759V57.255L147.313 55.9506L147.926 55.502L148.695 57.0254H148.716L149.235 55.3976L149.869 55.7107Z" fill="#3C83D7"/>
<path d="M154.63 58.1378L151.49 58.3724L151.549 59.1632L154.688 58.9286L154.63 58.1378Z" fill="#3C83D7"/>
<path d="M33.4199 125.56C33.025 126.145 31.4455 139.47 31.2064 144.384C31.1857 144.718 31.4558 144.99 31.7884 144.99C32.0794 144.99 32.3184 144.781 32.3599 144.499L35.2384 125.978L33.4199 125.56Z" fill="#81BBFF"/>
<path d="M46.0666 125.56C46.4615 126.145 48.041 139.47 48.28 144.384C48.3008 144.718 48.0306 144.99 47.6981 144.99C47.4071 144.99 47.1681 144.781 47.1266 144.499L44.248 125.978L46.0666 125.56Z" fill="#81BBFF"/>
<path d="M31.0401 124.517V124.663C31.0297 125.706 31.9234 126.562 33.0457 126.583L46.3471 126.812C47.4487 126.833 48.3735 126.03 48.4255 124.997L48.4359 124.861C48.4878 123.786 47.5837 122.889 46.4303 122.868L33.1185 122.628C31.9858 122.607 31.0505 123.452 31.0401 124.517Z" fill="#81BBFF"/>
<path d="M56.9157 143.904C54.5464 143.904 53.5072 143.696 53.0396 143.518C53.1331 143.904 53.476 144.217 53.9125 144.217H62.2778C62.5584 144.217 62.735 143.946 62.6727 143.706C61.7166 143.769 59.6903 143.904 56.9157 143.904Z" fill="#DDEBFF"/>
<path d="M62.6726 143.696C62.6622 143.643 62.6415 143.602 62.5999 143.55C61.966 142.736 60.6774 141.452 58.942 141.473C56.3856 141.504 55.5023 141.786 53.5175 141.484L53.0499 143.038C52.9979 143.195 52.9979 143.351 53.0395 143.508C53.5071 143.696 54.5567 143.894 56.9156 143.894C59.6902 143.904 61.7166 143.769 62.6726 143.696Z" fill="#DDEBFF"/>
<path d="M54.0994 139.814L53.5278 141.776C53.5278 141.776 54.7956 142.36 55.9179 141.89L56.1362 140.19L54.0994 139.814Z" fill="#F9FAFB"/>
<path d="M71.4328 142.663C69.5935 144.155 68.6478 144.645 68.1698 144.802C68.4816 145.052 68.9388 145.073 69.2817 144.791L75.8077 139.532C76.0259 139.355 75.9948 139.031 75.7973 138.885C75.1011 139.543 73.5943 140.92 71.4328 142.663Z" fill="#DDEBFF"/>
<path d="M75.7869 138.885C75.7454 138.854 75.7038 138.833 75.6414 138.812C74.6335 138.583 72.8461 138.384 71.5055 139.501C69.5415 141.129 69.0219 141.911 67.2865 142.923L67.8892 144.426C67.9516 144.583 68.0451 144.708 68.1698 144.791C68.6478 144.645 69.5935 144.144 71.4328 142.652C73.5943 140.92 75.1011 139.543 75.7869 138.885Z" fill="#DDEBFF"/>
<path d="M41.8164 117.473C41.8164 117.473 55.9803 118.632 58.8796 120.009C61.7893 121.386 56.5103 140.628 56.5103 140.628C56.5103 140.628 55.7205 141.014 53.9643 140.461C53.9643 140.461 55.7725 126.259 54.4215 123.181L39.0938 120.666L41.8164 117.473Z" fill="#3C83D7"/>
<path d="M65.8837 140.231C66.0188 140.357 67.2865 142.934 67.2865 142.934C67.2865 142.934 68.7102 142.621 68.9908 141.724L67.7126 139.397L65.8837 140.231Z" fill="#F9FAFB"/>
<path d="M33.2848 117.359C33.2848 117.359 32.8276 118.475 32.8379 119.957C32.8691 122.002 34.5006 123.672 36.5374 123.765L53.2785 124.527C53.6318 124.548 53.9331 124.788 54.0163 125.132C54.4112 126.656 56.3336 131.351 65.7277 140.711C65.9771 140.962 66.372 141.004 66.663 140.816L68.0035 139.971C68.149 139.877 68.1906 139.699 68.1074 139.553L58.36 122.837C57.8508 121.992 57.0299 121.376 56.0634 121.126L41.7956 117.463L33.2848 117.359Z" fill="#3C83D7"/>
<path d="M49.7765 91.2511C49.7765 91.2511 47.9787 94.4337 46.1602 95.978L49.9427 98.0962C49.9427 98.0962 50.7949 94.7258 52.7381 93.7345L49.7765 91.2511Z" fill="url(#paint0_linear_643_3498)"/>
<path d="M32.9834 117.473C32.9834 117.473 37.5038 118.579 41.8164 117.473C41.8164 117.473 47.854 109.324 50.1817 107.112C50.1817 107.112 53.9019 113.018 62.1945 113.853L62.6518 112.82C62.6518 112.82 56.053 109.762 54.0162 105.067C51.9795 100.371 51.1689 98.3675 49.3192 97.1467C48.1657 96.3849 47.4799 95.8632 47.1265 95.5815C46.9291 95.425 46.6589 95.4041 46.4511 95.5397C44.4974 96.7293 35.2696 103.084 32.9834 117.473Z" fill="#81BBFF"/>
<path d="M47.7085 102.729C47.7085 102.729 48.5087 104.837 49.9427 106.705L47.7085 102.729Z" fill="#00417C"/>
<path d="M65.5244 111.602L65.5244 111.602L65.5271 111.602C65.8014 111.535 66.0858 111.584 66.3328 111.737C66.333 111.738 66.3332 111.738 66.3334 111.738L68.0302 112.808L62.3142 112.799L62.0834 112.422L62.6916 112.259L65.5244 111.602Z" fill="#FEFEFE" stroke="#00417C" stroke-width="0.5"/>
<path d="M49.621 92.2889L49.6211 92.2889L49.621 92.2864L49.621 92.2864L49.621 92.2861L49.6209 92.2848L49.6208 92.2792L49.6202 92.2564C49.6197 92.2361 49.619 92.2059 49.6185 92.167C49.6174 92.0893 49.6166 91.977 49.6178 91.8396C49.6204 91.5643 49.6313 91.1902 49.6644 90.7932C49.6976 90.3949 49.7527 89.9801 49.8417 89.621C49.933 89.2531 50.0513 88.9807 50.1881 88.8335L50.1881 88.8335L50.1893 88.8322C50.2224 88.7961 50.3108 88.7451 50.4989 88.7116C50.6785 88.6797 50.9114 88.6701 51.186 88.6808C51.7339 88.7021 52.4077 88.8021 53.0691 88.9284C53.7286 89.0544 54.3669 89.2048 54.841 89.324C55.0779 89.3835 55.2733 89.4351 55.4094 89.4718C55.4155 89.4734 55.4215 89.475 55.4274 89.4766C55.4215 89.5666 55.4132 89.684 55.4024 89.8233C55.3759 90.1622 55.334 90.6295 55.2722 91.1429C55.1473 92.1804 54.9448 93.3704 54.6386 94.0847C54.558 94.2727 54.485 94.4542 54.4166 94.6245L54.4134 94.6324C54.3436 94.8061 54.279 94.9669 54.2138 95.116C54.0823 95.4173 53.9577 95.6494 53.8104 95.8167C53.6695 95.9766 53.5076 96.0775 53.2878 96.116C53.0593 96.1561 52.749 96.1318 52.3116 95.9996C50.6 95.482 49.6605 94.043 49.621 92.2889ZM50.005 88.6633C50.722 87.8807 55.6893 89.2894 55.6893 89.2894L50.005 88.6633Z" fill="#FEFEFE" stroke="#00417C" stroke-width="0.5"/>
<path d="M50.3791 91.8354C50.3791 91.8354 50.8052 89.8215 49.7556 89.9259C48.7164 90.0302 49.1737 92.1276 49.7868 92.5137L50.3791 91.8354Z" fill="#FEFEFE"/>
<path d="M55.045 91.105C55.4607 91.1572 55.814 90.8337 55.8348 90.4268C55.8972 88.8302 55.575 85.6372 52.0003 85.4807C47.2201 85.272 46.3056 89.1746 47.3863 90.7711C48.3112 92.1485 47.3552 94.4128 47.0538 95.0284C46.9914 95.1537 46.9707 95.2893 46.9914 95.425C47.0642 95.9258 47.4695 97.0945 49.4855 97.5954C49.8076 97.6788 50.1401 97.5119 50.296 97.2197L50.6389 96.5102C50.8052 96.1658 51.2105 96.0197 51.5638 96.1763C52.1146 96.4267 52.9563 96.6771 53.6941 96.3954C54.5462 96.0719 54.9619 94.4963 55.149 93.5676C55.2217 93.1815 54.9723 92.8163 54.5982 92.7328L53.4135 92.4928C53.081 92.4302 52.842 92.138 52.842 91.7937C52.842 91.4076 53.1433 91.0946 53.5278 91.0841C53.9643 91.0528 54.567 91.0528 55.045 91.105Z" fill="#00417C"/>
<path d="M59.0977 114.395C59.1081 114.395 59.1185 114.395 59.1289 114.395L73.5007 114.385C73.854 114.385 74.1449 114.093 74.1449 113.738C74.1449 113.383 73.854 113.091 73.5007 113.091L59.1289 113.101C58.7756 113.101 58.4846 113.393 58.4846 113.748C58.495 114.093 58.7652 114.374 59.0977 114.395Z" fill="#00417C"/>
<path d="M79.0707 100.267C79.0707 100.277 79.0603 100.288 79.0603 100.298L73.0123 113.393C72.8668 113.717 73.0019 114.103 73.3241 114.249C73.6462 114.395 74.0307 114.26 74.1762 113.936L80.2242 100.83C80.3696 100.507 80.2346 100.121 79.9124 99.9745C79.6007 99.8284 79.2266 99.964 79.0707 100.267Z" fill="#00417C"/>
<path d="M65.499 115.115C65.4367 115.376 59.4407 137.957 57.9235 143.685C57.7468 144.343 58.2352 144.99 58.9107 144.99C59.3783 144.99 59.7836 144.666 59.8979 144.207L66.559 117.108L65.499 115.115Z" fill="#81BBFF"/>
<path d="M68.7829 115.115C68.8452 115.376 74.8412 137.957 76.3584 143.685C76.5351 144.343 76.0467 144.99 75.3712 144.99C74.9036 144.99 74.4983 144.666 74.384 144.207L67.7229 117.108L68.7829 115.115Z" fill="#81BBFF"/>
<path d="M69.0323 114.385H65.3016V117.4C65.3016 117.828 65.6446 118.183 66.0706 118.183H66.5798V124.945C66.5798 125.268 66.8396 125.539 67.1618 125.539C67.4839 125.539 67.7437 125.279 67.7437 124.945V118.183H68.0035C68.5646 118.183 69.0219 117.713 69.0219 117.139V114.385H69.0323Z" fill="#81BBFF"/>
<path d="M56.1153 113.654H76.9715C77.2625 113.654 77.5223 113.853 77.595 114.145L77.886 115.293C77.9899 115.71 77.6782 116.106 77.2625 116.106L55.8659 115.981C55.4503 115.981 55.1489 115.585 55.2528 115.178L55.5022 114.155C55.5646 113.863 55.8244 113.654 56.1153 113.654Z" fill="#3C83D7"/>
<path d="M69.9779 107.633C69.9051 107.633 69.8428 107.613 69.7804 107.56C69.6245 107.425 69.4583 107.289 69.3128 107.154C69.1881 107.039 69.1777 106.84 69.292 106.715C69.4063 106.59 69.6037 106.58 69.7284 106.694C69.8739 106.83 70.0298 106.966 70.1857 107.091C70.3104 107.195 70.3312 107.394 70.2272 107.529C70.1441 107.592 70.061 107.633 69.9779 107.633ZM68.4918 106.225C68.4087 106.225 68.3256 106.194 68.2632 106.131C68.1177 105.974 67.9826 105.828 67.8475 105.661C67.7332 105.536 67.754 105.338 67.8787 105.223C68.0034 105.108 68.2009 105.129 68.3152 105.254C68.4503 105.411 68.5854 105.557 68.7204 105.703C68.8348 105.828 68.8348 106.027 68.7101 106.141C68.6373 106.194 68.5646 106.225 68.4918 106.225ZM67.1825 104.649C67.089 104.649 66.9954 104.607 66.9331 104.524C66.8084 104.357 66.6941 104.19 66.5694 104.013C66.4758 103.877 66.507 103.679 66.6525 103.585C66.7876 103.491 66.985 103.522 67.0786 103.668C67.1929 103.835 67.3072 104.002 67.4215 104.159C67.5254 104.294 67.4942 104.493 67.3591 104.587C67.3072 104.628 67.2448 104.649 67.1825 104.649ZM66.0706 102.927C65.9666 102.927 65.8627 102.875 65.8004 102.771C65.6965 102.594 65.5925 102.406 65.499 102.228C65.4159 102.082 65.4782 101.894 65.6237 101.811C65.7692 101.727 65.9563 101.79 66.0394 101.936C66.1329 102.114 66.2264 102.291 66.3304 102.468C66.4135 102.614 66.3615 102.802 66.216 102.886C66.1745 102.917 66.1225 102.927 66.0706 102.927ZM65.1561 101.101C65.0418 101.101 64.9275 101.028 64.8755 100.914C64.7924 100.726 64.7092 100.527 64.6365 100.34C64.5742 100.183 64.6469 100.006 64.8028 99.9432C64.9586 99.8805 65.1353 99.9536 65.1977 100.11C65.2704 100.298 65.3535 100.486 65.4367 100.663C65.5094 100.82 65.4367 100.997 65.2808 101.07C65.2392 101.091 65.1977 101.101 65.1561 101.101ZM64.4287 99.1814C64.304 99.1814 64.1793 99.0979 64.1377 98.9727C64.0754 98.7745 64.013 98.5762 63.9507 98.378C63.8987 98.211 63.9922 98.044 64.1585 97.9919C64.3248 97.9397 64.491 98.0336 64.543 98.2006C64.5949 98.3988 64.6573 98.5867 64.7196 98.7849C64.7716 98.9519 64.6885 99.1188 64.5222 99.171C64.491 99.171 64.4598 99.1814 64.4287 99.1814ZM63.8987 97.1988C63.7532 97.1988 63.6285 97.1049 63.5973 96.9588C63.5558 96.7606 63.5142 96.5519 63.4726 96.3432C63.4415 96.1762 63.5454 96.0197 63.7116 95.9884C63.8779 95.9571 64.0338 96.0615 64.065 96.2284C64.1065 96.4267 64.1377 96.6249 64.1897 96.8232C64.2208 96.9902 64.1169 97.1571 63.961 97.1884C63.9403 97.1988 63.9195 97.1988 63.8987 97.1988ZM63.5558 95.185C63.3999 95.185 63.2752 95.0702 63.2544 94.9136C63.2336 94.705 63.2024 94.4963 63.1921 94.298C63.1713 94.1311 63.296 93.9745 63.4726 93.9641C63.6389 93.9432 63.7948 94.0684 63.8052 94.2458C63.8259 94.4441 63.8467 94.6528 63.8675 94.851C63.8883 95.018 63.7636 95.1745 63.5973 95.1954C63.5765 95.185 63.5662 95.185 63.5558 95.185ZM63.3999 93.1398C63.2336 93.1398 63.0985 93.0041 63.0985 92.8372C63.0881 92.6285 63.0881 92.4198 63.0881 92.2111C63.0881 92.0441 63.2232 91.898 63.3895 91.898C63.5558 91.898 63.6909 92.0337 63.6909 92.2006C63.6909 92.3989 63.6909 92.6076 63.7012 92.8059C63.7116 92.9937 63.5765 93.1293 63.3999 93.1398ZM63.4311 91.0841C63.4207 91.0841 63.4207 91.0841 63.4103 91.0841C63.244 91.0737 63.1089 90.9276 63.1193 90.7607C63.1297 90.552 63.1505 90.3433 63.1609 90.1346C63.1713 89.9676 63.3271 89.8424 63.4934 89.8528C63.6597 89.8633 63.7844 90.0198 63.774 90.1868C63.7532 90.385 63.7428 90.5937 63.7324 90.792C63.722 90.9589 63.5869 91.0841 63.4311 91.0841ZM63.6493 89.0494C63.6389 89.0494 63.6181 89.0494 63.6077 89.0494C63.4415 89.0285 63.3271 88.872 63.3479 88.6946C63.3791 88.4859 63.4103 88.2876 63.4518 88.0789C63.483 87.912 63.6389 87.7972 63.8052 87.8285C63.9714 87.8598 64.0857 88.0163 64.0546 88.1833C64.0234 88.3816 63.9818 88.5798 63.9507 88.7781C63.9195 88.9346 63.7948 89.0494 63.6493 89.0494ZM64.0442 87.0355C64.0234 87.0355 63.9922 87.0355 63.9714 87.0251C63.8052 86.9833 63.7116 86.8164 63.7532 86.6494C63.8052 86.4511 63.8571 86.2424 63.9091 86.0442C63.9507 85.8772 64.1273 85.7833 64.2832 85.8355C64.4495 85.8772 64.543 86.0546 64.491 86.2111C64.4391 86.4094 64.3871 86.5972 64.3351 86.7955C64.304 86.9416 64.1793 87.0355 64.0442 87.0355ZM64.6365 85.0738C64.6053 85.0738 64.5638 85.0633 64.5326 85.0529C64.3767 85.0007 64.2936 84.8233 64.3455 84.6564C64.4183 84.4581 64.491 84.2599 64.5638 84.072C64.6261 83.9155 64.8028 83.832 64.9586 83.8947C65.1145 83.9573 65.1977 84.1346 65.1353 84.2912C65.0626 84.479 64.9898 84.6668 64.9275 84.8546C64.8755 84.9903 64.7612 85.0738 64.6365 85.0738ZM65.4055 83.1747C65.3639 83.1747 65.3224 83.1642 65.2808 83.1434C65.1249 83.0703 65.0626 82.8929 65.1353 82.7364C65.2184 82.5486 65.312 82.3608 65.4055 82.1729C65.4782 82.0164 65.6653 81.9538 65.8108 82.0373C65.9666 82.1103 66.029 82.2981 65.9459 82.4442C65.8523 82.6216 65.7692 82.8095 65.6861 82.9973C65.6341 83.1121 65.5198 83.1747 65.4055 83.1747ZM66.3407 81.3486C66.2888 81.3486 66.2368 81.3382 66.1849 81.3069C66.0394 81.2234 65.9874 81.0356 66.0706 80.8895C66.1745 80.7121 66.2784 80.5243 66.3823 80.3469C66.4654 80.2008 66.6629 80.159 66.798 80.2425C66.9435 80.326 66.985 80.5243 66.9019 80.6599C66.798 80.8373 66.6941 81.0043 66.6005 81.1816C66.5486 81.2964 66.4447 81.3486 66.3407 81.3486ZM67.4215 79.606C67.3591 79.606 67.3072 79.5851 67.2448 79.5538C67.1097 79.4599 67.0682 79.2617 67.1617 79.126C67.276 78.9591 67.4007 78.7817 67.515 78.6147C67.6085 78.4791 67.806 78.4478 67.9411 78.5417C68.0762 78.6356 68.1073 78.8338 68.0138 78.9695C67.8995 79.1364 67.7852 79.3034 67.6709 79.4704C67.6189 79.5643 67.515 79.606 67.4215 79.606ZM68.6373 77.9573C68.575 77.9573 68.5022 77.9365 68.4503 77.8947C68.3152 77.7904 68.2944 77.5921 68.3983 77.4669C68.523 77.3 68.6581 77.1434 68.7932 76.9869C68.8971 76.8617 69.0946 76.8408 69.2296 76.9452C69.3543 77.0495 69.3751 77.2478 69.2712 77.3834C69.1465 77.5399 69.0114 77.6965 68.8867 77.853C68.814 77.9156 68.7205 77.9573 68.6373 77.9573ZM69.9675 76.413C69.8947 76.413 69.822 76.3817 69.7596 76.3295C69.6349 76.2147 69.6245 76.0165 69.7388 75.8913C69.8843 75.7347 70.0194 75.5887 70.1649 75.4426C70.2792 75.3174 70.4767 75.3174 70.6014 75.4321C70.7261 75.5469 70.7261 75.7452 70.6117 75.8704C70.4663 76.0165 70.3312 76.1626 70.1961 76.3087C70.1337 76.3713 70.0506 76.413 69.9675 76.413ZM71.4119 74.9626C71.3288 74.9626 71.2456 74.9313 71.1833 74.8687C71.069 74.7435 71.0794 74.5452 71.1937 74.4304C71.3496 74.2843 71.495 74.1487 71.6509 74.013C71.7756 73.8983 71.9731 73.9087 72.0874 74.0339C72.2017 74.1591 72.1913 74.3574 72.0666 74.4722C71.9211 74.6078 71.7652 74.7435 71.6197 74.8791C71.5574 74.9313 71.4846 74.9626 71.4119 74.9626ZM72.9499 73.6061C72.8564 73.6061 72.7732 73.5643 72.7109 73.4913C72.607 73.3556 72.6277 73.1678 72.7524 73.0635C72.9083 72.9278 73.0746 72.8026 73.2305 72.6774C73.3656 72.5731 73.5526 72.5939 73.6565 72.7296C73.7604 72.8652 73.7397 73.053 73.6046 73.1574C73.4487 73.2826 73.2824 73.4078 73.1265 73.533C73.085 73.5852 73.0226 73.6061 72.9499 73.6061ZM74.571 72.3644C74.4775 72.3644 74.3839 72.3226 74.3216 72.2391C74.2281 72.1035 74.2592 71.9052 74.3943 71.8113C74.5606 71.6965 74.7269 71.5713 74.9035 71.4565C75.0386 71.3626 75.2361 71.3939 75.3296 71.54C75.4231 71.6757 75.3919 71.8739 75.2464 71.9678C75.0802 72.0826 74.9139 72.1974 74.7476 72.3122C74.6957 72.3539 74.6333 72.3644 74.571 72.3644ZM76.2752 71.227C76.1713 71.227 76.0778 71.1748 76.0154 71.0809C75.9219 70.9348 75.9739 70.747 76.109 70.6531C76.2856 70.5487 76.4623 70.4339 76.6389 70.3296C76.7844 70.2461 76.9715 70.2879 77.0546 70.4339C77.1377 70.58 77.0962 70.7679 76.9507 70.8513C76.774 70.9557 76.6078 71.06 76.4311 71.1644C76.3895 71.2165 76.3272 71.227 76.2752 71.227ZM78.0418 70.2044C77.9379 70.2044 77.8236 70.1418 77.7716 70.0479C77.6885 69.9018 77.7509 69.714 77.8963 69.6305C78.073 69.5366 78.2601 69.4322 78.4471 69.3383C78.603 69.2548 78.7796 69.3174 78.8628 69.474C78.9355 69.62 78.8836 69.8079 78.7277 69.8913C78.551 69.9853 78.364 70.0792 78.1873 70.1731C78.1354 70.1939 78.0938 70.2044 78.0418 70.2044ZM79.8708 69.2757C79.7565 69.2757 79.6422 69.2131 79.5902 69.0983C79.5175 68.9418 79.5902 68.7644 79.7357 68.6914C79.9227 68.6079 80.1098 68.514 80.2968 68.4305C80.4527 68.3574 80.6294 68.4305 80.7021 68.587C80.7748 68.7435 80.7021 68.9209 80.5462 68.994C80.3592 69.0774 80.1721 69.1609 79.9955 69.2444C79.9539 69.2757 79.9123 69.2757 79.8708 69.2757ZM81.7413 68.4722C81.6166 68.4722 81.5023 68.3992 81.4607 68.274C81.3984 68.1175 81.4711 67.9401 81.6374 67.8775C81.8244 67.8044 82.0219 67.7314 82.2193 67.6583C82.3752 67.5957 82.5518 67.6792 82.6142 67.8357C82.6765 67.9922 82.5934 68.1696 82.4375 68.2322C82.2505 68.3053 82.0634 68.3783 81.866 68.4514C81.814 68.4618 81.7828 68.4722 81.7413 68.4722ZM83.6637 67.7731C83.539 67.7731 83.4143 67.6896 83.3728 67.5644C83.3208 67.4079 83.404 67.2305 83.5702 67.1783C83.7677 67.1157 83.9651 67.0531 84.1626 66.9905C84.3288 66.9383 84.4951 67.0322 84.547 67.1888C84.599 67.3557 84.5055 67.5227 84.3496 67.5748C84.1522 67.6375 83.9651 67.7001 83.7677 67.7627C83.7261 67.7627 83.6949 67.7731 83.6637 67.7731ZM85.6174 67.1783C85.4823 67.1783 85.3576 67.0844 85.3264 66.9488C85.2849 66.7818 85.3784 66.6149 85.5446 66.5731C85.7421 66.5209 85.9395 66.4688 86.137 66.4166C86.3032 66.3749 86.4695 66.4688 86.5111 66.6357C86.5526 66.8027 86.4591 66.9696 86.2929 67.0114C86.0954 67.0636 85.898 67.1157 85.7005 67.1679C85.6693 67.1783 85.6486 67.1783 85.6174 67.1783ZM87.6022 66.6879C87.4567 66.6879 87.332 66.594 87.3008 66.4479C87.2593 66.281 87.3736 66.114 87.5295 66.0827C87.7269 66.041 87.9347 65.9992 88.1322 65.9575C88.2985 65.9262 88.4647 66.0305 88.4959 66.1975C88.5271 66.3644 88.4232 66.5314 88.2569 66.5627C88.0594 66.6044 87.862 66.6462 87.6646 66.6879C87.6438 66.6879 87.623 66.6879 87.6022 66.6879ZM108.199 66.3436C108.188 66.3436 108.167 66.3436 108.157 66.3436L107.876 66.3018C107.71 66.281 107.596 66.1244 107.617 65.9575C107.637 65.7905 107.793 65.6757 107.96 65.6966L108.24 65.7383C108.406 65.7592 108.521 65.9157 108.5 66.0827C108.479 66.2288 108.354 66.3436 108.199 66.3436ZM89.6078 66.3018C89.4623 66.3018 89.3272 66.1975 89.3065 66.041C89.2753 65.874 89.3896 65.7175 89.5559 65.6862C89.7637 65.6549 89.9611 65.6131 90.169 65.5818C90.3352 65.561 90.4911 65.6653 90.5223 65.8427C90.5535 66.0097 90.4391 66.1662 90.2625 66.1975C90.065 66.2288 89.8572 66.2601 89.6598 66.2914C89.639 66.2914 89.6286 66.3018 89.6078 66.3018ZM106.505 66.1244C106.494 66.1244 106.484 66.1244 106.463 66.1244C106.266 66.1036 106.058 66.0723 105.86 66.0514C105.694 66.0305 105.569 65.8844 105.59 65.707C105.611 65.5401 105.767 65.4149 105.933 65.4357C106.141 65.4566 106.338 65.4879 106.546 65.5088C106.713 65.5297 106.837 65.6862 106.817 65.8531C106.785 66.0096 106.661 66.1244 106.505 66.1244ZM91.6238 65.9992C91.4679 65.9992 91.3432 65.8844 91.3224 65.7279C91.3017 65.561 91.416 65.4044 91.5926 65.3836C91.8005 65.3627 91.9979 65.3314 92.2057 65.3105C92.372 65.2897 92.5279 65.4149 92.5487 65.5818C92.5695 65.7488 92.4448 65.9053 92.2785 65.9262C92.081 65.947 91.8732 65.9783 91.6758 65.9992C91.655 65.9992 91.6446 65.9992 91.6238 65.9992ZM104.468 65.9053C104.458 65.9053 104.447 65.9053 104.437 65.9053C104.239 65.8844 104.032 65.8636 103.834 65.8531C103.668 65.8427 103.543 65.6862 103.554 65.5192C103.564 65.3523 103.72 65.2271 103.886 65.2375C104.094 65.2584 104.291 65.2688 104.499 65.2897C104.665 65.3105 104.79 65.4566 104.78 65.6236C104.759 65.7801 104.634 65.9053 104.468 65.9053ZM93.6606 65.7801C93.5047 65.7801 93.3696 65.6549 93.3592 65.4984C93.3488 65.3314 93.4735 65.1853 93.6398 65.1644C93.8476 65.1436 94.0451 65.1331 94.2529 65.1123C94.4192 65.1018 94.5647 65.2271 94.5854 65.394C94.5958 65.561 94.4711 65.707 94.3049 65.7279C94.1074 65.7384 93.8996 65.7592 93.7022 65.7801C93.6814 65.7801 93.671 65.7801 93.6606 65.7801ZM102.442 65.7383C102.431 65.7383 102.431 65.7383 102.421 65.7383C102.213 65.7279 102.016 65.7175 101.808 65.6966C101.641 65.6862 101.506 65.5401 101.517 65.3731C101.527 65.2062 101.673 65.0705 101.839 65.081C102.047 65.0914 102.244 65.1018 102.452 65.1227C102.618 65.1331 102.753 65.2792 102.733 65.4462C102.733 65.6131 102.597 65.7383 102.442 65.7383ZM95.6974 65.6549C95.5311 65.6549 95.396 65.5297 95.396 65.3627C95.3856 65.1957 95.5207 65.0497 95.687 65.0392C95.8948 65.0288 96.0922 65.0184 96.3001 65.0184C96.4767 65.0079 96.6118 65.1436 96.6118 65.3105C96.6222 65.4775 96.4871 65.6236 96.3209 65.6236C96.113 65.634 95.9156 65.634 95.7078 65.6444C95.7078 65.6549 95.7078 65.6549 95.6974 65.6549ZM100.394 65.634H100.384C100.176 65.6236 99.9787 65.6236 99.7709 65.6131C99.6046 65.6131 99.4696 65.467 99.4696 65.3001C99.4696 65.1331 99.6046 64.9975 99.7813 64.9975C99.9891 64.9975 100.187 65.0079 100.394 65.0184C100.561 65.0288 100.696 65.1644 100.685 65.3314C100.696 65.4983 100.561 65.634 100.394 65.634ZM97.7445 65.6027C97.5783 65.6027 97.4432 65.467 97.4432 65.3001C97.4432 65.1331 97.5783 64.9871 97.7445 64.9871C97.9108 64.9871 98.0771 64.9871 98.2433 64.9871H98.3576C98.5239 64.9871 98.659 65.1227 98.659 65.3001C98.659 65.467 98.5239 65.6027 98.3576 65.6027H98.2433C98.0771 65.5923 97.9108 65.5923 97.7445 65.6027Z" fill="#81BBFF"/>
<path d="M72.8459 105.359C72.742 105.359 72.6485 105.307 72.5861 105.223C72.4718 105.046 72.3575 104.868 72.2536 104.68C72.1705 104.534 72.2224 104.347 72.3679 104.263C72.5134 104.18 72.7004 104.232 72.7836 104.378C72.8875 104.555 72.9914 104.722 73.0953 104.889C73.1889 105.035 73.1473 105.223 73.0122 105.317C72.9706 105.338 72.9083 105.359 72.8459 105.359ZM71.9003 103.543C71.7756 103.543 71.6613 103.47 71.6197 103.355C71.5366 103.157 71.4638 102.959 71.4015 102.761C71.3495 102.604 71.4327 102.427 71.5885 102.374C71.7444 102.322 71.9211 102.406 71.973 102.562C72.0354 102.75 72.1081 102.938 72.1808 103.126C72.2432 103.282 72.1705 103.46 72.0146 103.522C71.9834 103.533 71.9418 103.543 71.9003 103.543ZM71.3183 101.581C71.1729 101.581 71.0482 101.477 71.017 101.331C70.9754 101.122 70.9338 100.914 70.9027 100.705C70.8819 100.538 70.9962 100.381 71.1625 100.35C71.3287 100.329 71.4846 100.444 71.5158 100.611C71.547 100.809 71.5781 101.007 71.6197 101.206C71.6509 101.373 71.547 101.54 71.3807 101.571C71.3599 101.581 71.3391 101.581 71.3183 101.581ZM149.381 100.559C149.173 100.559 148.965 100.548 148.757 100.548C148.591 100.548 148.456 100.402 148.456 100.235C148.456 100.068 148.602 99.9327 148.768 99.9327C148.965 99.9432 149.173 99.9432 149.371 99.9432C149.537 99.9432 149.672 100.089 149.672 100.256C149.693 100.423 149.547 100.559 149.381 100.559ZM150.815 100.548C150.649 100.548 150.514 100.413 150.514 100.246C150.514 100.079 150.638 99.9327 150.815 99.9327C151.012 99.9223 151.22 99.9223 151.418 99.9119C151.594 99.9119 151.729 100.037 151.74 100.204C151.75 100.371 151.615 100.517 151.449 100.528C151.231 100.538 151.023 100.538 150.815 100.548ZM147.344 100.486C147.334 100.486 147.334 100.486 147.323 100.486C147.116 100.475 146.908 100.454 146.71 100.444C146.544 100.434 146.419 100.277 146.43 100.11C146.44 99.9432 146.586 99.8179 146.762 99.8284C146.96 99.8492 147.168 99.8597 147.365 99.8701C147.531 99.8806 147.666 100.027 147.646 100.194C147.635 100.361 147.5 100.486 147.344 100.486ZM152.852 100.434C152.696 100.434 152.561 100.308 152.55 100.152C152.54 99.9849 152.665 99.8284 152.831 99.8179C153.028 99.7971 153.236 99.7762 153.434 99.7553C153.6 99.7345 153.756 99.8597 153.766 100.027C153.787 100.194 153.662 100.35 153.496 100.361C153.288 100.381 153.091 100.402 152.883 100.423C152.873 100.423 152.862 100.434 152.852 100.434ZM145.307 100.298C145.297 100.298 145.287 100.298 145.266 100.298C145.058 100.277 144.861 100.246 144.653 100.214C144.486 100.194 144.372 100.037 144.393 99.8701C144.414 99.7032 144.57 99.5884 144.736 99.6092C144.933 99.6406 145.141 99.6614 145.339 99.6823C145.505 99.7032 145.63 99.8597 145.609 100.027C145.598 100.183 145.463 100.298 145.307 100.298ZM154.878 100.183C154.733 100.183 154.598 100.079 154.577 99.9223C154.556 99.7553 154.67 99.5988 154.837 99.5675C155.034 99.5362 155.242 99.5049 155.439 99.4736C155.606 99.4423 155.761 99.5571 155.793 99.724C155.824 99.891 155.71 100.048 155.543 100.079C155.335 100.11 155.138 100.152 154.93 100.173C154.909 100.183 154.899 100.183 154.878 100.183ZM143.291 99.9953C143.271 99.9953 143.26 99.9953 143.239 99.9953C143.042 99.964 142.834 99.9223 142.637 99.8806C142.47 99.8492 142.356 99.6927 142.387 99.5258C142.419 99.3588 142.574 99.2545 142.741 99.2753C142.938 99.3171 143.136 99.3484 143.343 99.3797C143.51 99.411 143.624 99.5675 143.593 99.7345C143.562 99.891 143.437 99.9953 143.291 99.9953ZM156.894 99.8075C156.749 99.8075 156.624 99.7136 156.593 99.5675C156.562 99.4006 156.666 99.2336 156.821 99.2023C157.019 99.1606 157.216 99.1084 157.414 99.0667C157.58 99.0249 157.746 99.1293 157.788 99.2962C157.829 99.4632 157.726 99.6301 157.559 99.6719C157.362 99.724 157.154 99.7658 156.957 99.8075C156.936 99.8075 156.915 99.8075 156.894 99.8075ZM141.286 99.5988C141.265 99.5988 141.244 99.5988 141.223 99.5884C141.026 99.5466 140.818 99.4945 140.621 99.4527C140.454 99.411 140.351 99.2545 140.392 99.0875C140.434 98.9206 140.59 98.8162 140.756 98.858C140.953 98.8997 141.151 98.9519 141.348 98.9936C141.514 99.0249 141.618 99.1919 141.587 99.3588C141.556 99.5049 141.421 99.5988 141.286 99.5988ZM71.0793 99.5466C70.9131 99.5466 70.778 99.411 70.778 99.244C70.778 99.0979 70.7676 98.9519 70.7676 98.8058C70.7676 98.7432 70.7676 98.6806 70.7676 98.618C70.7676 98.451 70.9131 98.3154 71.0793 98.3154C71.2456 98.3154 71.3807 98.4614 71.3807 98.6284C71.3807 98.691 71.3807 98.7432 71.3807 98.8058C71.3807 98.9519 71.3807 99.0875 71.3911 99.2336C71.3911 99.4006 71.256 99.5362 71.0793 99.5466ZM158.869 99.3066C158.734 99.3066 158.609 99.2232 158.578 99.0875C158.526 98.9206 158.619 98.7536 158.785 98.7014C158.983 98.6493 159.17 98.5867 159.367 98.524C159.523 98.4719 159.7 98.5658 159.752 98.7223C159.804 98.8893 159.71 99.0562 159.554 99.1084C159.357 99.171 159.16 99.2336 158.962 99.2858C158.931 99.2962 158.9 99.3066 158.869 99.3066ZM139.301 99.1293C139.28 99.1293 139.249 99.1293 139.228 99.1188C139.031 99.0667 138.833 99.0145 138.636 98.9623C138.47 98.9206 138.376 98.7536 138.418 98.5867C138.459 98.4197 138.626 98.3258 138.792 98.3675C138.989 98.4197 139.187 98.4719 139.384 98.524C139.55 98.5658 139.644 98.7327 139.602 98.8997C139.561 99.0353 139.436 99.1293 139.301 99.1293ZM160.812 98.6493C160.687 98.6493 160.573 98.5762 160.521 98.451C160.459 98.2945 160.542 98.1171 160.698 98.0545C160.885 97.9814 161.072 97.9084 161.259 97.8354C161.415 97.7727 161.591 97.8458 161.654 98.0023C161.716 98.1588 161.643 98.3362 161.487 98.3988C161.3 98.4719 161.103 98.5554 160.905 98.6284C160.885 98.6493 160.843 98.6493 160.812 98.6493ZM137.327 98.5762C137.295 98.5762 137.264 98.5762 137.243 98.5658C137.046 98.5032 136.849 98.451 136.651 98.3884C136.485 98.3362 136.402 98.1693 136.454 98.0023C136.506 97.8354 136.672 97.7519 136.838 97.8041C137.036 97.8667 137.223 97.9188 137.42 97.9814C137.586 98.0336 137.669 98.2006 137.628 98.3675C137.586 98.4823 137.462 98.5762 137.327 98.5762ZM135.383 97.9501C135.352 97.9501 135.321 97.9501 135.29 97.9293C135.092 97.8667 134.905 97.7936 134.708 97.731C134.552 97.6788 134.458 97.5015 134.521 97.3449C134.573 97.1884 134.749 97.0945 134.905 97.1571C135.103 97.2197 135.29 97.2928 135.487 97.3554C135.643 97.4075 135.737 97.5849 135.685 97.7414C135.633 97.8771 135.508 97.9501 135.383 97.9501ZM162.693 97.8562C162.578 97.8562 162.464 97.7936 162.412 97.6788C162.339 97.5223 162.402 97.3449 162.558 97.2719C162.745 97.1884 162.921 97.0945 163.098 97.011C163.254 96.938 163.431 97.0006 163.514 97.1467C163.586 97.3032 163.524 97.4806 163.379 97.5641C163.192 97.658 163.005 97.7519 162.817 97.8354C162.776 97.8458 162.734 97.8562 162.693 97.8562ZM71.1729 97.5015C71.1625 97.5015 71.1521 97.5015 71.1313 97.5015C70.965 97.4806 70.8403 97.3241 70.8611 97.1571C70.8819 96.9484 70.9131 96.7397 70.9442 96.531C70.9754 96.3641 71.1313 96.2493 71.2976 96.2806C71.4638 96.3119 71.5781 96.4684 71.547 96.6354C71.5158 96.8336 71.4846 97.0319 71.4638 97.2301C71.4534 97.3867 71.3183 97.5015 71.1729 97.5015ZM133.45 97.2823C133.419 97.2823 133.378 97.2719 133.347 97.2614C133.149 97.1884 132.962 97.1154 132.765 97.0423C132.609 96.9797 132.526 96.8023 132.588 96.6458C132.65 96.4893 132.827 96.4058 132.983 96.4684C133.17 96.5415 133.367 96.6145 133.554 96.6771C133.71 96.7397 133.793 96.9171 133.741 97.0736C133.7 97.1988 133.575 97.2823 133.45 97.2823ZM164.501 96.9067C164.397 96.9067 164.293 96.8545 164.231 96.7502C164.148 96.6041 164.2 96.4162 164.345 96.3328C164.522 96.2284 164.688 96.1241 164.865 96.0197C165.01 95.9258 165.197 95.978 165.291 96.1241C165.384 96.2702 165.332 96.458 165.187 96.5519C165.01 96.6562 164.833 96.771 164.657 96.8754C164.605 96.8858 164.553 96.9067 164.501 96.9067ZM131.538 96.5519C131.497 96.5519 131.466 96.5415 131.424 96.531C131.237 96.458 131.04 96.3849 130.853 96.3015C130.697 96.2389 130.624 96.0615 130.686 95.9049C130.749 95.7484 130.925 95.6754 131.081 95.738C131.268 95.811 131.455 95.8841 131.653 95.9676C131.809 96.0302 131.892 96.2076 131.829 96.3641C131.777 96.4789 131.663 96.5519 131.538 96.5519ZM166.216 95.7902C166.122 95.7902 166.028 95.7484 165.966 95.6649C165.873 95.5293 165.904 95.331 166.039 95.2371C166.205 95.1223 166.361 94.9971 166.527 94.8823C166.662 94.778 166.86 94.8093 166.953 94.945C167.057 95.0806 167.026 95.2789 166.891 95.3728C166.725 95.498 166.558 95.6232 166.392 95.738C166.34 95.7797 166.278 95.7902 166.216 95.7902ZM129.647 95.7797C129.606 95.7797 129.564 95.7693 129.533 95.7589C129.346 95.6754 129.159 95.6023 128.961 95.5189C128.805 95.4563 128.733 95.2684 128.795 95.1119C128.857 94.9554 129.044 94.8824 129.2 94.945C129.387 95.0284 129.574 95.1015 129.761 95.185C129.917 95.2476 129.99 95.4354 129.928 95.5919C129.886 95.7067 129.772 95.7797 129.647 95.7797ZM71.5573 95.4876C71.5262 95.4876 71.5054 95.4876 71.4742 95.4771C71.3079 95.4354 71.2144 95.2684 71.256 95.1015C71.3079 94.9032 71.3703 94.6945 71.4327 94.4963C71.4846 94.3293 71.6509 94.2458 71.8171 94.298C71.9834 94.3502 72.0665 94.5171 72.0146 94.6841C71.9522 94.8719 71.9003 95.0702 71.8483 95.2684C71.8171 95.3936 71.6924 95.4876 71.5573 95.4876ZM127.766 94.9763C127.725 94.9763 127.683 94.9658 127.641 94.9554L127.08 94.705C126.924 94.6319 126.852 94.4545 126.924 94.298C126.997 94.1415 127.174 94.0684 127.33 94.1415L127.891 94.3919C128.047 94.4545 128.119 94.6424 128.047 94.7989C127.995 94.9137 127.891 94.9763 127.766 94.9763ZM167.826 94.5276C167.743 94.5276 167.65 94.4963 167.598 94.4232C167.483 94.298 167.504 94.0998 167.629 93.985C167.785 93.8493 167.93 93.7241 168.076 93.5885C168.2 93.4737 168.398 93.4841 168.512 93.6093C168.626 93.7345 168.616 93.9328 168.491 94.0476C168.335 94.1832 168.18 94.3293 168.024 94.465C167.961 94.5067 167.899 94.5276 167.826 94.5276ZM125.896 94.1519C125.854 94.1519 125.813 94.1415 125.771 94.1206L125.21 93.8702C125.054 93.7971 124.992 93.6198 125.054 93.4632C125.127 93.3067 125.303 93.2441 125.459 93.3067L126.02 93.5571C126.176 93.6302 126.239 93.8076 126.176 93.9641C126.124 94.0789 126.02 94.1519 125.896 94.1519ZM72.212 93.5467C72.1705 93.5467 72.1289 93.5363 72.0977 93.5258C71.9418 93.4632 71.8691 93.2754 71.9315 93.1189C72.0146 92.9311 72.0977 92.7328 72.1808 92.545C72.2536 92.3885 72.4303 92.3259 72.5861 92.3989C72.742 92.4719 72.8044 92.6493 72.7316 92.8059C72.6485 92.9832 72.5653 93.1711 72.4926 93.3589C72.4406 93.4737 72.3367 93.5467 72.212 93.5467ZM124.036 93.2963C123.994 93.2963 123.952 93.2858 123.911 93.265L123.35 93.0041C123.194 92.9311 123.131 92.7537 123.204 92.5972C123.277 92.4406 123.454 92.378 123.609 92.4511L124.171 92.7119C124.327 92.785 124.389 92.9624 124.316 93.1189C124.264 93.2337 124.16 93.2963 124.036 93.2963ZM169.302 93.1189C169.229 93.1189 169.146 93.0876 169.094 93.0354C168.969 92.9206 168.969 92.7224 169.084 92.5972C169.219 92.4511 169.354 92.305 169.489 92.1485C169.603 92.0233 169.79 92.0128 169.925 92.1172C170.05 92.2319 170.06 92.4198 169.957 92.5554C169.821 92.7119 169.676 92.8685 169.541 93.0145C169.468 93.0876 169.385 93.1189 169.302 93.1189ZM122.186 92.4406C122.144 92.4406 122.103 92.4302 122.061 92.4093L121.51 92.1485C121.354 92.0754 121.292 91.898 121.365 91.7415C121.438 91.585 121.614 91.5224 121.77 91.5954L122.321 91.8563C122.477 91.9293 122.539 92.1067 122.466 92.2633C122.414 92.3676 122.3 92.4406 122.186 92.4406ZM73.1161 91.7102C73.0641 91.7102 73.0122 91.6998 72.9602 91.6685C72.8147 91.585 72.7628 91.3972 72.8459 91.2511C72.9498 91.0737 73.0538 90.8963 73.1681 90.7189C73.2616 90.5728 73.4486 90.5311 73.5941 90.625C73.7396 90.7189 73.7812 90.9067 73.6876 91.0528C73.5837 91.2198 73.4798 91.3972 73.3759 91.5641C73.3239 91.658 73.22 91.7102 73.1161 91.7102ZM120.336 91.5641C120.295 91.5641 120.253 91.5537 120.211 91.5328L119.661 91.272C119.505 91.1989 119.442 91.0215 119.515 90.865C119.588 90.7085 119.765 90.6459 119.92 90.7189L120.471 90.9798C120.627 91.0528 120.689 91.2302 120.617 91.3867C120.565 91.5015 120.45 91.5641 120.336 91.5641ZM170.611 91.5433C170.549 91.5433 170.487 91.5224 170.424 91.4807C170.289 91.3763 170.258 91.1885 170.362 91.0528C170.476 90.8859 170.601 90.7294 170.715 90.5624C170.809 90.4268 171.006 90.385 171.141 90.4789C171.276 90.5728 171.318 90.7711 171.224 90.9067C171.11 91.0737 170.985 91.2511 170.861 91.418C170.798 91.5015 170.705 91.5433 170.611 91.5433ZM118.486 90.6981C118.445 90.6981 118.403 90.6876 118.362 90.6667L117.811 90.4059C117.655 90.3328 117.593 90.1555 117.665 89.9989C117.738 89.8424 117.915 89.7798 118.071 89.8528L118.632 90.1137C118.788 90.1868 118.85 90.3641 118.777 90.5207C118.715 90.6354 118.601 90.6981 118.486 90.6981ZM74.2592 90.0094C74.1968 90.0094 74.1241 89.9885 74.0721 89.9468C73.9371 89.8424 73.9163 89.6442 74.0202 89.5189C74.1449 89.352 74.28 89.1955 74.4151 89.0285C74.5294 88.9033 74.7164 88.8824 74.8515 88.9972C74.9762 89.112 74.997 89.2998 74.8827 89.4355C74.758 89.592 74.6229 89.7485 74.5086 89.905C74.4359 89.9676 74.3527 90.0094 74.2592 90.0094ZM116.626 89.8424C116.585 89.8424 116.543 89.832 116.502 89.8111C116.314 89.7276 116.127 89.6441 115.94 89.5607C115.785 89.4876 115.722 89.3102 115.785 89.1537C115.857 88.9972 116.034 88.9346 116.19 88.9972C116.377 89.0807 116.564 89.1642 116.751 89.2476C116.907 89.3207 116.969 89.4981 116.907 89.6546C116.855 89.7798 116.741 89.8424 116.626 89.8424ZM171.734 89.832C171.682 89.832 171.63 89.8215 171.578 89.7902C171.432 89.7068 171.38 89.5189 171.463 89.3729C171.567 89.1955 171.661 89.0181 171.754 88.8407C171.837 88.6946 172.025 88.632 172.17 88.7155C172.315 88.7989 172.378 88.9868 172.295 89.1329C172.201 89.3207 172.097 89.4981 171.993 89.6755C171.941 89.7798 171.837 89.832 171.734 89.832ZM114.766 88.9972C114.725 88.9972 114.683 88.9868 114.641 88.9659C114.454 88.8824 114.267 88.7989 114.08 88.7155C113.924 88.6424 113.852 88.465 113.924 88.3085C113.997 88.152 114.174 88.079 114.33 88.152C114.517 88.2355 114.704 88.319 114.891 88.4024C115.047 88.4755 115.119 88.6529 115.047 88.8094C114.995 88.9346 114.88 88.9972 114.766 88.9972ZM75.6205 88.4859C75.5374 88.4859 75.4646 88.4546 75.4023 88.392C75.288 88.2668 75.288 88.079 75.4127 87.9537C75.4854 87.8807 75.5582 87.8181 75.6309 87.745C75.714 87.672 75.7972 87.599 75.8803 87.5259C76.005 87.4111 76.2025 87.4216 76.3168 87.5468C76.4311 87.672 76.4207 87.8703 76.296 87.985C76.2128 88.0581 76.1401 88.1311 76.057 88.2042C75.9842 88.2668 75.9219 88.3294 75.8491 88.4024C75.7764 88.4546 75.7036 88.4859 75.6205 88.4859ZM112.896 88.1833C112.854 88.1833 112.812 88.1729 112.771 88.1624C112.584 88.079 112.397 88.0059 112.21 87.9224C112.054 87.8598 111.981 87.672 112.043 87.5155C112.106 87.359 112.293 87.2859 112.449 87.3485C112.636 87.432 112.823 87.505 113.01 87.5885C113.166 87.6511 113.239 87.839 113.176 87.9955C113.124 88.1103 113.01 88.1833 112.896 88.1833ZM172.658 88.0059C172.617 88.0059 172.575 87.9955 172.534 87.9746C172.378 87.9016 172.305 87.7242 172.378 87.5677C172.461 87.3798 172.534 87.192 172.617 87.0146C172.679 86.8581 172.856 86.7851 173.012 86.8477C173.168 86.9103 173.24 87.0877 173.178 87.2442C173.095 87.432 173.022 87.6303 172.939 87.8181C172.887 87.9433 172.773 88.0059 172.658 88.0059ZM111.004 87.3903C110.963 87.3903 110.932 87.3798 110.89 87.3694C110.703 87.2964 110.516 87.2129 110.318 87.1398C110.163 87.0772 110.079 86.8998 110.152 86.7433C110.215 86.5868 110.391 86.5138 110.547 86.5764C110.734 86.6494 110.932 86.7329 111.119 86.8059C111.275 86.8685 111.347 87.0459 111.285 87.2024C111.243 87.3172 111.129 87.3903 111.004 87.3903ZM77.1793 87.1607C77.0857 87.1607 76.9922 87.119 76.9299 87.0355C76.826 86.8998 76.8571 86.7016 76.9922 86.6077C77.1585 86.4825 77.3248 86.3572 77.5014 86.2425C77.6365 86.1485 77.834 86.1798 77.9275 86.3155C78.021 86.4511 77.9898 86.6494 77.8547 86.7433C77.6885 86.8581 77.5326 86.9729 77.3663 87.0981C77.304 87.1398 77.2416 87.1607 77.1793 87.1607ZM109.103 86.639C109.071 86.639 109.03 86.6285 108.988 86.6181C108.801 86.5451 108.604 86.472 108.417 86.399C108.261 86.3364 108.178 86.159 108.24 86.0025C108.302 85.8459 108.479 85.7625 108.635 85.8251C108.822 85.8981 109.02 85.9711 109.207 86.0442C109.362 86.1068 109.446 86.2842 109.383 86.4407C109.342 86.5659 109.227 86.639 109.103 86.639ZM173.386 86.0964C173.355 86.0964 173.323 86.0964 173.292 86.0859C173.136 86.0338 173.043 85.8564 173.095 85.6999C173.157 85.512 173.22 85.3138 173.272 85.1155C173.323 84.9486 173.49 84.8546 173.656 84.9068C173.822 84.959 173.916 85.1259 173.864 85.2929C173.802 85.4912 173.75 85.6894 173.677 85.8877C173.635 86.0129 173.521 86.0964 173.386 86.0964ZM78.8731 86.0233C78.7692 86.0233 78.6653 85.9712 78.6133 85.8668C78.5302 85.7207 78.5718 85.5329 78.7172 85.4494C78.8939 85.3451 79.081 85.2407 79.2576 85.1364C79.4031 85.0529 79.5902 85.1051 79.6733 85.2616C79.7564 85.4077 79.7045 85.5955 79.5486 85.679C79.3719 85.7729 79.1953 85.8772 79.029 85.9816C78.9874 86.0025 78.9355 86.0233 78.8731 86.0233ZM107.191 85.9398C107.159 85.9398 107.118 85.9294 107.087 85.919C106.9 85.8459 106.702 85.7833 106.515 85.7207C106.359 85.6685 106.266 85.4912 106.328 85.3346C106.38 85.1781 106.557 85.0842 106.713 85.1468C106.91 85.2094 107.097 85.2825 107.294 85.3451C107.45 85.3972 107.533 85.5746 107.482 85.7416C107.43 85.8564 107.315 85.9398 107.191 85.9398ZM105.247 85.2825C105.216 85.2825 105.185 85.2825 105.154 85.272C104.956 85.2094 104.769 85.1468 104.572 85.0842C104.406 85.032 104.322 84.8651 104.374 84.6981C104.426 84.5312 104.593 84.4477 104.759 84.4999C104.956 84.5625 105.154 84.6251 105.341 84.6877C105.507 84.7399 105.59 84.9173 105.538 85.0738C105.507 85.199 105.382 85.2825 105.247 85.2825ZM80.6917 85.0738C80.5774 85.0738 80.4631 85.0112 80.4111 84.8964C80.3384 84.7399 80.4111 84.5625 80.567 84.4894C80.754 84.406 80.9411 84.3225 81.1385 84.239C81.2944 84.1764 81.4711 84.2494 81.5438 84.406C81.6061 84.5625 81.5334 84.7399 81.3775 84.8129C81.1905 84.8964 81.0034 84.9694 80.8268 85.0529C80.7748 85.0633 80.7332 85.0738 80.6917 85.0738ZM103.294 84.6877C103.262 84.6877 103.242 84.6877 103.211 84.6773C103.013 84.6251 102.816 84.5625 102.629 84.5103C102.462 84.4686 102.369 84.3016 102.41 84.1347C102.452 83.9677 102.618 83.8738 102.784 83.9155C102.982 83.9677 103.179 84.0199 103.377 84.0825C103.543 84.1242 103.637 84.3016 103.585 84.4581C103.553 84.6042 103.429 84.6877 103.294 84.6877ZM82.583 84.312C82.4583 84.312 82.3336 84.2286 82.292 84.1033C82.24 83.9468 82.3232 83.7694 82.4791 83.7068C82.6765 83.6338 82.8739 83.5712 83.0714 83.5086C83.2376 83.4564 83.4039 83.5503 83.4559 83.7068C83.5078 83.8738 83.4143 84.0407 83.2584 84.0929C83.0714 84.1555 82.8739 84.2181 82.6869 84.2807C82.6557 84.3016 82.6141 84.312 82.583 84.312ZM101.319 84.166C101.298 84.166 101.267 84.166 101.247 84.1555C101.049 84.1033 100.852 84.0616 100.654 84.0094C100.488 83.9677 100.384 83.8007 100.426 83.6442C100.467 83.4773 100.633 83.3729 100.789 83.4147C100.987 83.4564 101.184 83.5086 101.392 83.5607C101.558 83.6025 101.662 83.7694 101.621 83.9364C101.589 84.072 101.465 84.166 101.319 84.166ZM173.916 84.1138C173.895 84.1138 173.874 84.1138 173.853 84.1033C173.687 84.072 173.583 83.9051 173.614 83.7381C173.656 83.5399 173.698 83.3416 173.729 83.1434C173.76 82.9764 173.916 82.8616 174.082 82.8929C174.248 82.9242 174.363 83.0808 174.331 83.2477C174.29 83.4564 174.259 83.6547 174.207 83.8634C174.186 84.0094 174.061 84.1138 173.916 84.1138ZM84.5366 83.7277C84.4015 83.7277 84.2768 83.6338 84.2352 83.4981C84.1937 83.3312 84.2976 83.1642 84.4535 83.1225C84.6509 83.0703 84.8588 83.0181 85.0562 82.9764C85.2225 82.9347 85.3887 83.039 85.4199 83.206C85.4615 83.3729 85.3576 83.5399 85.1913 83.5712C84.9938 83.6129 84.7964 83.6651 84.599 83.7173C84.5886 83.7277 84.5678 83.7277 84.5366 83.7277ZM99.3344 83.7173C99.3136 83.7173 99.2929 83.7173 99.2721 83.7068C99.0746 83.6651 98.8772 83.6234 98.6797 83.592C98.5135 83.5607 98.3992 83.4042 98.4303 83.2373C98.4615 83.0703 98.6174 82.9555 98.7837 82.9868C98.9811 83.0286 99.1889 83.0599 99.3864 83.1016C99.5527 83.1329 99.6566 83.2999 99.6254 83.4668C99.6046 83.6129 99.4695 83.7173 99.3344 83.7173ZM97.3184 83.3625C97.308 83.3625 97.2873 83.3625 97.2665 83.3625C97.069 83.3312 96.8612 83.2999 96.6638 83.2686C96.4975 83.2477 96.3832 83.0912 96.404 82.9242C96.4247 82.7573 96.5806 82.6425 96.7469 82.6634C96.9547 82.6947 97.1522 82.726 97.36 82.7573C97.5263 82.7781 97.6406 82.9451 97.6198 83.1121C97.599 83.2477 97.4639 83.3625 97.3184 83.3625ZM86.5422 83.2999C86.3967 83.2999 86.2616 83.1955 86.2409 83.039C86.2097 82.8721 86.324 82.7155 86.4903 82.6842C86.6981 82.6529 86.8955 82.6216 87.1034 82.5903C87.2696 82.5695 87.4255 82.6842 87.4463 82.8512C87.4671 83.0181 87.3528 83.1747 87.1865 83.1955C86.9891 83.2268 86.7916 83.2581 86.5838 83.2894C86.5734 83.2999 86.5526 83.2999 86.5422 83.2999ZM95.292 83.0912C95.2817 83.0912 95.2713 83.0912 95.2609 83.0912C95.0634 83.0703 94.8556 83.0494 94.6582 83.0286C94.4919 83.0181 94.3672 82.8616 94.3776 82.6947C94.388 82.5277 94.5438 82.4025 94.7101 82.4129C94.9179 82.4338 95.1154 82.4547 95.3232 82.4755C95.4895 82.4964 95.6142 82.6425 95.5934 82.8094C95.583 82.9764 95.4479 83.0912 95.292 83.0912ZM88.5582 83.0286C88.4023 83.0286 88.2672 82.9138 88.2568 82.7468C88.2361 82.5799 88.3608 82.4234 88.5374 82.4129C88.7453 82.3921 88.9531 82.3712 89.1505 82.3608C89.3168 82.3503 89.4623 82.4755 89.4831 82.6425C89.4935 82.8095 89.3688 82.9555 89.2025 82.9764C89.0051 82.9868 88.7972 83.0077 88.5998 83.0286C88.579 83.0286 88.5686 83.0286 88.5582 83.0286ZM93.2553 82.9347C93.2449 82.9347 93.2449 82.9347 93.2345 82.9347C93.037 82.9242 92.8292 82.9138 92.6318 82.9034C92.4655 82.8929 92.3304 82.7573 92.3408 82.5903C92.3512 82.4234 92.4863 82.2877 92.6525 82.2982C92.8604 82.3086 93.0682 82.319 93.2657 82.3295C93.4319 82.3399 93.567 82.486 93.5566 82.6529C93.5566 82.8094 93.4215 82.9347 93.2553 82.9347ZM90.6054 82.9034C90.4391 82.9034 90.304 82.7677 90.304 82.6008C90.304 82.4338 90.4287 82.2877 90.6054 82.2877C90.8132 82.2773 91.021 82.2773 91.2289 82.2773C91.3951 82.2773 91.5406 82.4129 91.5406 82.5799C91.5406 82.7468 91.4055 82.8929 91.2393 82.8929C91.0107 82.8929 90.8132 82.8929 90.6054 82.9034ZM174.238 82.0895C174.228 82.0895 174.217 82.0895 174.207 82.0895C174.041 82.0686 173.916 81.9225 173.937 81.7556C173.957 81.5573 173.978 81.3486 173.989 81.1503C173.999 80.9834 174.144 80.8477 174.321 80.8686C174.487 80.879 174.612 81.0251 174.602 81.2025C174.591 81.4112 174.57 81.6199 174.55 81.8286C174.529 81.9642 174.394 82.0895 174.238 82.0895ZM174.331 80.0338C174.165 80.0338 174.03 79.8982 174.03 79.7312C174.03 79.533 174.02 79.3243 174.02 79.126C174.009 78.9591 174.144 78.813 174.311 78.8025C174.487 78.7921 174.622 78.9278 174.633 79.0947C174.643 79.3034 174.643 79.5121 174.643 79.7208C174.643 79.8982 174.508 80.0338 174.331 80.0338ZM174.196 77.9886C174.041 77.9886 173.916 77.8739 173.895 77.7173C173.874 77.5191 173.843 77.3208 173.812 77.1226C173.781 76.9556 173.895 76.7991 174.061 76.7678C174.228 76.7365 174.383 76.8513 174.415 77.0182C174.446 77.2269 174.477 77.4356 174.508 77.6339C174.529 77.8008 174.415 77.9573 174.238 77.9782C174.228 77.9886 174.217 77.9886 174.196 77.9886ZM173.822 75.9747C173.687 75.9747 173.562 75.8808 173.521 75.7452C173.469 75.5469 173.417 75.3591 173.365 75.1608C173.313 74.9939 173.407 74.8269 173.573 74.7748C173.739 74.7226 173.905 74.8165 173.957 74.9835C174.02 75.1817 174.072 75.3904 174.124 75.5887C174.165 75.7556 174.072 75.9226 173.905 75.9643C173.874 75.9748 173.843 75.9747 173.822 75.9747ZM173.188 74.0339C173.064 74.0339 172.949 73.9609 172.908 73.8461C172.835 73.6583 172.752 73.4809 172.669 73.293C172.596 73.1365 172.669 72.9591 172.825 72.8861C172.981 72.813 173.157 72.8861 173.23 73.0426C173.313 73.2304 173.396 73.4287 173.479 73.6165C173.542 73.773 173.469 73.9504 173.313 74.013C173.261 74.0235 173.22 74.0339 173.188 74.0339ZM172.274 72.1974C172.17 72.1974 172.066 72.1452 172.014 72.0513C171.91 71.8844 171.806 71.707 171.692 71.54C171.598 71.3939 171.64 71.2061 171.775 71.1122C171.921 71.0183 172.108 71.06 172.201 71.1957C172.315 71.3731 172.43 71.5505 172.534 71.7278C172.617 71.8739 172.575 72.0618 172.43 72.1452C172.388 72.1765 172.326 72.1974 172.274 72.1974ZM171.1 70.5174C171.017 70.5174 170.923 70.4757 170.861 70.4026C170.736 70.2461 170.601 70.1 170.466 69.954C170.351 69.8287 170.362 69.6305 170.487 69.5157C170.611 69.4009 170.809 69.4114 170.923 69.5366C171.058 69.6931 171.204 69.8496 171.339 70.0166C171.443 70.1522 171.432 70.34 171.297 70.4548C171.245 70.4966 171.172 70.5174 171.1 70.5174Z" fill="#81BBFF"/>
<path d="M83.7988 33.37C83.7053 31.8674 82.8012 30.5422 81.4503 29.9057L63.9506 21.558C62.8283 21.0258 61.5294 21.0258 60.407 21.558L42.9074 29.9057C41.5565 30.5527 40.6524 31.8779 40.5589 33.37C38.917 58.841 55.18 68.1279 60.5214 70.4757C61.5813 70.9452 62.7764 70.9452 63.8363 70.4757C69.1777 68.1279 85.4407 58.841 83.7988 33.37Z" fill="#3C83D7"/>
<path d="M79.5694 34.3613C79.5486 33.9857 79.32 33.6413 78.9875 33.4744L62.6309 25.6693C62.3503 25.5336 62.0282 25.5336 61.7476 25.6693L45.391 33.4744C45.0481 33.6413 44.8195 33.9752 44.8091 34.3613C44.3207 43.8673 46.5133 51.7976 51.3143 57.9437C54.9722 62.6288 59.2536 65.1436 61.758 66.3123C62.0386 66.4375 62.3503 66.4375 62.6309 66.3123C65.1353 65.1436 69.4167 62.6288 73.0746 57.9437C77.8652 51.7976 80.0578 43.8673 79.5694 34.3613Z" fill="#81BBFF"/>
<path d="M62.1424 58.3297C60.1472 58.3297 58.7755 56.8272 58.7755 54.8341C58.7755 52.7576 60.1888 51.3385 62.2256 51.3385C64.252 51.3385 65.5925 52.7576 65.634 54.8341C65.634 56.8376 64.2935 58.3297 62.2256 58.3297H62.1424ZM59.9394 47.2168L59.3471 35.0187C59.2639 33.37 60.5837 31.9822 62.2256 31.9822C63.8675 31.9822 65.1872 33.3596 65.1041 35.0187L64.5117 47.2168C64.4494 48.4377 63.4414 49.4081 62.2256 49.4081C60.9993 49.4081 59.9913 48.4481 59.9394 47.2168Z" fill="white"/>
<path d="M159.399 121.292C159.326 121.292 159.243 121.251 159.212 121.167C159.097 120.917 158.993 120.666 158.879 120.406C158.838 120.301 158.889 120.176 158.993 120.134C159.097 120.092 159.222 120.145 159.264 120.249C159.368 120.499 159.471 120.75 159.586 120.99C159.638 121.094 159.586 121.219 159.482 121.261C159.461 121.292 159.43 121.292 159.399 121.292Z" fill="#81BBFF"/>
<path d="M158.193 118.058C158.11 118.058 158.027 118.006 157.996 117.912C157.84 117.39 157.694 116.858 157.57 116.326C157.549 116.211 157.611 116.106 157.726 116.075C157.84 116.054 157.944 116.117 157.975 116.232C158.1 116.753 158.235 117.275 158.391 117.786C158.422 117.891 158.36 118.006 158.256 118.037C158.224 118.058 158.214 118.058 158.193 118.058ZM157.3 113.884C157.196 113.884 157.113 113.811 157.102 113.706C157.04 113.216 156.988 112.715 156.957 112.214L156.946 112.079C156.936 111.964 157.019 111.87 157.133 111.86C157.248 111.849 157.341 111.933 157.352 112.047L157.362 112.183C157.393 112.673 157.445 113.164 157.507 113.654C157.518 113.769 157.445 113.873 157.331 113.884C157.32 113.884 157.31 113.884 157.3 113.884ZM157.102 109.627C156.977 109.627 156.894 109.533 156.894 109.418C156.915 108.875 156.946 108.322 156.998 107.78C157.009 107.665 157.113 107.581 157.216 107.592C157.331 107.602 157.414 107.707 157.403 107.811C157.352 108.343 157.32 108.886 157.3 109.418C157.3 109.543 157.206 109.627 157.102 109.627ZM157.591 105.39C157.58 105.39 157.559 105.39 157.549 105.39C157.435 105.369 157.362 105.265 157.393 105.15C157.497 104.618 157.622 104.086 157.767 103.554C157.798 103.449 157.913 103.376 158.017 103.407C158.121 103.439 158.193 103.554 158.162 103.658C158.027 104.18 157.902 104.701 157.798 105.223C157.767 105.327 157.684 105.39 157.591 105.39ZM158.765 101.3C158.744 101.3 158.713 101.3 158.692 101.289C158.588 101.247 158.536 101.133 158.578 101.028C158.775 100.517 158.983 100.006 159.201 99.5153C159.243 99.411 159.368 99.3693 159.471 99.411C159.575 99.4527 159.617 99.5779 159.575 99.6823C159.357 100.173 159.149 100.674 158.952 101.174C158.921 101.247 158.848 101.3 158.765 101.3ZM160.594 97.4493C160.563 97.4493 160.521 97.4388 160.49 97.418C160.396 97.3658 160.355 97.2302 160.417 97.1362C160.687 96.6667 160.978 96.1971 161.28 95.7484C161.342 95.6545 161.467 95.6336 161.56 95.6963C161.654 95.7589 161.674 95.8841 161.612 95.978C161.311 96.4267 161.03 96.8858 160.76 97.3449C160.739 97.418 160.666 97.4493 160.594 97.4493ZM163.025 93.9537C162.984 93.9537 162.932 93.9432 162.89 93.9015C162.807 93.8285 162.786 93.7032 162.859 93.6093C163.202 93.1919 163.566 92.7745 163.94 92.378C164.013 92.2946 164.148 92.2946 164.231 92.3676C164.314 92.4406 164.314 92.5763 164.241 92.6598C163.878 93.0459 163.524 93.4528 163.181 93.8702C163.14 93.9328 163.088 93.9537 163.025 93.9537ZM165.987 90.9067C165.935 90.9067 165.873 90.8859 165.831 90.8337C165.758 90.7502 165.769 90.6146 165.852 90.5415C166.257 90.1868 166.683 89.832 167.109 89.5085C167.203 89.4355 167.328 89.4563 167.4 89.5502C167.473 89.6442 167.452 89.7694 167.359 89.8424C166.933 90.1659 166.517 90.5102 166.112 90.865C166.091 90.8859 166.039 90.9067 165.987 90.9067ZM169.406 88.3816C169.333 88.3816 169.271 88.3503 169.229 88.2876C169.167 88.1937 169.198 88.0685 169.292 88.0059C169.749 87.7242 170.227 87.4424 170.705 87.192C170.809 87.1398 170.934 87.1816 170.985 87.2755C171.037 87.3798 170.996 87.4946 170.902 87.5572C170.435 87.8076 169.967 88.079 169.51 88.3607C169.479 88.3711 169.447 88.3816 169.406 88.3816ZM173.189 86.4511C173.105 86.4511 173.033 86.399 173.001 86.3259C172.96 86.2216 173.012 86.0964 173.116 86.0546C173.615 85.8459 174.134 85.6581 174.643 85.4807C174.747 85.4494 174.862 85.5016 174.903 85.6059C174.934 85.7103 174.882 85.8251 174.778 85.8668C174.269 86.0338 173.77 86.2216 173.272 86.4303C173.24 86.4407 173.22 86.4511 173.189 86.4511ZM191.405 85.9398C191.384 85.9398 191.364 85.9398 191.343 85.9294C190.834 85.752 190.324 85.5955 189.805 85.4494C189.701 85.4181 189.628 85.3033 189.659 85.199C189.691 85.0946 189.805 85.0216 189.909 85.0529C190.428 85.199 190.958 85.3555 191.468 85.5329C191.571 85.5746 191.634 85.6894 191.592 85.7938C191.571 85.8877 191.488 85.9398 191.405 85.9398ZM177.241 85.1677C177.148 85.1677 177.065 85.1051 177.044 85.0112C177.023 84.8964 177.085 84.792 177.2 84.7607C177.73 84.6459 178.27 84.5416 178.8 84.4477C178.914 84.4268 179.018 84.5103 179.039 84.6146C179.06 84.7294 178.977 84.8338 178.873 84.8546C178.343 84.9381 177.813 85.0425 177.293 85.1572C177.272 85.1677 177.252 85.1677 177.241 85.1677ZM187.29 84.8859C187.28 84.8859 187.269 84.8859 187.259 84.8859C186.729 84.8025 186.199 84.719 185.669 84.6668C185.555 84.6564 185.472 84.552 185.482 84.4373C185.492 84.3225 185.596 84.239 185.711 84.2494C186.251 84.3016 186.791 84.3851 187.332 84.4686C187.446 84.4894 187.519 84.5938 187.498 84.7086C187.477 84.8129 187.394 84.8859 187.29 84.8859ZM181.44 84.5729C181.336 84.5729 181.242 84.4894 181.232 84.3851C181.221 84.2703 181.315 84.1764 181.419 84.166C181.938 84.1347 182.468 84.1138 182.998 84.1138H183.05C183.165 84.1138 183.258 84.2077 183.258 84.3225C183.258 84.4373 183.165 84.5312 183.05 84.5312H182.998C182.479 84.5312 181.959 84.5416 181.45 84.5729C181.45 84.5729 181.45 84.5729 181.44 84.5729Z" fill="#81BBFF"/>
<path d="M194.595 87.2859C194.564 87.2859 194.533 87.2755 194.502 87.2651C194.263 87.1398 194.014 87.0251 193.775 86.9103C193.671 86.8581 193.629 86.7433 193.671 86.639C193.723 86.5346 193.837 86.4929 193.941 86.5346C194.19 86.6494 194.44 86.7746 194.679 86.8894C194.783 86.9416 194.824 87.0668 194.772 87.1607C194.741 87.2442 194.668 87.2859 194.595 87.2859Z" fill="#81BBFF"/>
<path d="M207.637 102.573C207.554 102.573 207.471 102.521 207.44 102.427C207.356 102.166 207.273 101.915 207.18 101.654C207.138 101.55 207.201 101.435 207.304 101.394C207.408 101.352 207.523 101.414 207.564 101.519C207.658 101.78 207.741 102.041 207.824 102.301C207.855 102.406 207.803 102.521 207.689 102.562C207.679 102.573 207.658 102.573 207.637 102.573Z" fill="#81BBFF"/>
<path d="M182.946 136.527C182.468 136.527 181.98 136.517 181.502 136.485C181.387 136.475 181.304 136.381 181.304 136.266C181.315 136.151 181.408 136.068 181.523 136.068C181.99 136.099 182.468 136.11 182.946 136.11H183.102C183.216 136.11 183.31 136.204 183.31 136.318C183.31 136.433 183.216 136.527 183.102 136.527H182.946ZM185.7 136.381C185.596 136.381 185.513 136.298 185.492 136.193C185.482 136.078 185.565 135.984 185.669 135.964C186.188 135.911 186.718 135.838 187.238 135.755C187.352 135.734 187.456 135.807 187.477 135.922C187.498 136.037 187.425 136.141 187.311 136.162C186.781 136.245 186.251 136.318 185.721 136.381C185.71 136.381 185.7 136.381 185.7 136.381ZM178.945 136.214C178.935 136.214 178.925 136.214 178.914 136.214C178.384 136.131 177.854 136.026 177.335 135.911C177.22 135.891 177.158 135.776 177.179 135.671C177.2 135.557 177.314 135.494 177.418 135.515C177.927 135.63 178.457 135.724 178.966 135.807C179.081 135.828 179.153 135.932 179.132 136.037C179.132 136.141 179.039 136.214 178.945 136.214ZM189.805 135.609C189.711 135.609 189.628 135.546 189.607 135.452C189.576 135.348 189.639 135.233 189.753 135.202C190.262 135.066 190.771 134.91 191.26 134.743C191.364 134.701 191.478 134.764 191.519 134.868C191.551 134.972 191.499 135.087 191.395 135.129C190.886 135.306 190.376 135.463 189.857 135.598C189.836 135.609 189.815 135.609 189.805 135.609ZM174.882 135.233C174.861 135.233 174.841 135.233 174.82 135.223C174.311 135.056 173.802 134.868 173.313 134.67C173.209 134.628 173.157 134.513 173.199 134.398C173.24 134.294 173.355 134.242 173.469 134.284C173.957 134.482 174.456 134.659 174.955 134.826C175.059 134.858 175.121 134.983 175.09 135.087C175.049 135.171 174.965 135.233 174.882 135.233ZM193.733 134.19C193.66 134.19 193.577 134.148 193.546 134.064C193.494 133.96 193.546 133.835 193.65 133.793C194.128 133.574 194.606 133.334 195.063 133.094C195.167 133.042 195.281 133.084 195.344 133.178C195.396 133.282 195.354 133.397 195.26 133.459C194.793 133.71 194.304 133.95 193.826 134.169C193.785 134.179 193.754 134.19 193.733 134.19ZM197.37 132.145C197.308 132.145 197.235 132.113 197.204 132.051C197.141 131.957 197.162 131.831 197.256 131.769C197.692 131.477 198.118 131.164 198.544 130.851C198.638 130.778 198.762 130.798 198.835 130.892C198.908 130.986 198.887 131.111 198.794 131.185C198.368 131.508 197.931 131.821 197.484 132.124C197.453 132.134 197.412 132.145 197.37 132.145ZM200.643 129.536C200.591 129.536 200.539 129.515 200.498 129.473C200.425 129.39 200.425 129.265 200.508 129.181C200.893 128.826 201.267 128.451 201.631 128.065C201.703 127.981 201.838 127.981 201.922 128.054C202.005 128.127 202.005 128.263 201.932 128.346C201.568 128.732 201.184 129.118 200.789 129.484C200.747 129.515 200.695 129.536 200.643 129.536ZM203.459 126.437C203.418 126.437 203.376 126.426 203.335 126.395C203.241 126.322 203.231 126.197 203.293 126.103C203.615 125.685 203.927 125.258 204.218 124.819C204.28 124.725 204.405 124.705 204.499 124.767C204.592 124.83 204.613 124.955 204.551 125.049C204.249 125.487 203.938 125.925 203.605 126.353C203.584 126.405 203.522 126.437 203.459 126.437ZM205.746 122.92C205.715 122.92 205.683 122.91 205.652 122.899C205.548 122.847 205.517 122.722 205.569 122.618C205.818 122.159 206.057 121.679 206.286 121.199C206.338 121.094 206.452 121.052 206.556 121.094C206.66 121.146 206.702 121.261 206.66 121.366C206.432 121.846 206.193 122.336 205.933 122.805C205.881 122.889 205.818 122.92 205.746 122.92ZM207.429 119.091C207.408 119.091 207.388 119.091 207.367 119.08C207.263 119.039 207.201 118.924 207.242 118.819C207.419 118.319 207.575 117.807 207.72 117.306C207.751 117.202 207.866 117.129 207.97 117.16C208.073 117.192 208.146 117.306 208.115 117.411C207.969 117.922 207.814 118.444 207.637 118.955C207.595 119.028 207.523 119.091 207.429 119.091ZM208.489 115.021C208.479 115.021 208.468 115.021 208.458 115.021C208.344 115 208.271 114.896 208.292 114.781C208.385 114.26 208.458 113.738 208.52 113.206C208.531 113.091 208.635 113.007 208.749 113.028C208.863 113.039 208.946 113.143 208.926 113.258C208.863 113.79 208.79 114.322 208.697 114.854C208.666 114.959 208.583 115.021 208.489 115.021ZM208.874 110.847C208.759 110.847 208.666 110.753 208.666 110.639C208.666 110.545 208.666 110.44 208.666 110.347C208.666 109.919 208.655 109.48 208.635 109.053C208.624 108.938 208.718 108.844 208.832 108.833C208.946 108.833 209.04 108.917 209.05 109.032C209.071 109.47 209.081 109.908 209.081 110.347C209.081 110.44 209.081 110.545 209.081 110.639C209.071 110.753 208.977 110.847 208.874 110.847ZM208.583 106.663C208.479 106.663 208.396 106.59 208.385 106.486C208.312 105.964 208.209 105.442 208.105 104.92C208.084 104.806 208.157 104.701 208.26 104.68C208.375 104.66 208.479 104.733 208.499 104.837C208.614 105.359 208.707 105.891 208.78 106.423C208.801 106.538 208.718 106.642 208.603 106.653C208.603 106.663 208.593 106.663 208.583 106.663Z" fill="#81BBFF"/>
<path d="M171.017 133.584C170.985 133.584 170.954 133.574 170.923 133.564C170.684 133.438 170.435 133.303 170.196 133.167C170.102 133.115 170.061 132.99 170.123 132.885C170.175 132.791 170.3 132.75 170.403 132.812C170.643 132.948 170.871 133.073 171.121 133.198C171.224 133.251 171.256 133.376 171.204 133.48C171.162 133.553 171.089 133.584 171.017 133.584Z" fill="#81BBFF"/>
<path d="M171.131 126.364C171.224 126.458 171.37 126.468 171.484 126.405L174.81 124.6C176.348 125.477 178.031 126.103 179.818 126.447L181.19 129.985C181.242 130.11 181.356 130.193 181.491 130.183L186.022 129.995C186.157 129.985 186.272 129.901 186.303 129.776L187.394 126.145C189.15 125.654 190.771 124.892 192.236 123.891L195.697 125.414C195.822 125.466 195.957 125.435 196.05 125.341L199.126 121.992C199.22 121.898 199.23 121.752 199.168 121.637L197.37 118.298C198.243 116.753 198.866 115.063 199.209 113.268L202.732 111.891C202.857 111.839 202.94 111.724 202.93 111.588L202.743 107.039C202.732 106.903 202.649 106.788 202.524 106.757L198.908 105.661C198.42 103.898 197.661 102.27 196.663 100.799L198.181 97.3241C198.233 97.1988 198.201 97.0632 198.108 96.9693L194.772 93.8806C194.679 93.7867 194.533 93.7763 194.419 93.8389L191.093 95.6441C189.555 94.7676 187.872 94.1415 186.085 93.7971L184.713 90.2598C184.661 90.1346 184.547 90.0511 184.412 90.0615L179.881 90.2494C179.746 90.2598 179.631 90.3433 179.6 90.4685L178.509 94.0997C176.753 94.5902 175.132 95.3519 173.666 96.3536L170.206 94.8302C170.081 94.778 169.946 94.8093 169.853 94.9032L166.777 98.2527C166.683 98.3467 166.673 98.4927 166.735 98.6075L168.533 101.947C167.66 103.491 167.037 105.181 166.694 106.976L163.171 108.353C163.046 108.406 162.963 108.52 162.973 108.656L163.16 113.206C163.171 113.341 163.254 113.456 163.379 113.487L166.995 114.583C167.483 116.346 168.242 117.974 169.24 119.446L167.722 122.92C167.67 123.045 167.702 123.181 167.795 123.275L171.131 126.364Z" fill="#81BBFF"/>
<path d="M182.957 114.468C182.24 114.468 181.533 114.291 180.889 113.936C179.87 113.383 179.133 112.465 178.8 111.348C178.467 110.232 178.592 109.053 179.143 108.03C179.694 107.007 180.608 106.267 181.72 105.933C184.017 105.254 186.428 106.569 187.103 108.875C187.435 109.992 187.311 111.171 186.76 112.193C186.209 113.216 185.295 113.957 184.183 114.291C183.788 114.416 183.372 114.468 182.957 114.468ZM182.967 106.381C182.614 106.381 182.26 106.434 181.917 106.538C179.953 107.122 178.821 109.209 179.403 111.181C179.683 112.141 180.317 112.924 181.19 113.404C182.063 113.884 183.071 113.988 184.027 113.706C184.983 113.425 185.762 112.788 186.24 111.912C186.718 111.035 186.822 110.023 186.542 109.063C186.053 107.435 184.567 106.381 182.967 106.381Z" fill="#DDEBFF"/>
<path d="M183.019 121.345C182.375 121.345 181.741 121.292 181.107 121.178C181.107 121.178 181.107 121.178 181.097 121.178H181.086C180.941 121.157 180.837 121.021 180.837 120.875C180.837 120.854 180.837 120.844 180.837 120.823C180.868 120.656 181.024 120.541 181.19 120.572C181.928 120.698 182.697 120.75 183.455 120.719C186.147 120.604 188.651 119.508 190.553 117.599C190.657 117.494 190.75 117.39 190.854 117.286C192.683 115.293 193.671 112.746 193.671 110.054C193.671 109.908 193.671 109.762 193.66 109.616C193.546 106.767 192.33 104.127 190.241 102.197C188.153 100.267 185.44 99.2649 182.593 99.3797C176.877 99.6093 172.378 104.357 172.378 110.054C172.378 110.2 172.378 110.347 172.388 110.493C172.471 112.423 173.064 114.301 174.113 115.908C174.144 115.96 174.165 116.023 174.165 116.075C174.165 116.179 174.113 116.273 174.03 116.336C173.885 116.43 173.698 116.388 173.604 116.253C172.492 114.552 171.858 112.569 171.775 110.524C171.765 110.367 171.765 110.211 171.765 110.065C171.765 104.044 176.514 99.0249 182.562 98.7849C185.565 98.6597 188.433 99.724 190.647 101.769C192.86 103.814 194.138 106.6 194.263 109.616C194.273 109.773 194.273 109.929 194.273 110.086C194.273 112.934 193.224 115.637 191.291 117.734C189.254 119.957 186.479 121.24 183.476 121.366C183.331 121.334 183.175 121.345 183.019 121.345Z" fill="#DDEBFF"/>
<path d="M201.35 95.4041L203.127 94.2458C204.021 94.6632 204.998 94.945 206.006 95.0597L206.93 96.9693C206.962 97.0319 207.034 97.0736 207.107 97.0632L209.632 96.7606C209.705 96.7501 209.767 96.698 209.778 96.6249L210.225 94.5484C211.181 94.1937 212.054 93.6928 212.833 93.0772L214.838 93.7763C214.911 93.7971 214.984 93.7763 215.036 93.7241L216.605 91.7206C216.647 91.658 216.657 91.585 216.615 91.5224L215.462 89.7381C215.878 88.8407 216.158 87.8598 216.273 86.8477L218.174 85.919C218.237 85.8877 218.278 85.8146 218.268 85.7416L217.966 83.206C217.956 83.1329 217.904 83.0703 217.831 83.0599L215.763 82.6112C215.41 81.6512 214.911 80.7747 214.298 79.9921L214.994 77.9782C215.015 77.9052 214.994 77.8321 214.942 77.7799L212.947 76.2043C212.885 76.1626 212.812 76.1521 212.75 76.1939L210.973 77.3521C210.079 76.9347 209.102 76.653 208.094 76.5382L207.169 74.6287C207.138 74.5661 207.065 74.5243 206.993 74.5348L204.468 74.8374C204.395 74.8478 204.332 74.9 204.322 74.973L203.875 77.0495C202.919 77.4043 202.046 77.9052 201.267 78.5208L199.261 77.8217C199.189 77.8008 199.116 77.8217 199.064 77.8739L197.495 79.8773C197.453 79.9399 197.443 80.013 197.484 80.0756L198.638 81.8599C198.222 82.7573 197.942 83.7381 197.827 84.7503L195.926 85.679C195.863 85.7103 195.822 85.7833 195.832 85.8564L196.133 88.392C196.144 88.465 196.196 88.5276 196.268 88.5381L198.336 88.9868C198.69 89.9468 199.189 90.8233 199.802 91.6059L199.105 93.6198C199.085 93.6928 199.105 93.7658 199.157 93.818L201.153 95.3936C201.205 95.4458 201.288 95.4458 201.35 95.4041Z" fill="#81BBFF"/>
<path d="M207.034 88.3711C206.681 88.3711 206.328 88.2981 205.995 88.152C205.372 87.8703 204.894 87.3694 204.644 86.7224C204.395 86.0755 204.416 85.3764 204.696 84.7503C204.977 84.1242 205.476 83.6442 206.12 83.3938C206.764 83.1434 207.46 83.1642 208.084 83.446C208.707 83.7277 209.185 84.2286 209.435 84.8755C209.684 85.512 209.663 86.2216 209.383 86.8477C209.102 87.4737 208.604 87.9537 207.959 88.2042C207.658 88.3085 207.346 88.3711 207.034 88.3711ZM207.034 83.832C206.795 83.832 206.556 83.8738 206.338 83.9677C205.85 84.1555 205.465 84.5207 205.257 85.0007C205.05 85.4807 205.029 86.0129 205.216 86.5033C205.6 87.5155 206.733 88.0163 207.741 87.6303C208.229 87.4424 208.614 87.0772 208.822 86.5972C209.03 86.1172 209.05 85.5851 208.863 85.0946C208.676 84.6042 208.313 84.2181 207.835 84.0094C207.575 83.8947 207.305 83.832 207.034 83.832Z" fill="#DDEBFF"/>
<path d="M196.809 95.0389C196.757 95.0389 196.695 95.018 196.653 94.9658C196.476 94.7571 196.289 94.5484 196.123 94.3293C196.05 94.2354 196.071 94.1102 196.154 94.0371C196.248 93.9641 196.372 93.985 196.445 94.0684C196.611 94.2771 196.778 94.4858 196.954 94.6945C197.027 94.778 197.017 94.9136 196.934 94.9867C196.902 95.018 196.85 95.0389 196.809 95.0389Z" fill="#81BBFF"/>
<path d="M194.897 92.2111C194.824 92.2111 194.751 92.1693 194.71 92.0963C194.491 91.6685 194.294 91.2302 194.128 90.7711C194.107 90.7189 194.086 90.6563 194.065 90.6041C194.024 90.4998 194.076 90.385 194.19 90.3433C194.294 90.3015 194.408 90.3537 194.45 90.4685C194.471 90.5207 194.491 90.5728 194.512 90.6354C194.679 91.0737 194.866 91.5015 195.084 91.9189C195.136 92.0233 195.094 92.1485 194.99 92.1902C194.959 92.2006 194.928 92.2111 194.897 92.2111ZM193.587 88.225C193.494 88.225 193.4 88.152 193.39 88.0581C193.296 87.5259 193.244 86.9833 193.224 86.4407C193.213 86.3259 193.307 86.232 193.421 86.2216C193.535 86.2216 193.629 86.3051 193.639 86.4198C193.66 86.9416 193.722 87.4737 193.806 87.985C193.826 88.0998 193.754 88.2042 193.639 88.225C193.608 88.225 193.598 88.225 193.587 88.225ZM193.546 84.0407C193.535 84.0407 193.525 84.0407 193.515 84.0407C193.4 84.0199 193.328 83.9155 193.338 83.8112C193.411 83.279 193.525 82.7364 193.66 82.2147C193.691 82.1103 193.806 82.0373 193.91 82.0686C194.013 82.0999 194.086 82.2147 194.055 82.319C193.92 82.8303 193.816 83.3416 193.733 83.8634C193.733 83.9677 193.65 84.0407 193.546 84.0407ZM194.772 80.0338C194.741 80.0338 194.71 80.0234 194.679 80.013C194.575 79.9608 194.533 79.846 194.585 79.7417C194.824 79.2512 195.084 78.7817 195.375 78.3225C195.437 78.2286 195.562 78.1973 195.655 78.2599C195.749 78.3226 195.78 78.4478 195.718 78.5417C195.437 78.9799 195.177 79.4495 194.949 79.9191C194.918 79.9921 194.845 80.0338 194.772 80.0338ZM197.141 76.58C197.089 76.58 197.037 76.5591 196.996 76.5278C196.913 76.4548 196.913 76.3191 196.985 76.2356C197.36 75.8391 197.754 75.4739 198.16 75.1191C198.243 75.0461 198.378 75.0565 198.451 75.1504C198.523 75.2339 198.513 75.3695 198.42 75.4426C198.014 75.7765 197.63 76.1417 197.276 76.5174C197.256 76.5591 197.193 76.58 197.141 76.58ZM200.446 74.0235C200.373 74.0235 200.3 73.9817 200.269 73.9191C200.217 73.8148 200.248 73.7 200.352 73.6374C200.82 73.3765 201.319 73.147 201.818 72.9383C201.922 72.8965 202.046 72.9487 202.088 73.053C202.129 73.1574 202.077 73.2826 201.974 73.3244C201.485 73.5226 201.007 73.7522 200.56 74.0026C200.508 74.013 200.477 74.0235 200.446 74.0235ZM204.364 72.5835C204.27 72.5835 204.187 72.5209 204.166 72.4165C204.145 72.3018 204.218 72.1974 204.322 72.1765C204.852 72.0722 205.392 71.9887 205.922 71.947C206.037 71.9365 206.13 72.02 206.141 72.1348C206.151 72.2496 206.068 72.3435 205.954 72.3539C205.434 72.3957 204.914 72.4687 204.395 72.5731C204.384 72.5731 204.374 72.5835 204.364 72.5835Z" fill="#81BBFF"/>
<path d="M209.352 72.5104C209.341 72.5104 209.331 72.5104 209.32 72.5104C209.061 72.4687 208.79 72.427 208.52 72.3957C208.406 72.3852 208.323 72.2809 208.344 72.1661C208.354 72.0513 208.458 71.9678 208.572 71.9887C208.842 72.02 209.123 72.0618 209.393 72.1035C209.508 72.1244 209.58 72.2287 209.559 72.3435C209.539 72.4374 209.445 72.5104 209.352 72.5104Z" fill="#81BBFF"/>
<path d="M218.465 78.5312C218.403 78.5312 218.33 78.4999 218.299 78.4373C218.154 78.2078 217.998 77.9886 217.842 77.7695C217.779 77.6756 217.79 77.5504 217.883 77.4878C217.977 77.4252 218.102 77.4356 218.164 77.5295C218.33 77.7486 218.486 77.9782 218.632 78.2182C218.694 78.3121 218.663 78.4373 218.569 78.4999C218.538 78.5208 218.496 78.5312 218.465 78.5312Z" fill="#81BBFF"/>
<path d="M207.46 99.6823C207.346 99.6823 207.263 99.5988 207.253 99.484C207.253 99.3693 207.336 99.2753 207.45 99.2753C207.959 99.2545 208.479 99.2127 208.988 99.1397C209.102 99.1188 209.206 99.2023 209.217 99.3171C209.237 99.4319 209.154 99.5362 209.04 99.5466C208.531 99.6093 207.99 99.6614 207.46 99.6823ZM211.492 98.931C211.409 98.931 211.326 98.8788 211.295 98.7953C211.253 98.691 211.316 98.5762 211.42 98.5345C211.565 98.4823 211.7 98.4301 211.846 98.378C212.189 98.2423 212.521 98.0962 212.854 97.9397C212.958 97.8875 213.082 97.9293 213.124 98.0336C213.176 98.138 213.134 98.2632 213.03 98.3049C212.698 98.4719 212.345 98.618 211.991 98.7536C211.846 98.8058 211.7 98.8684 211.555 98.9101C211.544 98.9206 211.524 98.931 211.492 98.931ZM215.129 97.011C215.067 97.011 215.005 96.9797 214.963 96.9275C214.901 96.8336 214.911 96.7084 215.005 96.6458C215.42 96.3432 215.815 96.0093 216.189 95.6545C216.273 95.5815 216.397 95.5815 216.48 95.6649C216.553 95.7484 216.553 95.8736 216.47 95.9571C216.086 96.3223 215.67 96.6667 215.244 96.9797C215.213 97.0006 215.171 97.011 215.129 97.011ZM218.029 94.0893C217.987 94.0893 217.946 94.0789 217.904 94.0476C217.811 93.985 217.79 93.8493 217.863 93.7658C218.164 93.3485 218.444 92.9102 218.704 92.4615C218.756 92.3676 218.881 92.3259 218.985 92.3885C219.078 92.4406 219.12 92.5659 219.058 92.6702C218.798 93.1293 218.507 93.5885 218.195 94.0163C218.153 94.058 218.091 94.0893 218.029 94.0893ZM219.93 90.4372C219.91 90.4372 219.889 90.4372 219.868 90.4267C219.764 90.385 219.702 90.2702 219.743 90.1659C219.91 89.6755 220.055 89.1746 220.159 88.6737C220.18 88.5589 220.294 88.4963 220.398 88.5172C220.512 88.5381 220.575 88.6529 220.554 88.7572C220.44 89.2789 220.294 89.7902 220.128 90.3015C220.097 90.385 220.014 90.4372 219.93 90.4372ZM220.658 86.3781C220.544 86.3781 220.45 86.2842 220.45 86.1694C220.45 86.0442 220.46 85.919 220.46 85.7938C220.46 85.4077 220.44 85.0112 220.408 84.6251C220.398 84.5103 220.481 84.4164 220.596 84.406C220.71 84.3955 220.803 84.479 220.814 84.5938C220.845 84.9903 220.866 85.3972 220.866 85.8042C220.866 85.9398 220.866 86.0651 220.855 86.1903C220.866 86.2946 220.772 86.3781 220.658 86.3781ZM220.159 82.2877C220.066 82.2877 219.993 82.2251 219.962 82.1416C219.847 81.7451 219.723 81.3486 219.567 80.9625C219.525 80.8686 219.494 80.7747 219.452 80.6808C219.411 80.5764 219.463 80.4512 219.567 80.4095C219.671 80.3677 219.795 80.4199 219.837 80.5243C219.879 80.6182 219.92 80.7225 219.951 80.8164C220.107 81.2129 220.242 81.6303 220.357 82.0373C220.388 82.1416 220.325 82.2564 220.211 82.2877C220.19 82.2877 220.169 82.2877 220.159 82.2877Z" fill="#81BBFF"/>
<path d="M204.904 99.5153C204.894 99.5153 204.883 99.5153 204.873 99.5153C204.603 99.4736 204.322 99.4214 204.062 99.3588C203.948 99.3379 203.886 99.2232 203.906 99.1188C203.927 99.004 204.042 98.9414 204.145 98.9623C204.405 99.0249 204.675 99.0666 204.935 99.1084C205.05 99.1293 205.122 99.2336 205.101 99.3379C205.091 99.4423 205.008 99.5153 204.904 99.5153Z" fill="#81BBFF"/>
<path d="M207.055 92.2215C206.982 92.2215 206.92 92.2215 206.847 92.2215C206.723 92.2215 206.588 92.2111 206.463 92.2006C206.307 92.1902 206.182 92.0546 206.182 91.898C206.182 91.8876 206.182 91.8772 206.182 91.8667C206.203 91.6998 206.349 91.5746 206.515 91.585C206.92 91.6267 207.346 91.6163 207.751 91.5641C209.133 91.3972 210.391 90.7502 211.326 89.7381C211.43 89.6233 211.544 89.4981 211.638 89.3729C212.448 88.3294 212.885 87.0772 212.885 85.7729C212.885 85.5329 212.875 85.3033 212.843 85.0633C212.459 81.8599 209.549 79.5643 206.359 79.9504C203.408 80.3051 201.225 82.8408 201.225 85.752C201.225 85.9816 201.236 86.2216 201.267 86.4511C201.392 87.505 201.797 88.4963 202.441 89.3311C202.483 89.3833 202.504 89.4563 202.504 89.5189C202.504 89.6129 202.462 89.7068 202.389 89.7589C202.254 89.8633 202.067 89.8424 201.963 89.7068C201.246 88.7885 200.799 87.6824 200.664 86.5242C200.633 86.2633 200.623 86.0025 200.623 85.752C200.623 82.5277 203.023 79.7312 206.297 79.3347C208.001 79.126 209.695 79.606 211.046 80.6703C212.397 81.7347 213.259 83.2686 213.467 84.9799C213.498 85.2407 213.519 85.5016 213.519 85.7625C213.519 87.2024 213.041 88.5903 212.147 89.7381C211.087 91.0946 209.56 91.9606 207.855 92.1693C207.575 92.2006 207.315 92.2215 207.055 92.2215Z" fill="#DDEBFF"/>
<path d="M101.829 94.1624H100.02C99.9684 94.1624 99.9269 94.1206 99.9269 94.0684V86.2842C99.9269 83.1121 102.286 80.4303 105.424 80.0443L109.415 79.5538C111.659 79.2825 113.925 80.2634 115.255 82.2147C115.972 83.279 116.325 84.552 116.325 85.8355V88.9763C116.325 89.0285 116.283 89.0702 116.231 89.0702H114.423C114.371 89.0702 114.33 89.0285 114.33 88.9763V85.7833C114.33 85.0633 114.184 84.3538 113.841 83.7173C113 82.1416 111.316 81.3277 109.654 81.526L105.663 82.0164C103.522 82.2773 101.912 84.1033 101.912 86.2738V94.058C101.922 94.1206 101.881 94.1624 101.829 94.1624Z" fill="#81BBFF"/>
<path d="M99.3449 92.378L116.782 91.4076C117.489 91.3659 118.081 91.9293 118.081 92.6493V106.517C118.081 107.206 117.53 107.759 116.845 107.759H99.8333C99.1682 107.759 98.6175 107.227 98.5967 106.559L98.181 93.6615C98.1498 92.9832 98.6694 92.4093 99.3449 92.378Z" fill="#81BBFF"/>
<path d="M110.973 103.783L109.913 100.736C109.789 100.371 109.872 99.964 110.142 99.6823C110.682 99.1293 111.004 98.3675 110.963 97.5223C110.9 96.0406 109.685 94.8302 108.209 94.778C106.567 94.7154 105.227 96.0302 105.227 97.658C105.227 98.5658 105.642 99.3693 106.287 99.9014C106.619 100.173 106.765 100.621 106.619 101.039L105.663 103.783C105.434 104.451 105.923 105.15 106.629 105.15H109.996C110.703 105.15 111.202 104.451 110.973 103.783Z" fill="#FEFEFE"/>
<path d="M141.4 117.619L108.126 117.432C106.764 117.421 105.912 118.913 106.619 120.092L106.785 120.374C107.097 120.906 107.669 121.23 108.282 121.23H141.39C142.356 121.23 143.136 120.447 143.136 119.477V119.383C143.136 118.413 142.367 117.63 141.4 117.619Z" fill="#3C83D7"/>
<path d="M146.056 119.414V119.466C146.056 120.437 146.835 121.219 147.801 121.219H155.19C155.98 121.219 156.676 120.687 156.873 119.915C157.164 118.809 156.343 117.713 155.2 117.713L147.812 117.661C146.845 117.651 146.056 118.444 146.056 119.414Z" fill="#3C83D7"/>
<path d="M133.398 123.912L108.126 123.724C106.764 123.713 105.912 125.205 106.619 126.385L106.785 126.666C107.097 127.198 107.669 127.522 108.282 127.522H133.388C134.355 127.522 135.134 126.739 135.134 125.769V125.675C135.134 124.705 134.355 123.922 133.398 123.912Z" fill="#3C83D7"/>
<path d="M138.044 125.706V125.758C138.044 126.729 138.823 127.512 139.789 127.512H147.178C147.968 127.512 148.664 126.979 148.861 126.207C149.152 125.101 148.331 124.005 147.188 124.005L139.8 123.953C138.833 123.953 138.044 124.736 138.044 125.706Z" fill="#3C83D7"/>
</g>
<defs>
<linearGradient id="paint0_linear_643_3498" x1="48.5746" y1="97.0687" x2="50.1219" y2="93.1829" gradientUnits="userSpaceOnUse">
<stop stop-color="#FF928E"/>
<stop offset="1" stop-color="#FEB3B1"/>
</linearGradient>
<clipPath id="clip0_643_3498">
<rect width="230" height="145" fill="white"/>
</clipPath>
</defs>
</svg>
