<svg width="160" height="161" viewBox="0 0 160 161" fill="none" xmlns="http://www.w3.org/2000/svg">
<g clip-path="url(#clip0_643_3041)">
<path d="M151.392 110.068C136.538 145.53 96.9695 165.395 62.6624 160.034C57.0787 159.16 41.7711 156.563 28.2231 144.311C2.12762 120.722 -3.4503 74.0147 17.5963 41.0931C32.9154 17.136 60.368 3.55708 86.4577 4.23516C92.0759 4.37882 113.617 5.28102 132.542 21.1068C135.319 23.4284 141.455 28.9565 146.981 37.7141C159.96 58.2923 161.07 86.9557 151.392 110.068Z" fill="#FEFEFE"/>
<path d="M0.879863 103.448C3.4158 92.6332 11.7079 84.1399 22.2657 81.5425C29.5228 79.7554 36.4865 80.715 42.375 83.6055C44.3244 84.5652 46.6476 83.4791 47.1881 81.3299C52.3922 60.6656 70.7016 45.3972 92.4957 45.3972C118.338 45.3972 139.287 66.8603 139.287 93.3401C139.287 94.0411 139.276 95.0008 139.264 95.926C139.356 97.9085 140.201 98.7475 141.461 98.9601C151.587 100.04 159.54 108.591 159.983 119.142C160.489 131.255 150.868 141.289 139.04 141.289H29.5975C10.8626 141.289 -3.80674 123.452 0.879863 103.448Z" fill="#0557A3"/>
<path opacity="0.21" d="M9.3559 107.505C11.6216 97.8453 19.0224 90.2657 28.4531 87.9441C34.9338 86.3523 41.15 87.2028 46.4059 89.7887C48.1483 90.645 50.2185 89.6738 50.7015 87.7602C55.3479 69.3083 71.6963 55.6776 91.1558 55.6776C114.227 55.6776 132.933 74.8421 132.933 98.4832C132.933 99.1095 132.921 99.9657 132.91 100.793C132.99 102.563 133.743 103.31 134.871 103.5C143.91 104.465 151.018 112.102 151.409 121.521C151.863 132.336 143.272 141.294 132.708 141.294H34.9971C18.2691 141.289 5.16959 125.365 9.3559 107.505Z" fill="#3C83D7"/>
<path d="M22.0645 154.247C22.0645 155.132 22.7891 155.856 23.6804 155.856H110.972C111.858 155.856 112.588 155.132 112.588 154.247L113.312 104.12C113.312 103.235 112.266 101.506 110.351 101.632L25.0432 99.4256C23.9277 99.3968 22.8523 99.8278 22.0645 100.609C21.2767 101.397 20.8454 102.471 20.8684 103.58L22.0645 154.247Z" fill="#00417C"/>
<path d="M23.6574 152.701C23.6574 153.54 24.3474 154.23 25.187 154.23H108.867C109.707 154.23 110.397 153.54 110.397 152.701L111.081 107.195C111.001 104.454 108.597 103.471 107.142 103.529L25.3825 101.339C24.6005 101.316 23.8414 101.621 23.2894 102.172C22.7373 102.724 22.4325 103.483 22.4498 104.264L23.6574 152.701Z" fill="#DDEBFF"/>
<path d="M15.3078 160.022H117.568C117.746 160.022 117.895 159.879 117.895 159.695V155.942C117.895 155.764 117.752 155.615 117.568 155.615H15.3078C15.1295 155.615 14.98 155.758 14.98 155.942V159.695C14.98 159.873 15.1295 160.022 15.3078 160.022Z" fill="#0557A3"/>
<path d="M59.9598 152.006H27.7459C26.5555 152.006 25.5952 151.046 25.5952 149.857V107.833C25.5952 106.614 26.6073 105.638 27.8264 105.683L60.046 106.913C61.2019 106.959 62.1162 107.907 62.1162 109.062V149.857C62.1105 151.046 61.1501 152.006 59.9598 152.006Z" fill="#81BBFF"/>
<path d="M53.5538 125.003H32.214C32.0472 125.003 31.9092 124.865 31.9092 124.699V122.475C31.9092 122.308 32.0472 122.17 32.214 122.17H53.5538C53.7206 122.17 53.8586 122.308 53.8586 122.475V124.699C53.8586 124.865 53.7206 125.003 53.5538 125.003Z" fill="#DDEBFF"/>
<path d="M53.5943 129.531H32.2545C32.0877 129.531 31.9497 129.393 31.9497 129.227V127.003C31.9497 126.836 32.0877 126.698 32.2545 126.698H53.5943C53.7611 126.698 53.8991 126.836 53.8991 127.003V129.227C53.9049 129.393 53.7668 129.531 53.5943 129.531Z" fill="#DDEBFF"/>
<path d="M53.7265 134.152H32.3867C32.2199 134.152 32.0819 134.014 32.0819 133.847V131.623C32.0819 131.456 32.2199 131.319 32.3867 131.319H53.7265C53.8933 131.319 54.0313 131.456 54.0313 131.623V133.847C54.0313 134.014 53.8933 134.152 53.7265 134.152Z" fill="#DDEBFF"/>
<path d="M53.7668 138.68H32.427C32.2602 138.68 32.1222 138.542 32.1222 138.375V136.151C32.1222 135.985 32.2602 135.847 32.427 135.847H53.7668C53.9336 135.847 54.0716 135.985 54.0716 136.151V138.375C54.0773 138.542 53.9393 138.68 53.7668 138.68Z" fill="#DDEBFF"/>
<path d="M100.357 125.003H69.4079C69.2412 125.003 69.1031 124.865 69.1031 124.699V122.475C69.1031 122.308 69.2412 122.17 69.4079 122.17H100.357C100.524 122.17 100.662 122.308 100.662 122.475V124.699C100.662 124.865 100.524 125.003 100.357 125.003Z" fill="#81BBFF"/>
<path d="M100.455 129.531H69.5057C69.3389 129.531 69.2009 129.393 69.2009 129.227V127.003C69.2009 126.836 69.3389 126.698 69.5057 126.698H100.455C100.621 126.698 100.759 126.836 100.759 127.003V129.227C100.759 129.393 100.621 129.531 100.455 129.531Z" fill="#81BBFF"/>
<path d="M87.5966 134.152H69.5057C69.3389 134.152 69.2009 134.014 69.2009 133.847V131.623C69.2009 131.456 69.3389 131.319 69.5057 131.319H87.5966C87.7633 131.319 87.9013 131.456 87.9013 131.623V133.847C87.9013 134.014 87.7633 134.152 87.5966 134.152Z" fill="#81BBFF"/>
<path d="M85.8545 111.602H85.3714C85.1299 111.602 84.9401 111.407 84.9401 111.171V109.528C84.9401 108.942 84.4629 108.465 83.8763 108.465H80.8976C80.311 108.465 79.8338 108.942 79.8338 109.528V111.171C79.8338 111.413 79.6382 111.602 79.4025 111.602H78.9194C78.6779 111.602 78.4882 111.407 78.4882 111.171V109.528C78.4882 108.195 79.5692 107.12 80.8976 107.12H83.8763C85.2104 107.12 86.2857 108.2 86.2857 109.528V111.171C86.2857 111.413 86.096 111.602 85.8545 111.602Z" fill="#81BBFF"/>
<path d="M86.4524 111.993H78.3213C77.821 111.993 77.4185 112.395 77.4185 112.895V119.125C77.4185 119.624 77.821 120.027 78.3213 120.027H86.4466C86.9469 120.027 87.3494 119.624 87.3494 119.125V112.89C87.3552 112.395 86.9469 111.993 86.4524 111.993ZM83.5484 118.015C83.6002 118.228 83.4392 118.429 83.2264 118.429H81.553C81.3345 118.429 81.1792 118.228 81.231 118.015L81.622 116.389C81.162 116.113 80.8572 115.596 80.8917 115.016C80.932 114.263 81.5415 113.642 82.3006 113.596C83.1746 113.545 83.9049 114.234 83.9049 115.096C83.9049 115.648 83.6117 116.125 83.1689 116.389L83.5484 118.015Z" fill="#81BBFF"/>
<path d="M109.511 38.8347C109.477 38.8347 109.448 38.829 109.419 38.8117C109.327 38.76 109.293 38.6393 109.344 38.5474C109.471 38.3233 109.592 38.0992 109.707 37.8693C109.758 37.7716 109.873 37.7371 109.965 37.7888C110.063 37.8406 110.098 37.9555 110.046 38.0474C109.925 38.2773 109.804 38.5072 109.678 38.737C109.649 38.8002 109.58 38.8347 109.511 38.8347Z" fill="#81BBFF"/>
<path d="M86.866 52.155C86.751 52.155 86.636 52.155 86.521 52.155C86.4117 52.155 86.3312 52.0631 86.3312 51.9597C86.3312 51.8562 86.4175 51.77 86.5267 51.77C87.027 51.7758 87.5331 51.77 88.0334 51.747C88.1311 51.7413 88.2289 51.8275 88.2346 51.9309C88.2404 52.0401 88.1541 52.1263 88.0506 52.1321C87.6596 52.1493 87.2628 52.155 86.866 52.155ZM84.0656 52.0056C84.0598 52.0056 84.0541 52.0056 84.0426 52.0056C83.5365 51.9482 83.0247 51.8792 82.5302 51.7988C82.4267 51.7815 82.3519 51.6838 82.3692 51.5747C82.3864 51.4712 82.49 51.3965 82.5935 51.4137C83.088 51.4942 83.5883 51.5632 84.0886 51.6206C84.1921 51.6321 84.2726 51.7298 84.2611 51.8332C84.2438 51.9309 84.1633 52.0056 84.0656 52.0056ZM90.5003 51.9022C90.4025 51.9022 90.322 51.8332 90.3105 51.7356C90.2933 51.6321 90.368 51.5344 90.4773 51.5172C90.9718 51.4482 91.4721 51.362 91.9609 51.2643C92.0644 51.2414 92.1679 51.3103 92.1909 51.4137C92.2139 51.5172 92.1449 51.6206 92.0414 51.6436C91.5411 51.7413 91.0351 51.8275 90.5348 51.9022C90.5176 51.9022 90.5061 51.9022 90.5003 51.9022ZM80.1495 51.2758C80.1323 51.2758 80.115 51.2758 80.0978 51.2701C79.609 51.1379 79.1144 50.9943 78.6314 50.8334C78.5279 50.7989 78.4762 50.6897 78.5107 50.5863C78.5452 50.4828 78.6544 50.4311 78.7579 50.4656C79.2352 50.6207 79.7182 50.7701 80.2013 50.8966C80.3048 50.9253 80.368 51.0287 80.3393 51.1322C80.3163 51.2184 80.2358 51.2758 80.1495 51.2758ZM94.3876 51.046C94.3071 51.046 94.2266 50.9943 94.2036 50.9081C94.1748 50.8046 94.2323 50.6954 94.3301 50.6667C94.8074 50.523 95.2904 50.3621 95.7562 50.1898C95.854 50.1553 95.969 50.2012 96.0035 50.3047C96.038 50.4024 95.992 50.5173 95.8885 50.5518C95.4112 50.7242 94.9224 50.8908 94.4394 51.0402C94.4278 51.0402 94.4048 51.046 94.3876 51.046ZM76.3945 49.9541C76.3657 49.9541 76.3427 49.9484 76.314 49.9369C75.8482 49.73 75.3824 49.5117 74.9339 49.2818C74.8361 49.2358 74.8016 49.1152 74.8476 49.0232C74.8994 48.9313 75.0144 48.891 75.1064 48.937C75.5492 49.1669 76.0092 49.3852 76.4635 49.5864C76.5613 49.6266 76.6073 49.7415 76.5613 49.8392C76.5383 49.9139 76.4692 49.9541 76.3945 49.9541ZM98.0966 49.5979C98.0219 49.5979 97.9529 49.5576 97.9241 49.4887C97.8781 49.391 97.9184 49.2761 98.0161 49.2301C98.4646 49.0117 98.9189 48.7819 99.356 48.5348C99.448 48.483 99.5687 48.5175 99.6205 48.6095C99.6722 48.7014 99.6377 48.8221 99.5457 48.8738C99.1029 49.1209 98.6429 49.3565 98.1886 49.5806C98.1541 49.5921 98.1254 49.5979 98.0966 49.5979ZM72.8867 48.075C72.8522 48.075 72.812 48.0636 72.7832 48.0463C72.3577 47.7705 71.9322 47.4832 71.5239 47.1843C71.4376 47.1211 71.4204 47.0005 71.4836 46.9143C71.5469 46.8281 71.6676 46.8108 71.7539 46.874C72.1564 47.1671 72.5762 47.4544 72.996 47.7245C73.088 47.782 73.111 47.9027 73.0535 47.9946C73.0132 48.0463 72.95 48.075 72.8867 48.075ZM101.541 47.5981C101.478 47.5981 101.42 47.5694 101.38 47.5119C101.317 47.4257 101.34 47.305 101.432 47.2418C101.846 46.9602 102.254 46.6557 102.645 46.3511C102.731 46.2879 102.852 46.2994 102.915 46.3856C102.979 46.4718 102.967 46.5925 102.881 46.6557C102.478 46.966 102.064 47.2705 101.645 47.5579C101.616 47.5866 101.581 47.5981 101.541 47.5981ZM69.7125 45.6788C69.6665 45.6788 69.6205 45.6615 69.586 45.6328C69.2065 45.2995 68.8327 44.9432 68.4704 44.5869C68.3956 44.5122 68.3956 44.3916 68.4704 44.3111C68.5452 44.2364 68.6659 44.2364 68.7464 44.3111C69.1029 44.6616 69.471 45.0122 69.8448 45.3397C69.9253 45.4087 69.931 45.5351 69.862 45.6156C69.8218 45.6558 69.77 45.6788 69.7125 45.6788ZM104.641 45.0984C104.589 45.0984 104.537 45.0754 104.503 45.0352C104.428 44.9547 104.434 44.834 104.508 44.7593C104.871 44.4145 105.233 44.0583 105.572 43.6962C105.647 43.6215 105.768 43.6158 105.848 43.6905C105.929 43.7652 105.929 43.8859 105.854 43.9663C105.503 44.3341 105.141 44.6961 104.773 45.0467C104.733 45.0811 104.687 45.0984 104.641 45.0984ZM66.9408 42.8228C66.8833 42.8228 66.8315 42.7998 66.7913 42.7538C66.4692 42.363 66.1472 41.9608 65.8482 41.5528C65.7849 41.4666 65.8022 41.3459 65.8885 41.2827C65.9747 41.2195 66.0955 41.2367 66.1587 41.3229C66.4577 41.7252 66.7683 42.1217 67.0903 42.5067C67.1593 42.5872 67.1478 42.7136 67.0673 42.7768C67.027 42.8055 66.9868 42.8228 66.9408 42.8228ZM107.315 42.1562C107.274 42.1562 107.234 42.1447 107.194 42.1159C107.108 42.0527 107.096 41.9263 107.159 41.8459C107.47 41.4494 107.769 41.0414 108.051 40.6334C108.114 40.5472 108.235 40.5242 108.321 40.5816C108.407 40.6448 108.43 40.7655 108.373 40.8517C108.085 41.2655 107.78 41.685 107.47 42.0872C107.43 42.1274 107.378 42.1562 107.315 42.1562ZM64.6349 39.576C64.5716 39.576 64.5026 39.5415 64.4681 39.4841C64.2036 39.0473 63.9563 38.5991 63.7205 38.1509C63.6688 38.0589 63.709 37.9383 63.801 37.8923C63.8931 37.8406 64.0138 37.8808 64.0598 37.9727C64.2898 38.4152 64.5371 38.8577 64.7959 39.2829C64.8534 39.3749 64.8189 39.4956 64.7269 39.5473C64.7039 39.5703 64.6694 39.576 64.6349 39.576ZM62.858 36.0189C62.7832 36.0189 62.7085 35.973 62.6797 35.8983C62.49 35.427 62.3059 34.9443 62.1449 34.4674C62.1104 34.3639 62.1622 34.2548 62.2657 34.2203C62.3634 34.1858 62.4784 34.2375 62.513 34.341C62.674 34.8122 62.8522 35.2891 63.0362 35.7546C63.0765 35.8523 63.0305 35.9672 62.927 36.0074C62.904 36.0132 62.881 36.0189 62.858 36.0189Z" fill="#81BBFF"/>
<path d="M61.6446 32.2148C61.5584 32.2148 61.4779 32.1573 61.4549 32.0653C61.3974 31.8125 61.3399 31.5597 61.2881 31.3068C61.2651 31.2034 61.3341 31.0999 61.4376 31.077C61.5411 31.054 61.6446 31.1229 61.6677 31.2264C61.7194 31.4792 61.7712 31.7263 61.8344 31.9734C61.8574 32.0768 61.7942 32.1803 61.6907 32.2033C61.6734 32.2148 61.6561 32.2148 61.6446 32.2148Z" fill="#81BBFF"/>
<path d="M64.9283 12.4871C64.8938 12.4871 64.8593 12.4756 64.8247 12.4584C64.7327 12.4009 64.7097 12.2802 64.7615 12.194C64.8995 11.9757 65.0433 11.7573 65.187 11.5389C65.2445 11.4527 65.3653 11.424 65.4573 11.4872C65.5436 11.5447 65.5723 11.6654 65.509 11.7573C65.3653 11.9699 65.2273 12.1825 65.0893 12.4009C65.0548 12.4584 64.9915 12.4871 64.9283 12.4871Z" fill="#81BBFF"/>
<path d="M111.714 18.9691C111.627 18.9691 111.553 18.9117 111.53 18.8312C111.38 18.3255 111.213 17.8198 111.035 17.3256C111.001 17.2279 111.052 17.113 111.15 17.0785C111.248 17.0441 111.363 17.0958 111.397 17.1935C111.581 17.6934 111.748 18.2106 111.898 18.722C111.926 18.8255 111.869 18.9346 111.765 18.9634C111.754 18.9634 111.731 18.9691 111.714 18.9691ZM110.213 15.0615C110.138 15.0615 110.069 15.0213 110.04 14.9523C109.81 14.4754 109.569 14.0042 109.31 13.5502C109.258 13.4583 109.293 13.3376 109.385 13.2859C109.477 13.2341 109.598 13.2686 109.649 13.3606C109.908 13.826 110.161 14.303 110.391 14.7857C110.437 14.8834 110.397 14.9983 110.299 15.0443C110.27 15.0558 110.242 15.0615 110.213 15.0615ZM108.102 11.4527C108.039 11.4527 107.982 11.424 107.941 11.3723C107.642 10.9413 107.32 10.5161 106.993 10.1023C106.924 10.0161 106.941 9.89544 107.021 9.83222C107.108 9.76327 107.228 9.78051 107.292 9.86096C107.625 10.2805 107.947 10.7114 108.252 11.1482C108.315 11.2344 108.292 11.355 108.206 11.4183C108.177 11.4412 108.137 11.4527 108.102 11.4527ZM66.9006 9.76327C66.8546 9.76327 66.8144 9.74603 66.7799 9.7173C66.6994 9.64834 66.6879 9.52766 66.7569 9.44721C67.0961 9.03921 67.4527 8.63121 67.8207 8.24045C67.8954 8.16 68.0162 8.16 68.0967 8.22896C68.1772 8.30366 68.1772 8.42434 68.1082 8.50479C67.7459 8.8898 67.3952 9.28631 67.0616 9.68856C67.0156 9.74028 66.9581 9.76327 66.9006 9.76327ZM105.434 8.22896C105.382 8.22896 105.331 8.21172 105.296 8.17149C104.934 7.79797 104.549 7.42445 104.158 7.06817C104.077 6.99346 104.071 6.87279 104.146 6.79234C104.221 6.71189 104.342 6.70614 104.422 6.78084C104.819 7.14287 105.204 7.51639 105.578 7.90141C105.653 7.97611 105.653 8.10254 105.572 8.17724C105.532 8.21172 105.48 8.22896 105.434 8.22896ZM69.8276 6.76935C69.7758 6.76935 69.7183 6.74637 69.6838 6.70039C69.6148 6.61994 69.6206 6.49927 69.7011 6.42456C70.1036 6.07403 70.5234 5.72924 70.9432 5.40169C71.0294 5.33848 71.1502 5.34997 71.2134 5.43617C71.2767 5.52237 71.2652 5.64304 71.1789 5.70625C70.7649 6.02806 70.3509 6.3671 69.9541 6.71189C69.9138 6.75211 69.8678 6.76935 69.8276 6.76935ZM102.289 5.47065C102.249 5.47065 102.208 5.45915 102.174 5.43042C101.754 5.11437 101.317 4.81555 100.874 4.52823C100.782 4.47076 100.759 4.35008 100.817 4.25814C100.874 4.1662 100.995 4.14321 101.087 4.20068C101.535 4.49375 101.978 4.79831 102.404 5.12011C102.49 5.18332 102.507 5.304 102.444 5.3902C102.404 5.44766 102.346 5.47065 102.289 5.47065ZM73.1916 4.28113C73.1283 4.28113 73.0651 4.24665 73.0248 4.18918C72.9673 4.09724 72.9961 3.97656 73.0881 3.92484C73.5424 3.64327 74.0081 3.37318 74.4797 3.12034C74.5717 3.06862 74.6925 3.1031 74.7442 3.20079C74.796 3.29273 74.7615 3.41341 74.6637 3.46513C74.1979 3.71223 73.7379 3.98231 73.2951 4.25814C73.2606 4.26963 73.2261 4.28113 73.1916 4.28113ZM98.735 3.25825C98.7062 3.25825 98.6775 3.25251 98.6487 3.23527C98.183 2.99392 97.6999 2.76406 97.2169 2.55144C97.1191 2.51121 97.0731 2.39628 97.1191 2.29859C97.1594 2.2009 97.2744 2.15493 97.3722 2.2009C97.8609 2.41352 98.3497 2.64913 98.8213 2.89048C98.919 2.9422 98.9535 3.05713 98.9018 3.14907C98.873 3.22377 98.8098 3.25825 98.735 3.25825ZM76.9121 2.3618C76.8374 2.3618 76.7626 2.31583 76.7339 2.24113C76.6936 2.14344 76.7396 2.02851 76.8374 1.98828C77.3319 1.78141 77.8322 1.59177 78.3382 1.41938C78.4417 1.3849 78.551 1.43662 78.5855 1.54006C78.62 1.64349 78.5682 1.75268 78.4647 1.78715C77.9644 1.95955 77.4699 2.14918 76.9811 2.35031C76.9639 2.3618 76.9351 2.3618 76.9121 2.3618ZM94.8765 1.64924C94.8592 1.64924 94.8362 1.64349 94.819 1.63775C94.3187 1.47685 93.8069 1.32744 93.3008 1.19527C93.1973 1.16654 93.1341 1.0631 93.1628 0.959662C93.1916 0.856225 93.2951 0.793014 93.3986 0.821746C93.9161 0.953915 94.4337 1.10332 94.9397 1.26997C95.0432 1.30445 95.095 1.41363 95.0662 1.51132C95.0317 1.59752 94.957 1.64924 94.8765 1.64924ZM80.8914 1.07459C80.8052 1.07459 80.7247 1.01713 80.7017 0.925183C80.6787 0.821746 80.7419 0.71831 80.8454 0.689577C81.3687 0.568901 81.8977 0.459718 82.421 0.367775C82.5303 0.350535 82.628 0.419493 82.6453 0.52293C82.6625 0.626366 82.5935 0.729803 82.49 0.747042C81.9725 0.833239 81.4492 0.942423 80.9374 1.0631C80.9259 1.07459 80.9087 1.07459 80.8914 1.07459ZM90.8052 0.689577C90.7937 0.689577 90.7879 0.689577 90.7764 0.689577C90.2589 0.609127 89.7298 0.545915 89.2065 0.499944C89.0973 0.488451 89.0225 0.396507 89.034 0.287324C89.0455 0.178141 89.1375 0.103437 89.2468 0.11493C89.7758 0.160901 90.3164 0.229859 90.8454 0.31031C90.9489 0.327549 91.0237 0.425239 91.0064 0.528676C90.9777 0.62062 90.8972 0.689577 90.8052 0.689577ZM85.0317 0.448225C84.9282 0.448225 84.8477 0.367775 84.8362 0.270084C84.8305 0.160901 84.911 0.0689577 85.0145 0.0632113C85.5435 0.0229859 86.0841 0.00574648 86.6188 0C86.7224 0 86.8144 0.0861972 86.8144 0.189634C86.8144 0.298817 86.7281 0.385014 86.6246 0.385014C86.0956 0.390761 85.5665 0.408 85.0432 0.448225C85.0432 0.448225 85.0375 0.448225 85.0317 0.448225Z" fill="#81BBFF"/>
<path d="M112.45 22.2619C112.358 22.2619 112.272 22.1929 112.26 22.101C112.22 21.8481 112.18 21.5953 112.128 21.3424C112.111 21.239 112.18 21.1355 112.283 21.1183C112.387 21.1011 112.49 21.17 112.507 21.2735C112.553 21.5263 112.599 21.7849 112.64 22.0435C112.657 22.1469 112.582 22.2504 112.479 22.2619C112.473 22.2619 112.461 22.2619 112.45 22.2619Z" fill="#81BBFF"/>
<path d="M106.751 25.4971C106.763 25.365 106.688 25.2385 106.567 25.1868L103.094 23.6813C102.823 21.9343 102.277 20.2219 101.443 18.6071L103.358 15.3489C103.427 15.2339 103.41 15.0903 103.324 14.9868L100.374 11.5389C100.288 11.4355 100.15 11.401 100.023 11.4527L96.5037 12.8376C95.0374 11.7631 93.4273 10.9528 91.7424 10.4184L90.7878 6.75787C90.7533 6.63145 90.6441 6.53376 90.5118 6.52801L85.9862 6.17748C85.854 6.16598 85.7274 6.24069 85.6757 6.36136L84.1691 9.83224C82.4209 10.1023 80.7073 10.6482 79.0914 11.4815L75.8309 9.5679C75.7159 9.49894 75.5722 9.51618 75.4687 9.60238L72.0184 12.5503C71.9149 12.6365 71.8804 12.7744 71.9322 12.9009L73.318 16.4177C72.2427 17.8831 71.4319 19.4921 70.8971 21.1758L67.2341 22.1297C67.1075 22.1642 67.0155 22.2734 67.004 22.4055L66.6533 26.928C66.6418 27.0602 66.7165 27.1866 66.8373 27.2383L70.3105 28.7439C70.5808 30.4908 71.1271 32.2033 71.9609 33.818L70.046 37.0763C69.977 37.1912 69.9943 37.3349 70.0805 37.4383L73.0305 40.8862C73.1167 40.9896 73.2548 41.0241 73.3813 40.9724L76.9005 39.5875C78.3669 40.6621 79.977 41.4724 81.6619 42.0068L82.6165 45.6673C82.651 45.7937 82.7602 45.8914 82.8925 45.8971L87.4181 46.2477C87.5503 46.2592 87.6768 46.1845 87.7286 46.0638L89.2352 42.5929C90.9833 42.3228 92.697 41.7769 94.3128 40.9437L97.5733 42.8573C97.6883 42.9262 97.8321 42.909 97.9356 42.8228L101.386 39.8748C101.489 39.7886 101.524 39.6507 101.472 39.5243L100.086 36.0074C101.162 34.5421 101.972 32.9331 102.507 31.2494L106.17 30.2955C106.297 30.261 106.394 30.1518 106.4 30.0196L106.751 25.4971Z" fill="#81BBFF"/>
<path opacity="0.7" d="M86.6934 30.5311C85.8078 30.5311 84.9453 30.261 84.2092 29.738C82.2656 28.3646 81.7998 25.6638 83.1799 23.7215C83.8469 22.7791 84.8418 22.1527 85.9804 21.9573C87.1189 21.7619 88.2633 22.0205 89.2064 22.6871C90.1494 23.3537 90.7762 24.3478 90.9717 25.4856C91.1672 26.6234 90.9085 27.767 90.2414 28.7094C89.5744 29.6518 88.5796 30.2782 87.441 30.4736C87.1879 30.5081 86.9407 30.5311 86.6934 30.5311ZM86.7107 22.4745C86.4979 22.4745 86.2851 22.4917 86.0724 22.532C85.089 22.6986 84.2265 23.2445 83.6514 24.0548C82.4611 25.7385 82.8579 28.0716 84.5427 29.2668C85.3593 29.8415 86.3484 30.0656 87.3317 29.8989C88.315 29.7323 89.1776 29.1864 89.7526 28.3761C90.3277 27.5601 90.552 26.5717 90.3852 25.5891C90.2184 24.6064 89.6721 23.7445 88.8613 23.1698C88.2288 22.7101 87.4812 22.4745 86.7107 22.4745Z" fill="white"/>
<path opacity="0.7" d="M86.6245 37.4498C86.3312 37.4498 86.0322 37.4383 85.7332 37.4153C82.7372 37.1797 80.0172 35.8006 78.0621 33.5192C76.3024 31.4677 75.3594 28.9105 75.3594 26.2327C75.3594 25.9396 75.3709 25.6408 75.3939 25.342C75.6296 22.3481 77.0098 19.63 79.2927 17.6762C81.5756 15.7281 84.4796 14.78 87.4755 15.0156C90.4715 15.2512 93.1915 16.6303 95.1466 18.9117C95.6699 19.5208 96.1242 20.1816 96.5037 20.8827L95.9919 21.1585C95.6354 20.4977 95.1984 19.8656 94.7038 19.2909C92.8522 17.1303 90.2702 15.8143 87.4295 15.596C84.5888 15.3776 81.8344 16.274 79.6722 18.1244C77.51 19.9748 76.1932 22.5549 75.9747 25.3937C75.9517 25.6753 75.9402 25.9569 75.9402 26.2384C75.9402 28.7726 76.8315 31.1976 78.4991 33.1457C80.3507 35.3064 82.9327 36.6223 85.7734 36.8407C88.6141 37.0591 91.3686 36.1626 93.5307 34.3122C94.9971 33.0595 96.1012 31.4275 96.7107 29.6059L97.2628 29.7898C96.6187 31.7091 95.4629 33.4273 93.9103 34.749C91.8631 36.5074 89.3042 37.4498 86.6245 37.4498Z" fill="white"/>
<path d="M131.351 45.1846C131.317 45.1846 131.282 45.1731 131.253 45.1558C131.161 45.1041 131.133 44.9834 131.184 44.8915C131.317 44.6731 131.437 44.449 131.552 44.2249C131.604 44.1272 131.719 44.0927 131.811 44.1445C131.909 44.1962 131.943 44.3111 131.892 44.403C131.771 44.6329 131.644 44.8628 131.512 45.0869C131.478 45.1501 131.414 45.1846 131.351 45.1846Z" fill="#81BBFF"/>
<path d="M118.855 51.6608C118.85 51.6608 118.844 51.6608 118.838 51.6608C118.315 51.6206 117.786 51.5459 117.268 51.4425C117.165 51.4195 117.096 51.3218 117.113 51.2126C117.136 51.1092 117.234 51.0402 117.343 51.0575C117.843 51.1552 118.355 51.2241 118.867 51.2643C118.976 51.2701 119.051 51.3678 119.045 51.4712C119.039 51.5861 118.953 51.6608 118.855 51.6608ZM121.386 51.6206C121.288 51.6206 121.207 51.5459 121.196 51.4482C121.184 51.3448 121.259 51.2471 121.368 51.2356C121.88 51.1781 122.386 51.0919 122.886 50.977C122.99 50.954 123.093 51.0172 123.116 51.1207C123.139 51.2241 123.076 51.3276 122.973 51.3505C122.461 51.4712 121.938 51.5574 121.414 51.6206C121.403 51.6206 121.391 51.6206 121.386 51.6206ZM114.882 50.7242C114.859 50.7242 114.83 50.7184 114.807 50.7127C114.318 50.5173 113.841 50.2874 113.381 50.0346C113.289 49.9829 113.254 49.8679 113.306 49.7703C113.358 49.6783 113.473 49.6438 113.571 49.6956C114.019 49.9427 114.485 50.1668 114.957 50.3564C115.054 50.3966 115.106 50.5116 115.066 50.6092C115.031 50.6782 114.957 50.7242 114.882 50.7242ZM125.325 50.5518C125.25 50.5518 125.181 50.5116 125.146 50.4368C125.1 50.3392 125.146 50.2242 125.244 50.184C125.71 49.9771 126.17 49.7358 126.607 49.4772C126.699 49.4197 126.82 49.4542 126.871 49.5461C126.929 49.6381 126.894 49.7588 126.802 49.8105C126.348 50.0806 125.877 50.3277 125.399 50.5403C125.376 50.546 125.353 50.5518 125.325 50.5518ZM111.386 48.6267C111.34 48.6267 111.299 48.6095 111.259 48.5807C110.857 48.2474 110.471 47.8797 110.103 47.5004C110.028 47.4199 110.034 47.2993 110.109 47.2246C110.189 47.1499 110.31 47.1556 110.385 47.2303C110.736 47.6038 111.115 47.9544 111.506 48.2819C111.587 48.3509 111.598 48.4716 111.529 48.552C111.495 48.598 111.437 48.6267 111.386 48.6267ZM128.752 48.3336C128.7 48.3336 128.648 48.3107 128.608 48.2704C128.539 48.19 128.545 48.0693 128.625 47.9946L128.74 47.8912C129.08 47.5808 129.407 47.2476 129.712 46.9085C129.781 46.8281 129.908 46.8223 129.988 46.8913C130.069 46.9602 130.074 47.0867 130.005 47.1671C129.689 47.5176 129.356 47.8624 129.005 48.1785L128.89 48.2819C128.844 48.3164 128.798 48.3336 128.752 48.3336ZM108.683 45.5638C108.62 45.5638 108.556 45.5351 108.522 45.4719C108.24 45.0294 107.976 44.5639 107.746 44.0927C107.7 43.995 107.74 43.8801 107.838 43.8341C107.935 43.7882 108.05 43.8284 108.096 43.9261C108.321 44.3858 108.574 44.834 108.85 45.265C108.907 45.357 108.878 45.4719 108.792 45.5294C108.758 45.5581 108.723 45.5638 108.683 45.5638Z" fill="#81BBFF"/>
<path d="M107.038 41.8229C106.952 41.8229 106.872 41.7654 106.849 41.6792C106.78 41.4264 106.722 41.1678 106.67 40.9149C106.647 40.8115 106.716 40.7081 106.82 40.6851C106.923 40.6621 107.027 40.731 107.05 40.8345C107.102 41.0816 107.159 41.3344 107.222 41.5758C107.251 41.6792 107.188 41.7826 107.084 41.8114C107.073 41.8229 107.056 41.8229 107.038 41.8229Z" fill="#81BBFF"/>
<path d="M108.631 31.3241C108.597 31.3241 108.562 31.3126 108.528 31.2953C108.436 31.2379 108.413 31.1172 108.464 31.031C108.603 30.8126 108.752 30.5885 108.902 30.3816C108.965 30.2954 109.086 30.2725 109.172 30.3357C109.258 30.3989 109.281 30.5196 109.218 30.6057C109.068 30.8126 108.93 31.0252 108.792 31.2379C108.758 31.2953 108.7 31.3241 108.631 31.3241Z" fill="#81BBFF"/>
<path d="M132.151 33.2089C132.076 33.2089 132.001 33.1629 131.972 33.0882C131.777 32.6285 131.553 32.1688 131.3 31.7321C131.248 31.6401 131.277 31.5194 131.374 31.4677C131.466 31.416 131.587 31.4447 131.639 31.5424C131.898 31.9907 132.128 32.4619 132.329 32.9388C132.369 33.0365 132.323 33.1514 132.225 33.1917C132.202 33.2032 132.174 33.2089 132.151 33.2089ZM130.04 29.7955C129.983 29.7955 129.931 29.7725 129.891 29.7265C129.793 29.6116 129.689 29.4967 129.586 29.3817C129.35 29.1232 129.103 28.8703 128.844 28.6347C128.764 28.56 128.764 28.4393 128.833 28.3589C128.907 28.2784 129.028 28.2784 129.109 28.3474C129.373 28.5945 129.626 28.8531 129.873 29.1174C129.983 29.2323 130.086 29.353 130.184 29.4737C130.253 29.5541 130.242 29.6748 130.161 29.7438C130.127 29.7783 130.081 29.7955 130.04 29.7955ZM110.696 28.8014C110.644 28.8014 110.592 28.7841 110.558 28.7439C110.483 28.6692 110.489 28.5428 110.564 28.4681C110.644 28.3934 110.719 28.3187 110.799 28.2439C111.104 27.9681 111.42 27.7038 111.748 27.4567C111.834 27.3935 111.955 27.4107 112.018 27.4912C112.082 27.5774 112.064 27.698 111.984 27.7612C111.668 28.0026 111.357 28.2612 111.064 28.5255C110.983 28.5945 110.909 28.6692 110.834 28.7439C110.794 28.7841 110.748 28.8014 110.696 28.8014ZM127.01 27.1636C126.975 27.1636 126.941 27.1521 126.906 27.1349C126.481 26.8648 126.038 26.6177 125.584 26.4051C125.486 26.3591 125.446 26.2442 125.492 26.1465C125.538 26.0488 125.653 26.0086 125.75 26.0545C126.216 26.2787 126.676 26.5315 127.113 26.8073C127.205 26.8648 127.228 26.9855 127.171 27.0717C127.136 27.1291 127.073 27.1636 127.01 27.1636ZM113.985 26.4913C113.916 26.4913 113.847 26.451 113.813 26.3821C113.767 26.2844 113.807 26.1695 113.899 26.1235C114.359 25.8936 114.842 25.6868 115.331 25.5144C115.434 25.4799 115.543 25.5316 115.578 25.6293C115.612 25.727 115.561 25.8419 115.463 25.8764C114.991 26.0488 114.52 26.2442 114.071 26.4683C114.043 26.4855 114.014 26.4913 113.985 26.4913ZM123.329 25.5546C123.312 25.5546 123.295 25.5546 123.278 25.5488C122.795 25.4224 122.294 25.319 121.794 25.2443C121.691 25.227 121.616 25.1294 121.633 25.0259C121.65 24.9225 121.748 24.842 121.852 24.865C122.363 24.9397 122.875 25.0432 123.376 25.1753C123.479 25.2041 123.542 25.3075 123.514 25.4109C123.491 25.4971 123.416 25.5546 123.329 25.5546ZM117.809 25.273C117.717 25.273 117.631 25.2041 117.619 25.1121C117.602 25.0087 117.677 24.9052 117.78 24.8937C118.292 24.8133 118.81 24.7616 119.327 24.7386C119.436 24.7386 119.523 24.819 119.528 24.9225C119.534 25.0317 119.448 25.1179 119.344 25.1236C118.838 25.1466 118.332 25.1926 117.838 25.273C117.826 25.273 117.821 25.273 117.809 25.273Z" fill="#81BBFF"/>
<path d="M133.048 36.3465C132.956 36.3465 132.869 36.2775 132.858 36.1856C132.818 35.9385 132.772 35.6856 132.72 35.4385C132.697 35.3351 132.766 35.2317 132.869 35.2087C132.973 35.1857 133.076 35.2546 133.099 35.3581C133.157 35.6109 133.203 35.8695 133.243 36.1281C133.26 36.2315 133.186 36.335 133.082 36.3465C133.065 36.3465 133.053 36.3465 133.048 36.3465Z" fill="#81BBFF"/>
<path d="M130.115 37.9153C130.121 37.8463 130.08 37.7831 130.017 37.7544L128.234 36.9786C128.096 36.0821 127.815 35.2029 127.383 34.3697L128.367 32.6975C128.401 32.64 128.395 32.5653 128.349 32.5136L126.831 30.7437C126.785 30.6919 126.716 30.6747 126.653 30.6977L124.847 31.4103C124.094 30.8586 123.266 30.4448 122.404 30.169L121.915 28.2899C121.897 28.2267 121.84 28.175 121.771 28.1692L119.448 27.9911C119.379 27.9854 119.316 28.0256 119.287 28.0888L118.51 29.8702C117.613 30.0081 116.734 30.2897 115.9 30.7207L114.226 29.738C114.169 29.7035 114.094 29.7093 114.042 29.7553L112.271 31.2723C112.219 31.3183 112.202 31.3873 112.225 31.4505L112.938 33.2549C112.386 34.0077 111.972 34.8352 111.696 35.6971L109.816 36.1856C109.753 36.2028 109.701 36.2603 109.695 36.3292L109.517 38.6508C109.511 38.7198 109.551 38.783 109.615 38.8117L111.397 39.5875C111.535 40.4839 111.817 41.3632 112.248 42.1964L111.265 43.8686C111.23 43.9261 111.236 44.0008 111.282 44.0525L112.8 45.8224C112.846 45.8741 112.915 45.8914 112.979 45.8684L114.784 45.1558C115.537 45.7075 116.366 46.1212 117.228 46.3971L117.717 48.2762C117.734 48.3394 117.792 48.3911 117.861 48.3968L120.184 48.575C120.253 48.5807 120.316 48.5405 120.345 48.4773L121.121 46.6959C122.018 46.558 122.898 46.2764 123.732 45.8454L125.405 46.8281C125.463 46.8625 125.537 46.8568 125.589 46.8108L127.36 45.2937C127.412 45.2478 127.429 45.1788 127.406 45.1156L126.693 43.3112C127.245 42.5584 127.659 41.7309 127.935 40.869L129.816 40.3805C129.879 40.3633 129.931 40.3058 129.937 40.2368L130.115 37.9153Z" fill="#81BBFF"/>
<path opacity="0.7" d="M119.816 40.6391C119.333 40.6391 118.861 40.4897 118.459 40.2024C117.395 39.4496 117.142 37.9785 117.895 36.9154C118.257 36.3982 118.804 36.0592 119.425 35.9557C120.046 35.8465 120.673 35.9902 121.184 36.358C121.702 36.72 122.041 37.2659 122.145 37.8865C122.254 38.5072 122.11 39.1335 121.742 39.645C121.38 40.1621 120.834 40.5012 120.213 40.6046C120.086 40.6276 119.948 40.6391 119.816 40.6391ZM119.822 36.5016C119.264 36.5016 118.712 36.7602 118.367 37.2544C117.797 38.0532 117.993 39.168 118.792 39.7312C119.178 40.007 119.655 40.1104 120.121 40.03C120.592 39.9495 121 39.6909 121.271 39.3059C121.547 38.9209 121.65 38.4439 121.57 37.9785C121.489 37.5073 121.23 37.0993 120.845 36.8292C120.54 36.6108 120.178 36.5016 119.822 36.5016Z" fill="white"/>
<path opacity="0.7" d="M119.781 44.1962C119.626 44.1962 119.471 44.1904 119.31 44.1789C117.734 44.0583 116.302 43.3284 115.273 42.1274C114.318 41.0126 113.853 39.6507 113.853 38.2888C113.853 36.6223 114.554 34.9616 115.923 33.795C118.401 31.6746 122.145 31.9677 124.267 34.4444C124.284 34.4616 124.301 34.4846 124.318 34.5019C124.548 34.7777 124.755 35.0708 124.928 35.3811C124.928 35.3811 124.928 35.3811 124.928 35.3868C124.928 35.3926 124.934 35.3983 124.934 35.3983C124.939 35.4041 124.945 35.4156 124.945 35.4213C124.945 35.427 124.951 35.4328 124.951 35.4328C124.957 35.4443 124.968 35.4615 124.974 35.473L124.462 35.7488C124.284 35.4155 124.065 35.0995 123.818 34.8122C122.467 33.2319 120.379 32.64 118.482 33.1055C117.7 33.2951 116.952 33.6686 116.297 34.226C115.066 35.2776 114.433 36.7775 114.433 38.283C114.433 39.507 114.853 40.7425 115.71 41.7482C117.625 43.9835 120.995 44.2479 123.232 42.3343C123.968 41.7079 124.514 40.8919 124.819 39.9783L125.371 40.1621C125.031 41.1735 124.422 42.0757 123.605 42.771C122.536 43.6962 121.19 44.1962 119.781 44.1962Z" fill="white"/>
<path d="M82.0817 64.9525C82.559 64.5042 83.203 64.2859 83.8586 64.3433C90.8281 64.9697 103.83 61.6137 112.323 52.9251C112.915 52.3217 113.991 52.6607 114.664 53.1664C124.112 60.2231 139.776 61.6827 145.216 61.9815C146.343 62.0447 147.251 62.9125 147.366 64.033C152.312 111.758 121.213 129.054 114.767 132.106C114.06 132.439 113.232 132.393 112.57 131.979C80.4255 111.97 81.7999 85.9501 81.3571 66.6706C81.3399 66.027 81.6044 65.3949 82.0817 64.9525Z" fill="#81BBFF"/>
<path opacity="0.61" d="M113.899 128.646C113.755 128.646 113.611 128.606 113.485 128.526C101.162 120.653 93.1282 111.24 88.9303 99.7531C85.1811 89.4957 84.997 79.0428 84.836 69.8255L84.813 68.5957C84.8073 68.3888 84.8878 68.1992 85.0315 68.0498C85.1753 67.9004 85.3708 67.8199 85.5778 67.8199C93.2087 67.8199 104.664 64.4525 113.065 56.9304C113.324 56.7005 113.703 56.6718 113.996 56.8614C123.226 62.9814 136.394 64.7628 143.421 65.28C143.795 65.3087 144.088 65.5961 144.123 65.9753C145.756 84.5997 141.88 100.345 132.605 112.78C125.676 122.067 117.458 126.905 114.249 128.554C114.134 128.618 114.019 128.646 113.899 128.646ZM114.1 128.284C117.291 126.647 125.457 121.837 132.352 112.602C141.581 100.23 145.44 84.5537 143.812 66.0098C143.795 65.7914 143.617 65.619 143.398 65.6018C136.343 65.0846 123.111 63.2917 113.824 57.1315C113.651 57.0166 113.427 57.0338 113.278 57.1717C104.813 64.7513 93.2719 68.1418 85.5893 68.1418C85.4571 68.1418 85.3421 68.1877 85.2616 68.2797C85.1753 68.3659 85.1293 68.4808 85.1351 68.6015L85.1581 69.8312C85.3191 79.0256 85.5031 89.4439 89.2351 99.6554C93.4099 111.074 101.403 120.435 113.663 128.273C113.789 128.348 113.962 128.359 114.1 128.284Z" fill="white"/>
<path d="M125.135 82.9677H123.68C122.956 82.9677 122.375 82.3815 122.375 81.6632V76.6983C122.375 74.9226 120.932 73.4802 119.155 73.4802H110.149C108.373 73.4802 106.929 74.9226 106.929 76.6983V81.6632C106.929 82.3873 106.343 82.9677 105.624 82.9677H104.169C103.444 82.9677 102.864 82.3815 102.864 81.6632V76.6983C102.864 72.6757 106.124 69.4175 110.149 69.4175H119.155C123.18 69.4175 126.44 72.6757 126.44 76.6983V81.6632C126.44 82.3815 125.854 82.9677 125.135 82.9677Z" fill="white"/>
<path d="M126.935 84.1399H102.363C100.857 84.1399 99.6376 85.3582 99.6376 86.8638V105.706C99.6376 107.212 100.857 108.43 102.363 108.43H126.935C128.441 108.43 129.661 107.212 129.661 105.706V86.8638C129.661 85.3582 128.441 84.1399 126.935 84.1399ZM118.165 102.351C118.321 102.983 117.838 103.598 117.182 103.598H112.116C111.46 103.598 110.983 102.988 111.133 102.351L112.317 97.4315C110.92 96.5983 110.011 95.041 110.103 93.2768C110.224 90.9955 112.076 89.1221 114.359 88.9842C117.004 88.8176 119.206 90.915 119.206 93.5239C119.206 95.1847 118.315 96.6385 116.987 97.4315L118.165 102.351Z" fill="white"/>
<path d="M20.4658 77.9797C20.4658 77.9797 22.4555 78.0832 22.7027 82.1747C22.7027 82.1747 18.0909 86.3064 11.8574 87.2948C11.3916 87.3695 12.513 84.0997 12.6797 83.6572C13.4791 81.554 16.0035 80.1979 20.4658 77.9797Z" fill="#00417C"/>
<path d="M42.8752 73.1699H38.6774C38.6774 73.1699 25.7906 58.9474 17.3318 57.5108C17.3318 57.5108 11.4491 65.0157 17.648 79.0428C18.1483 80.1691 19.5399 80.6748 20.5807 80.0082C20.8913 79.8071 21.1155 79.5428 21.2535 79.2095L20.7533 67.2338C20.7533 67.2338 31.7481 76.8419 33.6572 78.698C35.5721 80.5484 45.2846 79.4163 42.8752 73.1699Z" fill="#3C83D7"/>
<path d="M2.27726 103.034C4.03689 101.494 6.8431 99.7646 10.8914 99.2704L12.26 100.109C12.26 100.109 11.3859 101.397 9.79308 102.753C8.32672 103.603 6.0668 104.758 4.18641 105.005C2.35777 105.247 2.09325 104.143 2.27726 103.034Z" fill="#00417C"/>
<path d="M12.6739 83.6572C13.7607 84.0078 14.2323 85.5421 16.9867 84.525C19.6492 83.5423 21.6273 82.2781 22.6452 81.5483C22.6682 81.7437 22.6854 81.9505 22.7027 82.1747C22.7027 82.1747 17.8378 86.8006 11.6043 87.7832C11.1385 87.8579 10.7648 87.3925 10.9315 86.95C11.2305 86.157 11.7768 84.9502 12.6739 83.6572Z" fill="#3C83D7"/>
<path d="M0.94888 104.35C1.29391 103.954 1.73669 103.506 2.27723 103.034C2.09322 104.143 2.36349 105.247 4.18637 105.005C6.06101 104.758 8.32668 103.603 9.79304 102.753C7.95866 104.316 5.1582 105.982 1.63318 105.885C0.845372 105.862 0.431341 104.936 0.94888 104.35Z" fill="#3C83D7"/>
<path d="M42.7259 76.2041L23.0594 76.4167C23.0594 76.4167 11.8288 85.703 9.79315 99.8623C9.79315 99.8623 9.45387 100.902 11.4838 101.081C11.4838 101.081 18.275 96.65 22.7029 88.8118C28.1313 79.2037 38.8846 83.5308 38.8846 83.5308C44.0542 84.6686 48.1658 84.2491 51.1733 79.6175L42.7259 76.2041Z" fill="#3C83D7"/>
<mask id="path-45-inside-1_643_3041" fill="white">
<path d="M42.26 60.3725C42.26 60.3725 40.1438 70.9748 29.7701 75.1697L26.0783 74.733L25.21 76.1179L33.8644 76.3937C33.8644 76.3937 41.2652 73.463 45.1812 65.4869C45.3135 65.2283 47.4699 60.7748 42.26 60.3725Z"/>
</mask>
<path d="M42.26 60.3725C42.26 60.3725 40.1438 70.9748 29.7701 75.1697L26.0783 74.733L25.21 76.1179L33.8644 76.3937C33.8644 76.3937 41.2652 73.463 45.1812 65.4869C45.3135 65.2283 47.4699 60.7748 42.26 60.3725Z" fill="#FEFEFE"/>
<path d="M42.26 60.3725L42.2773 60.1478L42.0781 60.1324L42.039 60.3284L42.26 60.3725ZM29.7701 75.1697L29.7436 75.3935L29.801 75.4003L29.8545 75.3786L29.7701 75.1697ZM26.0783 74.733L26.1048 74.5092L25.9631 74.4924L25.8873 74.6133L26.0783 74.733ZM25.21 76.1179L25.019 75.9982L24.8106 76.3306L25.2028 76.3431L25.21 76.1179ZM33.8644 76.3937L33.8572 76.6189L33.9039 76.6204L33.9473 76.6032L33.8644 76.3937ZM45.1812 65.4869L44.9805 65.3842L44.9789 65.3876L45.1812 65.4869ZM42.26 60.3725C42.039 60.3284 42.039 60.3284 42.039 60.3283C42.039 60.3284 42.039 60.3284 42.039 60.3285C42.0389 60.3287 42.0389 60.3291 42.0388 60.3296C42.0385 60.3306 42.0382 60.3323 42.0377 60.3346C42.0368 60.3392 42.0353 60.3463 42.0332 60.3559C42.0291 60.375 42.0228 60.404 42.014 60.4423C41.9965 60.5188 41.9693 60.6324 41.9308 60.7791C41.8539 61.0725 41.7323 61.4979 41.5539 62.0221C41.1971 63.0707 40.6141 64.5133 39.7098 66.0857C37.9014 69.2305 34.8131 72.8873 29.6856 74.9608L29.8545 75.3786C35.1008 73.2571 38.2575 69.5154 40.1005 66.3103C41.0221 64.7078 41.6164 63.2376 41.9806 62.1672C42.1627 61.6319 42.2874 61.1962 42.3668 60.8934C42.4065 60.742 42.4348 60.6238 42.4534 60.5429C42.4626 60.5025 42.4694 60.4714 42.474 60.4502C42.4762 60.4396 42.4779 60.4315 42.4791 60.4258C42.4797 60.423 42.4801 60.4208 42.4804 60.4193C42.4806 60.4185 42.4807 60.4179 42.4808 60.4175C42.4809 60.4173 42.4809 60.417 42.4809 60.4169C42.481 60.4168 42.481 60.4166 42.26 60.3725ZM29.7965 74.9459L26.1048 74.5092L26.0518 74.9568L29.7436 75.3935L29.7965 74.9459ZM25.8873 74.6133L25.019 75.9982L25.4009 76.2376L26.2692 74.8527L25.8873 74.6133ZM25.2028 76.3431L33.8572 76.6189L33.8715 76.1685L25.2171 75.8926L25.2028 76.3431ZM33.8644 76.3937C33.9473 76.6032 33.9474 76.6032 33.9476 76.6031C33.9477 76.6031 33.9478 76.603 33.948 76.603C33.9483 76.6028 33.9487 76.6027 33.9493 76.6024C33.9504 76.602 33.952 76.6014 33.9539 76.6006C33.9579 76.599 33.9637 76.5966 33.9712 76.5936C33.9861 76.5874 34.008 76.5784 34.0365 76.5663C34.0934 76.5421 34.1766 76.506 34.2835 76.4573C34.4972 76.3598 34.8056 76.2123 35.1873 76.0103C35.9506 75.6066 37.0079 74.9851 38.1882 74.1125C40.5483 72.3678 43.4054 69.6151 45.3835 65.5862L44.9789 65.3876C43.0409 69.3348 40.2397 72.0355 37.9203 73.7501C36.7609 74.6072 35.7233 75.217 34.9766 75.6119C34.6033 75.8094 34.3029 75.9531 34.0966 76.0471C33.9934 76.0941 33.9138 76.1287 33.8604 76.1514C33.8337 76.1627 33.8135 76.1711 33.8002 76.1765C33.7936 76.1793 33.7887 76.1812 33.7855 76.1825C33.784 76.1832 33.7828 76.1836 33.7821 76.1839C33.7818 76.184 33.7815 76.1841 33.7814 76.1842C33.7814 76.1842 33.7814 76.1842 33.7813 76.1842C33.7813 76.1842 33.7814 76.1842 33.8644 76.3937ZM45.3818 65.5895C45.4508 65.4548 46.0495 64.2283 45.9485 62.9656C45.8973 62.3247 45.6647 61.6632 45.0842 61.1379C44.5067 60.6154 43.6106 60.2508 42.2773 60.1478L42.2426 60.5972C43.5143 60.6954 44.3023 61.0383 44.7818 61.4721C45.258 61.903 45.4549 62.4464 45.4993 63.0015C45.5895 64.1308 45.0439 65.2604 44.9806 65.3843L45.3818 65.5895Z" fill="#0557A3" mask="url(#path-45-inside-1_643_3041)"/>
<path d="M41.1271 76.0317C41.1271 76.0317 43.5365 69.4922 44.0541 63.1366C44.0541 63.1366 42.2944 61.6252 41.1903 60.9701C40.8338 60.7575 40.7016 60.3093 40.8798 59.9415C41.6906 58.2635 46.5843 51.6896 46.9523 51.5976C48.9477 51.1034 57.119 47.2188 62.8752 55.0857C65.3479 58.4647 62.3864 68.8601 51.1789 79.6232C47.5676 80.2036 44.1921 79.1692 41.1271 76.0317Z" fill="#3C83D7"/>
<path d="M38.393 76.1257L38.3878 76.1259H27.634C27.6962 76.0418 27.7792 75.931 27.8796 75.8003C28.1157 75.493 28.4473 75.0759 28.83 74.6367C29.2128 74.1973 29.6455 73.7371 30.0835 73.3428C30.5229 72.9473 30.9616 72.6238 31.3562 72.4514C32.1269 72.1148 33.0473 72.4137 33.8003 72.8242C34.1727 73.0272 34.4953 73.2527 34.7249 73.4277C34.8396 73.5151 34.9309 73.5897 34.9932 73.6423C35.0244 73.6685 35.0483 73.6893 35.0644 73.7034L35.0824 73.7193L35.0868 73.7233L35.0878 73.7242L35.088 73.7244L35.0881 73.7244L35.0881 73.7244L35.127 73.7599L35.1791 73.7528C39.4827 73.1686 43.311 70.8869 46.0588 68.7581C47.4337 67.6929 48.5405 66.6642 49.3036 65.9017C49.6853 65.5203 49.9811 65.2055 50.1817 64.9857C50.282 64.8758 50.3586 64.7897 50.4101 64.7309C50.4125 64.7282 50.4148 64.7255 50.4171 64.7229C52.2399 66.1777 53.4261 67.4509 53.8413 69.5532C51.2668 72.6439 47.4199 74.2886 44.1993 75.1601C42.5835 75.5973 41.1291 75.8388 40.0788 75.971C39.5537 76.0371 39.1298 76.0759 38.8375 76.0981C38.6914 76.1092 38.5781 76.1162 38.5016 76.1204C38.4633 76.1225 38.4342 76.1239 38.4148 76.1247L38.393 76.1257Z" fill="#FEFEFE" stroke="#0557A3" stroke-width="0.225352"/>
<path d="M55.6598 50.952L55.66 50.9527C55.7143 51.1291 55.6466 51.3198 55.4967 51.4244C54.806 51.8956 53.0051 52.8362 50.5283 51.9231C50.2813 51.8291 50.1091 51.6023 50.0894 51.3365L50.0893 51.3357L49.7522 47.1864L54.2237 46.1739L55.6598 50.952Z" fill="#F9FAFB" stroke="#0557A3" stroke-width="0.225352"/>
<path d="M52.7969 38.9187L55.2856 45.285C54.6531 47.1388 53.4167 48.3461 52.1066 48.9037C50.7847 49.4665 49.3978 49.3657 48.4662 48.6192C47.9989 48.2449 47.5985 47.6537 47.2609 46.967C46.9241 46.2819 46.6541 45.5105 46.4439 44.7847C46.2337 44.0593 46.0838 43.3819 45.9865 42.8857C45.9379 42.6377 45.9024 42.4352 45.8791 42.2948C45.87 42.2398 45.8627 42.1943 45.8573 42.1594L52.7969 38.9187Z" fill="#F9FAFB" stroke="#0557A3" stroke-width="0.225352"/>
<path d="M53.1456 42.9779C52.9961 43.0239 52.8408 42.9319 52.8178 42.7768C52.7488 42.3113 52.5706 41.3861 52.2198 40.7598C52.2198 40.7598 52.4038 40.0989 50.5407 41.0988C48.6775 42.0987 45.8771 43.5756 44.2324 42.6963C42.6281 41.8401 41.0007 37.5417 45.2445 38.3348C45.4055 38.3635 45.555 38.2371 45.5435 38.0704C45.4918 37.3636 45.5608 35.7374 47.2112 35.2144C48.7523 34.726 49.5976 35.4213 49.9484 35.8408C50.0519 35.9672 50.2416 35.9615 50.3394 35.835C50.7994 35.2317 52.0588 33.9502 53.9047 34.7605C55.4285 35.4328 55.6643 36.3695 55.6355 36.9499C55.6298 37.1395 55.8195 37.2659 55.9921 37.1855C56.4578 36.9728 57.2054 36.8579 57.9242 37.7601C58.919 39.0014 57.4987 40.0817 57.0731 40.3633C57.0041 40.4092 56.9581 40.4839 56.9581 40.5701C56.9524 41.2137 56.8546 44.0353 55.44 45.627C55.3193 45.765 55.0892 45.7247 55.0202 45.5523L53.9334 42.9607C53.8817 42.84 53.7494 42.7768 53.6229 42.817L53.1456 42.9779Z" fill="#00417C"/>
<path d="M53.1226 43.5008C53.1226 43.5008 53.7896 40.7943 54.7959 41.6735C55.808 42.5527 54.5314 44.4835 53.3756 44.8513L53.1226 43.5008Z" fill="#FEFEFE"/>
<path d="M27.9645 76.8534L23.0364 60.4242C22.8351 59.7519 22.2371 59.2807 21.5413 59.229L14.8823 58.775C14.2037 58.729 13.7034 59.3899 13.9277 60.0277L19.4366 75.7156C19.6149 76.2213 20.0692 76.5776 20.604 76.6293L27.1594 77.3591L27.9645 76.8534Z" fill="#00417C"/>
<path d="M18.8729 65.9926C19.241 66.7339 19.8793 67.1706 20.2933 66.9637C20.7073 66.7568 20.7476 65.9868 20.3795 65.2455C20.0115 64.5042 19.3732 64.0675 18.9592 64.2744C18.5394 64.4812 18.5049 65.2455 18.8729 65.9926Z" fill="#3C83D7"/>
<path d="M27.1593 77.3591C27.1708 77.3591 27.1823 77.3591 27.1938 77.3591L41.1616 76.6523C41.5066 76.635 41.7712 76.342 41.7539 75.9972C41.7367 75.6524 41.4434 75.3823 41.0984 75.4053L27.1306 76.1121C26.7855 76.1294 26.521 76.4224 26.5383 76.7672C26.5498 77.1005 26.8258 77.3591 27.1593 77.3591Z" fill="#00417C"/>
<path d="M44.0483 63.2343C43.9965 63.2343 43.9505 63.194 43.9505 63.1366C43.939 60.1886 45.0776 56.2925 45.0891 56.2523C45.1064 56.2006 45.1581 56.1718 45.2099 56.1891C45.2616 56.2063 45.2904 56.258 45.2731 56.3098C45.2616 56.35 44.1345 60.2231 44.146 63.1366C44.146 63.1883 44.1058 63.2343 44.0483 63.2343Z" fill="#0557A3"/>
<path d="M50.4026 64.6651C50.3796 64.6651 50.3623 64.6594 50.3451 64.6421C50.3048 64.6077 50.2933 64.5502 50.3278 64.5042C50.3566 64.464 53.3928 60.6081 54.4336 57.9762C54.4509 57.9245 54.5084 57.9015 54.5601 57.9245C54.6119 57.9418 54.6349 57.9992 54.6119 58.0509C53.5595 60.7058 50.5118 64.5847 50.4773 64.6249C50.4601 64.6536 50.4313 64.6651 50.4026 64.6651Z" fill="#0557A3"/>
<path d="M54.7039 70.5955L54.1519 69.814C54.1231 69.768 54.1288 69.7105 54.1749 69.6818C54.2209 69.6531 54.2784 69.6588 54.3071 69.7048L54.7671 70.3599C59.0742 68.475 61.7424 63.3204 61.7654 63.2687C61.7884 63.2228 61.8459 63.1998 61.8977 63.2285C61.9437 63.2515 61.9667 63.309 61.9379 63.3607C61.9092 63.4124 59.1835 68.6819 54.7671 70.5725L54.7039 70.5955Z" fill="#0557A3"/>
</g>
<defs>
<clipPath id="clip0_643_3041">
<rect width="160" height="160.901" fill="white"/>
</clipPath>
</defs>
</svg>
